<?xml version="1.0" encoding="utf-8" standalone="no"?>
<!DOCTYPE svg PUBLIC "-//W3C//DTD SVG 1.1//EN"
  "http://www.w3.org/Graphics/SVG/1.1/DTD/svg11.dtd">
<!-- Created with matplotlib (http://matplotlib.org/) -->
<svg height="345pt" version="1.1" viewBox="0 0 460 345" width="460pt" xmlns="http://www.w3.org/2000/svg" xmlns:xlink="http://www.w3.org/1999/xlink">
 <defs>
  <style type="text/css">
*{stroke-linecap:butt;stroke-linejoin:round;}
  </style>
 </defs>
 <g id="figure_1">
  <g id="patch_1">
   <path d="M 0 345.6 
L 460.8 345.6 
L 460.8 0 
L 0 0 
z
" style="fill:#ffffff;"/>
  </g>
  <g id="axes_1">
   <g id="patch_2">
    <path d="M 57.6 162.432 
L 219.927273 162.432 
L 219.927273 41.472 
L 57.6 41.472 
z
" style="fill:#ffffff;"/>
   </g>
   <g id="PathCollection_1">
    <path clip-path="url(#p46845d5eba)" d="M 201.890909 148.215033 
L 202.783661 145.152 
L 201.890909 144.958395 
L 201.742418 145.152 
z
" style="fill:#eff9ec;"/>
   </g>
   <g id="PathCollection_2">
    <path clip-path="url(#p46845d5eba)" d="M 183.854545 162.432 
L 201.890909 162.432 
L 213.408812 162.432 
L 219.927273 155.107613 
L 219.927273 145.152 
L 219.927273 127.872 
L 219.927273 124.208774 
L 210.446875 127.872 
L 201.890909 131.842113 
L 191.682474 145.152 
L 183.854545 158.913574 
L 182.271481 162.432 
z
M 201.742418 145.152 
L 201.890909 144.958395 
L 202.783661 145.152 
L 201.890909 148.215033 
z
" style="fill:#dbf1d6;"/>
   </g>
   <g id="PathCollection_3">
    <path clip-path="url(#p46845d5eba)" d="M 183.854545 158.913574 
L 191.682474 145.152 
L 201.890909 131.842113 
L 210.446875 127.872 
L 219.927273 124.208774 
L 219.927273 113.286476 
L 201.890909 120.709517 
L 195.846187 127.872 
L 183.854545 142.763576 
L 182.099001 145.152 
L 174.314158 162.432 
L 182.271481 162.432 
z
" style="fill:#bee5b8;"/>
    <path clip-path="url(#p46845d5eba)" d="M 219.927273 162.432 
L 219.927273 155.107613 
L 213.408812 162.432 
z
" style="fill:#bee5b8;"/>
    <path clip-path="url(#p46845d5eba)" d="M 219.927273 73.217136 
L 219.927273 58.752 
L 219.927273 41.472 
L 218.633542 41.472 
L 208.065364 58.752 
z
" style="fill:#bee5b8;"/>
   </g>
   <g id="PathCollection_4">
    <path clip-path="url(#p46845d5eba)" d="M 182.099001 145.152 
L 183.854545 142.763576 
L 195.846187 127.872 
L 201.890909 120.709517 
L 219.927273 113.286476 
L 219.927273 110.592 
L 219.927273 93.312 
L 219.927273 76.032 
L 219.927273 73.217136 
L 208.065364 58.752 
L 218.633542 41.472 
L 201.890909 41.472 
L 183.854545 41.472 
L 165.818182 41.472 
L 163.220664 41.472 
L 165.818182 52.236819 
L 170.085913 58.752 
L 183.854545 69.92674 
L 191.466629 76.032 
L 201.890909 81.781555 
L 218.109691 93.312 
L 201.890909 110.007436 
L 201.701708 110.592 
L 187.177608 127.872 
L 183.854545 131.998678 
L 174.186563 145.152 
L 166.356836 162.432 
L 174.314158 162.432 
z
" style="fill:#9cd797;"/>
   </g>
   <g id="PathCollection_5">
    <path clip-path="url(#p46845d5eba)" d="M 165.818182 162.432 
L 166.356836 162.432 
L 174.186563 145.152 
L 183.854545 131.998678 
L 187.177608 127.872 
L 201.701708 110.592 
L 201.890909 110.007436 
L 218.109691 93.312 
L 201.890909 81.781555 
L 191.466629 76.032 
L 183.854545 69.92674 
L 170.085913 58.752 
L 165.818182 52.236819 
L 163.220664 41.472 
L 147.781818 41.472 
L 145.894763 41.472 
L 147.781818 47.274925 
L 151.779053 58.752 
L 158.865441 76.032 
L 165.818182 82.023413 
L 183.854545 92.196231 
L 185.522518 93.312 
L 189.083334 110.592 
L 183.854545 117.536944 
L 177.912028 127.872 
L 166.274125 145.152 
L 165.818182 146.157865 
L 158.542716 162.432 
z
" style="fill:#73c476;"/>
   </g>
   <g id="PathCollection_6">
    <path clip-path="url(#p46845d5eba)" d="M 75.636364 148.62423 
L 84.82236 145.152 
L 83.316065 127.872 
L 75.636364 123.544211 
L 61.982042 127.872 
L 65.057681 145.152 
z
" style="fill:#46ae60;"/>
    <path clip-path="url(#p46845d5eba)" d="M 165.818182 146.157865 
L 166.274125 145.152 
L 177.912028 127.872 
L 183.854545 117.536944 
L 189.083334 110.592 
L 185.522518 93.312 
L 183.854545 92.196231 
L 165.818182 82.023413 
L 158.865441 76.032 
L 151.779053 58.752 
L 147.781818 47.274925 
L 145.894763 41.472 
L 131.514195 41.472 
L 138.077 58.752 
L 142.766276 76.032 
L 147.781818 83.946324 
L 159.009741 93.312 
L 165.818182 98.841026 
L 174.926878 110.592 
L 168.275319 127.872 
L 165.818182 131.551783 
L 155.133472 145.152 
L 150.738994 162.432 
L 158.542716 162.432 
z
" style="fill:#46ae60;"/>
    <path clip-path="url(#p46845d5eba)" d="M 57.947146 41.472 
L 57.6 41.472 
L 57.6 47.725443 
z
" style="fill:#46ae60;"/>
   </g>
   <g id="PathCollection_7">
    <path clip-path="url(#p46845d5eba)" d="M 75.636364 162.432 
L 93.672727 162.432 
L 104.545185 162.432 
L 111.709091 154.843595 
L 122.310908 145.152 
L 111.709091 134.273509 
L 108.607736 127.872 
L 93.672727 117.713046 
L 81.347082 110.592 
L 75.636364 107.192763 
L 57.6 110.155604 
L 57.6 110.592 
L 57.6 127.872 
L 57.6 145.152 
L 57.6 162.432 
z
M 65.057681 145.152 
L 61.982042 127.872 
L 75.636364 123.544211 
L 83.316065 127.872 
L 84.82236 145.152 
L 75.636364 148.62423 
z
" style="fill:#2a924a;"/>
    <path clip-path="url(#p46845d5eba)" d="M 147.781818 162.432 
L 150.738994 162.432 
L 155.133472 145.152 
L 165.818182 131.551783 
L 168.275319 127.872 
L 174.926878 110.592 
L 165.818182 98.841026 
L 159.009741 93.312 
L 147.781818 83.946324 
L 142.766276 76.032 
L 138.077 58.752 
L 131.514195 41.472 
L 129.745455 41.472 
L 111.709091 41.472 
L 104.925286 41.472 
L 111.709091 46.060798 
L 121.773751 58.752 
L 129.745455 75.257994 
L 129.964159 76.032 
L 138.607167 93.312 
L 147.781818 104.631878 
L 155.218801 110.592 
L 152.227879 127.872 
L 147.781818 134.946621 
L 135.36833 145.152 
L 137.118234 162.432 
z
" style="fill:#2a924a;"/>
    <path clip-path="url(#p46845d5eba)" d="M 57.988372 76.032 
L 73.468843 58.752 
L 73.711827 41.472 
L 57.947146 41.472 
L 57.6 47.725443 
L 57.6 58.752 
L 57.6 76.032 
L 57.6 76.592115 
z
" style="fill:#2a924a;"/>
   </g>
   <g id="PathCollection_8">
    <path clip-path="url(#p46845d5eba)" d="M 111.709091 162.432 
L 129.745455 162.432 
L 137.118234 162.432 
L 135.36833 145.152 
L 147.781818 134.946621 
L 152.227879 127.872 
L 155.218801 110.592 
L 147.781818 104.631878 
L 138.607167 93.312 
L 129.964159 76.032 
L 129.745455 75.257994 
L 121.773751 58.752 
L 111.709091 46.060798 
L 104.925286 41.472 
L 93.672727 41.472 
L 75.636364 41.472 
L 73.711827 41.472 
L 73.468843 58.752 
L 57.988372 76.032 
L 57.6 76.592115 
L 57.6 93.312 
L 57.6 110.155604 
L 75.636364 107.192763 
L 81.347082 110.592 
L 93.672727 117.713046 
L 108.607736 127.872 
L 111.709091 134.273509 
L 122.310908 145.152 
L 111.709091 154.843595 
L 104.545185 162.432 
z
M 80.013873 93.312 
L 80.906717 76.032 
L 93.672727 66.544857 
L 111.709091 71.539641 
L 114.627155 76.032 
L 120.511264 93.312 
L 111.709091 109.814998 
L 93.672727 101.163634 
z
" style="fill:#0b7734;"/>
   </g>
   <g id="PathCollection_9">
    <path clip-path="url(#p46845d5eba)" d="M 93.672727 101.163634 
L 111.709091 109.814998 
L 120.511264 93.312 
L 114.627155 76.032 
L 111.709091 71.539641 
L 93.672727 66.544857 
L 80.906717 76.032 
L 80.013873 93.312 
z
" style="fill:#005622;"/>
   </g>
   <g id="matplotlib.axis_1">
    <g id="xtick_1">
     <g id="line2d_1">
      <defs>
       <path d="M 0 0 
L 0 3.5 
" id="meee2cf6b70" style="stroke:#000000;stroke-width:0.8;"/>
      </defs>
      <g>
       <use style="stroke:#000000;stroke-width:0.8;" x="57.6" xlink:href="#meee2cf6b70" y="162.432"/>
      </g>
     </g>
     <g id="text_1">
      <!-- 0 -->
      <defs>
       <path d="M 31.78125 66.40625 
Q 24.171875 66.40625 20.328125 58.90625 
Q 16.5 51.421875 16.5 36.375 
Q 16.5 21.390625 20.328125 13.890625 
Q 24.171875 6.390625 31.78125 6.390625 
Q 39.453125 6.390625 43.28125 13.890625 
Q 47.125 21.390625 47.125 36.375 
Q 47.125 51.421875 43.28125 58.90625 
Q 39.453125 66.40625 31.78125 66.40625 
z
M 31.78125 74.21875 
Q 44.046875 74.21875 50.515625 64.515625 
Q 56.984375 54.828125 56.984375 36.375 
Q 56.984375 17.96875 50.515625 8.265625 
Q 44.046875 -1.421875 31.78125 -1.421875 
Q 19.53125 -1.421875 13.0625 8.265625 
Q 6.59375 17.96875 6.59375 36.375 
Q 6.59375 54.828125 13.0625 64.515625 
Q 19.53125 74.21875 31.78125 74.21875 
z
" id="DejaVuSans-30"/>
      </defs>
      <g transform="translate(54.41875 177.030437)scale(0.1 -0.1)">
       <use xlink:href="#DejaVuSans-30"/>
      </g>
     </g>
    </g>
    <g id="xtick_2">
     <g id="line2d_2">
      <g>
       <use style="stroke:#000000;stroke-width:0.8;" x="90.065455" xlink:href="#meee2cf6b70" y="162.432"/>
      </g>
     </g>
     <g id="text_2">
      <!-- 2 -->
      <defs>
       <path d="M 19.1875 8.296875 
L 53.609375 8.296875 
L 53.609375 0 
L 7.328125 0 
L 7.328125 8.296875 
Q 12.9375 14.109375 22.625 23.890625 
Q 32.328125 33.6875 34.8125 36.53125 
Q 39.546875 41.84375 41.421875 45.53125 
Q 43.3125 49.21875 43.3125 52.78125 
Q 43.3125 58.59375 39.234375 62.25 
Q 35.15625 65.921875 28.609375 65.921875 
Q 23.96875 65.921875 18.8125 64.3125 
Q 13.671875 62.703125 7.8125 59.421875 
L 7.8125 69.390625 
Q 13.765625 71.78125 18.9375 73 
Q 24.125 74.21875 28.421875 74.21875 
Q 39.75 74.21875 46.484375 68.546875 
Q 53.21875 62.890625 53.21875 53.421875 
Q 53.21875 48.921875 51.53125 44.890625 
Q 49.859375 40.875 45.40625 35.40625 
Q 44.1875 33.984375 37.640625 27.21875 
Q 31.109375 20.453125 19.1875 8.296875 
z
" id="DejaVuSans-32"/>
      </defs>
      <g transform="translate(86.884205 177.030437)scale(0.1 -0.1)">
       <use xlink:href="#DejaVuSans-32"/>
      </g>
     </g>
    </g>
    <g id="xtick_3">
     <g id="line2d_3">
      <g>
       <use style="stroke:#000000;stroke-width:0.8;" x="122.530909" xlink:href="#meee2cf6b70" y="162.432"/>
      </g>
     </g>
     <g id="text_3">
      <!-- 4 -->
      <defs>
       <path d="M 37.796875 64.3125 
L 12.890625 25.390625 
L 37.796875 25.390625 
z
M 35.203125 72.90625 
L 47.609375 72.90625 
L 47.609375 25.390625 
L 58.015625 25.390625 
L 58.015625 17.1875 
L 47.609375 17.1875 
L 47.609375 0 
L 37.796875 0 
L 37.796875 17.1875 
L 4.890625 17.1875 
L 4.890625 26.703125 
z
" id="DejaVuSans-34"/>
      </defs>
      <g transform="translate(119.349659 177.030437)scale(0.1 -0.1)">
       <use xlink:href="#DejaVuSans-34"/>
      </g>
     </g>
    </g>
    <g id="xtick_4">
     <g id="line2d_4">
      <g>
       <use style="stroke:#000000;stroke-width:0.8;" x="154.996364" xlink:href="#meee2cf6b70" y="162.432"/>
      </g>
     </g>
     <g id="text_4">
      <!-- 6 -->
      <defs>
       <path d="M 33.015625 40.375 
Q 26.375 40.375 22.484375 35.828125 
Q 18.609375 31.296875 18.609375 23.390625 
Q 18.609375 15.53125 22.484375 10.953125 
Q 26.375 6.390625 33.015625 6.390625 
Q 39.65625 6.390625 43.53125 10.953125 
Q 47.40625 15.53125 47.40625 23.390625 
Q 47.40625 31.296875 43.53125 35.828125 
Q 39.65625 40.375 33.015625 40.375 
z
M 52.59375 71.296875 
L 52.59375 62.3125 
Q 48.875 64.0625 45.09375 64.984375 
Q 41.3125 65.921875 37.59375 65.921875 
Q 27.828125 65.921875 22.671875 59.328125 
Q 17.53125 52.734375 16.796875 39.40625 
Q 19.671875 43.65625 24.015625 45.921875 
Q 28.375 48.1875 33.59375 48.1875 
Q 44.578125 48.1875 50.953125 41.515625 
Q 57.328125 34.859375 57.328125 23.390625 
Q 57.328125 12.15625 50.6875 5.359375 
Q 44.046875 -1.421875 33.015625 -1.421875 
Q 20.359375 -1.421875 13.671875 8.265625 
Q 6.984375 17.96875 6.984375 36.375 
Q 6.984375 53.65625 15.1875 63.9375 
Q 23.390625 74.21875 37.203125 74.21875 
Q 40.921875 74.21875 44.703125 73.484375 
Q 48.484375 72.75 52.59375 71.296875 
z
" id="DejaVuSans-36"/>
      </defs>
      <g transform="translate(151.815114 177.030437)scale(0.1 -0.1)">
       <use xlink:href="#DejaVuSans-36"/>
      </g>
     </g>
    </g>
    <g id="xtick_5">
     <g id="line2d_5">
      <g>
       <use style="stroke:#000000;stroke-width:0.8;" x="187.461818" xlink:href="#meee2cf6b70" y="162.432"/>
      </g>
     </g>
     <g id="text_5">
      <!-- 8 -->
      <defs>
       <path d="M 31.78125 34.625 
Q 24.75 34.625 20.71875 30.859375 
Q 16.703125 27.09375 16.703125 20.515625 
Q 16.703125 13.921875 20.71875 10.15625 
Q 24.75 6.390625 31.78125 6.390625 
Q 38.8125 6.390625 42.859375 10.171875 
Q 46.921875 13.96875 46.921875 20.515625 
Q 46.921875 27.09375 42.890625 30.859375 
Q 38.875 34.625 31.78125 34.625 
z
M 21.921875 38.8125 
Q 15.578125 40.375 12.03125 44.71875 
Q 8.5 49.078125 8.5 55.328125 
Q 8.5 64.0625 14.71875 69.140625 
Q 20.953125 74.21875 31.78125 74.21875 
Q 42.671875 74.21875 48.875 69.140625 
Q 55.078125 64.0625 55.078125 55.328125 
Q 55.078125 49.078125 51.53125 44.71875 
Q 48 40.375 41.703125 38.8125 
Q 48.828125 37.15625 52.796875 32.3125 
Q 56.78125 27.484375 56.78125 20.515625 
Q 56.78125 9.90625 50.3125 4.234375 
Q 43.84375 -1.421875 31.78125 -1.421875 
Q 19.734375 -1.421875 13.25 4.234375 
Q 6.78125 9.90625 6.78125 20.515625 
Q 6.78125 27.484375 10.78125 32.3125 
Q 14.796875 37.15625 21.921875 38.8125 
z
M 18.3125 54.390625 
Q 18.3125 48.734375 21.84375 45.5625 
Q 25.390625 42.390625 31.78125 42.390625 
Q 38.140625 42.390625 41.71875 45.5625 
Q 45.3125 48.734375 45.3125 54.390625 
Q 45.3125 60.0625 41.71875 63.234375 
Q 38.140625 66.40625 31.78125 66.40625 
Q 25.390625 66.40625 21.84375 63.234375 
Q 18.3125 60.0625 18.3125 54.390625 
z
" id="DejaVuSans-38"/>
      </defs>
      <g transform="translate(184.280568 177.030437)scale(0.1 -0.1)">
       <use xlink:href="#DejaVuSans-38"/>
      </g>
     </g>
    </g>
    <g id="xtick_6">
     <g id="line2d_6">
      <g>
       <use style="stroke:#000000;stroke-width:0.8;" x="219.927273" xlink:href="#meee2cf6b70" y="162.432"/>
      </g>
     </g>
     <g id="text_6">
      <!-- 10 -->
      <defs>
       <path d="M 12.40625 8.296875 
L 28.515625 8.296875 
L 28.515625 63.921875 
L 10.984375 60.40625 
L 10.984375 69.390625 
L 28.421875 72.90625 
L 38.28125 72.90625 
L 38.28125 8.296875 
L 54.390625 8.296875 
L 54.390625 0 
L 12.40625 0 
z
" id="DejaVuSans-31"/>
      </defs>
      <g transform="translate(213.564773 177.030437)scale(0.1 -0.1)">
       <use xlink:href="#DejaVuSans-31"/>
       <use x="63.623047" xlink:href="#DejaVuSans-30"/>
      </g>
     </g>
    </g>
   </g>
   <g id="matplotlib.axis_2">
    <g id="ytick_1">
     <g id="line2d_7">
      <defs>
       <path d="M 0 0 
L -3.5 0 
" id="mc813311d67" style="stroke:#000000;stroke-width:0.8;"/>
      </defs>
      <g>
       <use style="stroke:#000000;stroke-width:0.8;" x="57.6" xlink:href="#mc813311d67" y="162.432"/>
      </g>
     </g>
     <g id="text_7">
      <!-- 0 -->
      <g transform="translate(44.2375 166.231219)scale(0.1 -0.1)">
       <use xlink:href="#DejaVuSans-30"/>
      </g>
     </g>
    </g>
    <g id="ytick_2">
     <g id="line2d_8">
      <g>
       <use style="stroke:#000000;stroke-width:0.8;" x="57.6" xlink:href="#mc813311d67" y="132.192"/>
      </g>
     </g>
     <g id="text_8">
      <!-- 2 -->
      <g transform="translate(44.2375 135.991219)scale(0.1 -0.1)">
       <use xlink:href="#DejaVuSans-32"/>
      </g>
     </g>
    </g>
    <g id="ytick_3">
     <g id="line2d_9">
      <g>
       <use style="stroke:#000000;stroke-width:0.8;" x="57.6" xlink:href="#mc813311d67" y="101.952"/>
      </g>
     </g>
     <g id="text_9">
      <!-- 4 -->
      <g transform="translate(44.2375 105.751219)scale(0.1 -0.1)">
       <use xlink:href="#DejaVuSans-34"/>
      </g>
     </g>
    </g>
    <g id="ytick_4">
     <g id="line2d_10">
      <g>
       <use style="stroke:#000000;stroke-width:0.8;" x="57.6" xlink:href="#mc813311d67" y="71.712"/>
      </g>
     </g>
     <g id="text_10">
      <!-- 6 -->
      <g transform="translate(44.2375 75.511219)scale(0.1 -0.1)">
       <use xlink:href="#DejaVuSans-36"/>
      </g>
     </g>
    </g>
    <g id="ytick_5">
     <g id="line2d_11">
      <g>
       <use style="stroke:#000000;stroke-width:0.8;" x="57.6" xlink:href="#mc813311d67" y="41.472"/>
      </g>
     </g>
     <g id="text_11">
      <!-- 8 -->
      <g transform="translate(44.2375 45.271219)scale(0.1 -0.1)">
       <use xlink:href="#DejaVuSans-38"/>
      </g>
     </g>
    </g>
   </g>
   <g id="patch_3">
    <path d="M 57.6 162.432 
L 57.6 41.472 
" style="fill:none;stroke:#000000;stroke-linecap:square;stroke-linejoin:miter;stroke-width:0.8;"/>
   </g>
   <g id="patch_4">
    <path d="M 219.927273 162.432 
L 219.927273 41.472 
" style="fill:none;stroke:#000000;stroke-linecap:square;stroke-linejoin:miter;stroke-width:0.8;"/>
   </g>
   <g id="patch_5">
    <path d="M 57.6 162.432 
L 219.927273 162.432 
" style="fill:none;stroke:#000000;stroke-linecap:square;stroke-linejoin:miter;stroke-width:0.8;"/>
   </g>
   <g id="patch_6">
    <path d="M 57.6 41.472 
L 219.927273 41.472 
" style="fill:none;stroke:#000000;stroke-linecap:square;stroke-linejoin:miter;stroke-width:0.8;"/>
   </g>
  </g>
  <g id="axes_2">
   <g id="patch_7">
    <path d="M 252.392727 162.432 
L 414.72 162.432 
L 414.72 41.472 
L 252.392727 41.472 
z
" style="fill:#ffffff;"/>
   </g>
   <g id="PathCollection_10">
    <path clip-path="url(#p4d32d36173)" d="M 270.429091 162.432 
L 288.465455 162.432 
L 306.501818 162.432 
L 324.538182 162.432 
L 342.574545 162.432 
L 354.695942 162.432 
L 360.11532 145.152 
L 352.571112 127.872 
L 347.395389 110.592 
L 343.346807 93.312 
L 342.574545 91.693522 
L 340.915218 93.312 
L 338.686075 110.592 
L 337.490785 127.872 
L 324.538182 140.287482 
L 319.654355 145.152 
L 306.501818 152.761043 
L 288.465455 158.152225 
L 270.429091 160.256024 
L 252.392727 157.265612 
L 252.392727 162.432 
z
" style="fill:#ebf7e7;"/>
    <path clip-path="url(#p4d32d36173)" d="M 324.538182 62.397307 
L 327.889662 58.752 
L 342.574545 47.651465 
L 348.187066 41.472 
L 342.574545 41.472 
L 324.538182 41.472 
L 306.501818 41.472 
L 290.954378 41.472 
L 306.501818 54.241357 
L 320.960467 58.752 
z
" style="fill:#ebf7e7;"/>
   </g>
   <g id="PathCollection_11">
    <path clip-path="url(#p4d32d36173)" d="M 270.429091 160.256024 
L 288.465455 158.152225 
L 306.501818 152.761043 
L 319.654355 145.152 
L 324.538182 140.287482 
L 337.490785 127.872 
L 338.686075 110.592 
L 340.915218 93.312 
L 342.574545 91.693522 
L 343.346807 93.312 
L 347.395389 110.592 
L 352.571112 127.872 
L 360.11532 145.152 
L 354.695942 162.432 
L 360.610909 162.432 
L 378.647273 162.432 
L 381.142485 162.432 
L 382.505774 145.152 
L 378.647273 129.119146 
L 378.301426 127.872 
L 370.269441 110.592 
L 364.290608 93.312 
L 360.610909 79.605245 
L 359.084494 76.032 
L 360.610909 69.369218 
L 363.329273 58.752 
L 376.031598 41.472 
L 360.610909 41.472 
L 348.187066 41.472 
L 342.574545 47.651465 
L 327.889662 58.752 
L 324.538182 62.397307 
L 320.960467 58.752 
L 306.501818 54.241357 
L 290.954378 41.472 
L 288.465455 41.472 
L 273.276398 41.472 
L 288.465455 52.650724 
L 295.775148 58.752 
L 306.501818 71.258906 
L 311.364691 76.032 
L 316.482786 93.312 
L 319.885225 110.592 
L 318.139607 127.872 
L 306.501818 139.231847 
L 295.979898 145.152 
L 288.465455 148.50867 
L 270.429091 151.238917 
L 252.392727 147.26651 
L 252.392727 157.265612 
z
" style="fill:#c7e9c0;"/>
   </g>
   <g id="PathCollection_12">
    <path clip-path="url(#p4d32d36173)" d="M 270.429091 151.238917 
L 288.465455 148.50867 
L 295.979898 145.152 
L 306.501818 139.231847 
L 318.139607 127.872 
L 319.885225 110.592 
L 316.482786 93.312 
L 311.364691 76.032 
L 306.501818 71.258906 
L 295.775148 58.752 
L 288.465455 52.650724 
L 273.276398 41.472 
L 270.429091 41.472 
L 252.392727 41.472 
L 252.392727 56.488974 
L 270.429091 54.669999 
L 276.346511 58.752 
L 288.465455 66.282138 
L 297.170893 76.032 
L 304.566056 93.312 
L 306.501818 100.226501 
L 309.320887 110.592 
L 306.501818 124.496124 
L 305.655813 127.872 
L 288.465455 139.428987 
L 270.429091 142.573373 
L 252.392727 138.597255 
L 252.392727 145.152 
L 252.392727 147.26651 
z
" style="fill:#92d28f;"/>
    <path clip-path="url(#p4d32d36173)" d="M 396.683636 162.432 
L 400.049901 162.432 
L 402.203229 145.152 
L 402.584069 127.872 
L 396.683636 119.781139 
L 391.613835 110.592 
L 380.671383 93.312 
L 378.912097 76.032 
L 388.657857 58.752 
L 393.399431 41.472 
L 378.647273 41.472 
L 376.031598 41.472 
L 363.329273 58.752 
L 360.610909 69.369218 
L 359.084494 76.032 
L 360.610909 79.605245 
L 364.290608 93.312 
L 370.269441 110.592 
L 378.301426 127.872 
L 378.647273 129.119146 
L 382.505774 145.152 
L 381.142485 162.432 
z
" style="fill:#92d28f;"/>
   </g>
   <g id="PathCollection_13">
    <path clip-path="url(#p4d32d36173)" d="M 414.72 162.432 
L 414.72 145.152 
L 414.72 127.872 
L 414.72 110.592 
L 414.72 93.312 
L 414.72 76.032 
L 414.72 58.752 
L 414.72 44.997057 
L 413.171254 41.472 
L 396.683636 41.472 
L 393.399431 41.472 
L 388.657857 58.752 
L 378.912097 76.032 
L 380.671383 93.312 
L 391.613835 110.592 
L 396.683636 119.781139 
L 402.584069 127.872 
L 402.203229 145.152 
L 400.049901 162.432 
z
" style="fill:#52b365;"/>
    <path clip-path="url(#p4d32d36173)" d="M 270.429091 142.573373 
L 288.465455 139.428987 
L 305.655813 127.872 
L 306.501818 124.496124 
L 309.320887 110.592 
L 306.501818 100.226501 
L 304.566056 93.312 
L 297.170893 76.032 
L 288.465455 66.282138 
L 276.346511 58.752 
L 270.429091 54.669999 
L 252.392727 56.488974 
L 252.392727 58.752 
L 252.392727 76.032 
L 252.392727 77.202628 
L 254.39351 76.032 
L 270.429091 70.179417 
L 280.327057 76.032 
L 288.465455 82.832144 
L 293.69134 93.312 
L 298.549817 110.592 
L 292.59811 127.872 
L 288.465455 130.650363 
L 270.429091 134.638136 
L 252.392727 130.284641 
L 252.392727 138.597255 
z
" style="fill:#52b365;"/>
   </g>
   <g id="PathCollection_14">
    <path clip-path="url(#p4d32d36173)" d="M 270.429091 134.638136 
L 288.465455 130.650363 
L 292.59811 127.872 
L 298.549817 110.592 
L 293.69134 93.312 
L 288.465455 82.832144 
L 280.327057 76.032 
L 270.429091 70.179417 
L 254.39351 76.032 
L 252.392727 77.202628 
L 252.392727 93.312 
L 252.392727 109.051344 
L 264.068858 93.312 
L 270.429091 89.262128 
L 275.259888 93.312 
L 286.603518 110.592 
L 270.429091 124.511481 
L 252.392727 111.38518 
L 252.392727 127.872 
L 252.392727 130.284641 
z
" style="fill:#228a44;"/>
    <path clip-path="url(#p4d32d36173)" d="M 414.72 44.997057 
L 414.72 41.472 
L 413.171254 41.472 
z
" style="fill:#228a44;"/>
   </g>
   <g id="PathCollection_15">
    <path clip-path="url(#p4d32d36173)" d="M 270.429091 124.511481 
L 286.603518 110.592 
L 275.259888 93.312 
L 270.429091 89.262128 
L 264.068858 93.312 
L 252.392727 109.051344 
L 252.392727 110.592 
L 252.392727 111.38518 
z
" style="fill:#005f26;"/>
   </g>
   <g id="matplotlib.axis_3">
    <g id="xtick_7">
     <g id="line2d_12">
      <g>
       <use style="stroke:#000000;stroke-width:0.8;" x="252.392727" xlink:href="#meee2cf6b70" y="162.432"/>
      </g>
     </g>
     <g id="text_12">
      <!-- 0 -->
      <g transform="translate(249.211477 177.030437)scale(0.1 -0.1)">
       <use xlink:href="#DejaVuSans-30"/>
      </g>
     </g>
    </g>
    <g id="xtick_8">
     <g id="line2d_13">
      <g>
       <use style="stroke:#000000;stroke-width:0.8;" x="284.858182" xlink:href="#meee2cf6b70" y="162.432"/>
      </g>
     </g>
     <g id="text_13">
      <!-- 2 -->
      <g transform="translate(281.676932 177.030437)scale(0.1 -0.1)">
       <use xlink:href="#DejaVuSans-32"/>
      </g>
     </g>
    </g>
    <g id="xtick_9">
     <g id="line2d_14">
      <g>
       <use style="stroke:#000000;stroke-width:0.8;" x="317.323636" xlink:href="#meee2cf6b70" y="162.432"/>
      </g>
     </g>
     <g id="text_14">
      <!-- 4 -->
      <g transform="translate(314.142386 177.030437)scale(0.1 -0.1)">
       <use xlink:href="#DejaVuSans-34"/>
      </g>
     </g>
    </g>
    <g id="xtick_10">
     <g id="line2d_15">
      <g>
       <use style="stroke:#000000;stroke-width:0.8;" x="349.789091" xlink:href="#meee2cf6b70" y="162.432"/>
      </g>
     </g>
     <g id="text_15">
      <!-- 6 -->
      <g transform="translate(346.607841 177.030437)scale(0.1 -0.1)">
       <use xlink:href="#DejaVuSans-36"/>
      </g>
     </g>
    </g>
    <g id="xtick_11">
     <g id="line2d_16">
      <g>
       <use style="stroke:#000000;stroke-width:0.8;" x="382.254545" xlink:href="#meee2cf6b70" y="162.432"/>
      </g>
     </g>
     <g id="text_16">
      <!-- 8 -->
      <g transform="translate(379.073295 177.030437)scale(0.1 -0.1)">
       <use xlink:href="#DejaVuSans-38"/>
      </g>
     </g>
    </g>
    <g id="xtick_12">
     <g id="line2d_17">
      <g>
       <use style="stroke:#000000;stroke-width:0.8;" x="414.72" xlink:href="#meee2cf6b70" y="162.432"/>
      </g>
     </g>
     <g id="text_17">
      <!-- 10 -->
      <g transform="translate(408.3575 177.030437)scale(0.1 -0.1)">
       <use xlink:href="#DejaVuSans-31"/>
       <use x="63.623047" xlink:href="#DejaVuSans-30"/>
      </g>
     </g>
    </g>
   </g>
   <g id="matplotlib.axis_4">
    <g id="ytick_6">
     <g id="line2d_18">
      <g>
       <use style="stroke:#000000;stroke-width:0.8;" x="252.392727" xlink:href="#mc813311d67" y="162.432"/>
      </g>
     </g>
     <g id="text_18">
      <!-- 0 -->
      <g transform="translate(239.030227 166.231219)scale(0.1 -0.1)">
       <use xlink:href="#DejaVuSans-30"/>
      </g>
     </g>
    </g>
    <g id="ytick_7">
     <g id="line2d_19">
      <g>
       <use style="stroke:#000000;stroke-width:0.8;" x="252.392727" xlink:href="#mc813311d67" y="132.192"/>
      </g>
     </g>
     <g id="text_19">
      <!-- 2 -->
      <g transform="translate(239.030227 135.991219)scale(0.1 -0.1)">
       <use xlink:href="#DejaVuSans-32"/>
      </g>
     </g>
    </g>
    <g id="ytick_8">
     <g id="line2d_20">
      <g>
       <use style="stroke:#000000;stroke-width:0.8;" x="252.392727" xlink:href="#mc813311d67" y="101.952"/>
      </g>
     </g>
     <g id="text_20">
      <!-- 4 -->
      <g transform="translate(239.030227 105.751219)scale(0.1 -0.1)">
       <use xlink:href="#DejaVuSans-34"/>
      </g>
     </g>
    </g>
    <g id="ytick_9">
     <g id="line2d_21">
      <g>
       <use style="stroke:#000000;stroke-width:0.8;" x="252.392727" xlink:href="#mc813311d67" y="71.712"/>
      </g>
     </g>
     <g id="text_21">
      <!-- 6 -->
      <g transform="translate(239.030227 75.511219)scale(0.1 -0.1)">
       <use xlink:href="#DejaVuSans-36"/>
      </g>
     </g>
    </g>
    <g id="ytick_10">
     <g id="line2d_22">
      <g>
       <use style="stroke:#000000;stroke-width:0.8;" x="252.392727" xlink:href="#mc813311d67" y="41.472"/>
      </g>
     </g>
     <g id="text_22">
      <!-- 8 -->
      <g transform="translate(239.030227 45.271219)scale(0.1 -0.1)">
       <use xlink:href="#DejaVuSans-38"/>
      </g>
     </g>
    </g>
   </g>
   <g id="patch_8">
    <path d="M 252.392727 162.432 
L 252.392727 41.472 
" style="fill:none;stroke:#000000;stroke-linecap:square;stroke-linejoin:miter;stroke-width:0.8;"/>
   </g>
   <g id="patch_9">
    <path d="M 414.72 162.432 
L 414.72 41.472 
" style="fill:none;stroke:#000000;stroke-linecap:square;stroke-linejoin:miter;stroke-width:0.8;"/>
   </g>
   <g id="patch_10">
    <path d="M 252.392727 162.432 
L 414.72 162.432 
" style="fill:none;stroke:#000000;stroke-linecap:square;stroke-linejoin:miter;stroke-width:0.8;"/>
   </g>
   <g id="patch_11">
    <path d="M 252.392727 41.472 
L 414.72 41.472 
" style="fill:none;stroke:#000000;stroke-linecap:square;stroke-linejoin:miter;stroke-width:0.8;"/>
   </g>
  </g>
  <g id="axes_3">
   <g id="patch_12">
    <path d="M 57.6 307.584 
L 219.927273 307.584 
L 219.927273 186.624 
L 57.6 186.624 
z
" style="fill:#ffffff;"/>
   </g>
   <g id="PathCollection_16">
    <path clip-path="url(#pd5f63c7b9c)" d="M 75.636364 242.064281 
L 79.568631 238.464 
L 75.636364 231.61255 
L 57.6 234.366356 
L 57.6 238.464 
L 57.6 242.803371 
z
" style="fill:#eff9ec;"/>
   </g>
   <g id="PathCollection_17">
    <path clip-path="url(#pd5f63c7b9c)" d="M 219.927273 281.026862 
L 219.927273 273.024 
L 219.927273 255.744 
L 219.927273 250.542331 
L 201.890909 251.016069 
L 197.229204 255.744 
L 201.890909 271.069707 
L 202.728635 273.024 
z
" style="fill:#dbf1d6;"/>
    <path clip-path="url(#pd5f63c7b9c)" d="M 75.636364 250.537789 
L 88.823493 238.464 
L 79.593423 221.184 
L 75.636364 218.464363 
L 61.955052 221.184 
L 57.6 222.516593 
L 57.6 234.366356 
L 75.636364 231.61255 
L 79.568631 238.464 
L 75.636364 242.064281 
L 57.6 242.803371 
L 57.6 255.352168 
z
" style="fill:#dbf1d6;"/>
   </g>
   <g id="PathCollection_18">
    <path clip-path="url(#pd5f63c7b9c)" d="M 219.927273 291.103457 
L 219.927273 290.304 
L 219.927273 281.026862 
L 202.728635 273.024 
L 201.890909 271.069707 
L 197.229204 255.744 
L 201.890909 251.016069 
L 219.927273 250.542331 
L 219.927273 240.663441 
L 210.136876 238.464 
L 201.890909 233.710816 
L 197.737915 238.464 
L 183.854545 252.929371 
L 182.608931 255.744 
L 183.854545 264.921431 
L 185.672068 273.024 
L 201.890909 282.606704 
L 218.403138 290.304 
z
" style="fill:#bee5b8;"/>
    <path clip-path="url(#pd5f63c7b9c)" d="M 75.636364 257.585398 
L 80.423247 255.744 
L 93.672727 243.79406 
L 97.269136 238.464 
L 93.672727 227.242142 
L 90.794251 221.184 
L 75.636364 210.766173 
L 57.6 213.66061 
L 57.6 221.184 
L 57.6 222.516593 
L 61.955052 221.184 
L 75.636364 218.464363 
L 79.593423 221.184 
L 88.823493 238.464 
L 75.636364 250.537789 
L 57.6 255.352168 
L 57.6 255.744 
L 57.6 260.945785 
z
" style="fill:#bee5b8;"/>
    <path clip-path="url(#pd5f63c7b9c)" d="M 201.890909 205.28779 
L 203.189252 203.904 
L 214.07083 186.624 
L 201.890909 186.624 
L 183.854545 186.624 
L 169.557962 186.624 
L 183.854545 201.953228 
L 194.065813 203.904 
z
" style="fill:#bee5b8;"/>
   </g>
   <g id="PathCollection_19">
    <path clip-path="url(#pd5f63c7b9c)" d="M 147.781818 302.986661 
L 155.893062 290.304 
L 147.781818 282.733612 
L 139.258584 290.304 
z
" style="fill:#9cd797;"/>
    <path clip-path="url(#pd5f63c7b9c)" d="M 201.890909 294.03614 
L 219.927273 302.324026 
L 219.927273 291.103457 
L 218.403138 290.304 
L 201.890909 282.606704 
L 185.672068 273.024 
L 183.854545 264.921431 
L 182.608931 255.744 
L 183.854545 252.929371 
L 197.737915 238.464 
L 201.890909 233.710816 
L 210.136876 238.464 
L 219.927273 240.663441 
L 219.927273 238.464 
L 219.927273 222.8532 
L 217.381633 221.184 
L 219.927273 218.466302 
L 219.927273 203.904 
L 219.927273 186.624 
L 214.07083 186.624 
L 203.189252 203.904 
L 201.890909 205.28779 
L 194.065813 203.904 
L 183.854545 201.953228 
L 169.557962 186.624 
L 165.818182 186.624 
L 147.781818 186.624 
L 145.388917 186.624 
L 147.781818 189.150762 
L 161.766692 203.904 
L 165.818182 206.606525 
L 181.731473 221.184 
L 180.140642 238.464 
L 172.396882 255.744 
L 165.818182 272.36052 
L 164.276104 273.024 
L 165.818182 274.566237 
L 183.854545 285.405133 
L 194.811874 290.304 
z
" style="fill:#9cd797;"/>
    <path clip-path="url(#pd5f63c7b9c)" d="M 75.636364 262.360937 
L 92.837692 255.744 
L 93.672727 254.990867 
L 104.824077 238.464 
L 100.671699 221.184 
L 93.672727 214.314091 
L 77.223028 203.904 
L 75.636364 199.62214 
L 68.091083 203.904 
L 57.6 205.183958 
L 57.6 213.66061 
L 75.636364 210.766173 
L 90.794251 221.184 
L 93.672727 227.242142 
L 97.269136 238.464 
L 93.672727 243.79406 
L 80.423247 255.744 
L 75.636364 257.585398 
L 57.6 260.945785 
L 57.6 266.315228 
z
" style="fill:#9cd797;"/>
   </g>
   <g id="PathCollection_20">
    <path clip-path="url(#pd5f63c7b9c)" d="M 129.745455 307.584 
L 147.781818 307.584 
L 165.818182 307.584 
L 177.66496 307.584 
L 183.854545 304.854377 
L 191.316314 307.584 
L 201.890909 307.584 
L 219.927273 307.584 
L 219.927273 302.324026 
L 201.890909 294.03614 
L 194.811874 290.304 
L 183.854545 285.405133 
L 165.818182 274.566237 
L 164.276104 273.024 
L 165.818182 272.36052 
L 172.396882 255.744 
L 180.140642 238.464 
L 181.731473 221.184 
L 165.818182 206.606525 
L 161.766692 203.904 
L 147.781818 189.150762 
L 145.388917 186.624 
L 129.745455 186.624 
L 122.444567 186.624 
L 129.745455 191.429259 
L 141.677172 203.904 
L 147.781818 208.657553 
L 165.818182 220.452068 
L 166.617185 221.184 
L 170.187208 238.464 
L 165.818182 248.008034 
L 159.800539 255.744 
L 147.781818 264.298135 
L 129.745455 268.25727 
L 124.146701 273.024 
L 122.30352 290.304 
L 123.363046 307.584 
z
M 139.258584 290.304 
L 147.781818 282.733612 
L 155.893062 290.304 
L 147.781818 302.986661 
z
" style="fill:#73c476;"/>
    <path clip-path="url(#pd5f63c7b9c)" d="M 75.636364 267.136475 
L 93.672727 262.284923 
L 107.486453 255.744 
L 111.709091 242.56325 
L 112.815505 238.464 
L 111.709091 232.57977 
L 110.091425 221.184 
L 93.672727 205.068065 
L 91.833307 203.904 
L 92.554669 186.624 
L 75.636364 186.624 
L 57.6 186.624 
L 57.6 203.904 
L 57.6 205.183958 
L 68.091083 203.904 
L 75.636364 199.62214 
L 77.223028 203.904 
L 93.672727 214.314091 
L 100.671699 221.184 
L 104.824077 238.464 
L 93.672727 254.990867 
L 92.837692 255.744 
L 75.636364 262.360937 
L 57.6 266.315228 
L 57.6 271.684672 
z
" style="fill:#73c476;"/>
    <path clip-path="url(#pd5f63c7b9c)" d="M 219.927273 222.8532 
L 219.927273 221.184 
L 219.927273 218.466302 
L 217.381633 221.184 
z
" style="fill:#73c476;"/>
   </g>
   <g id="PathCollection_21">
    <path clip-path="url(#pd5f63c7b9c)" d="M 57.6 306.176267 
L 57.6 307.584 
L 58.822602 307.584 
z
" style="fill:#46ae60;"/>
    <path clip-path="url(#pd5f63c7b9c)" d="M 122.30352 290.304 
L 124.146701 273.024 
L 129.745455 268.25727 
L 147.781818 264.298135 
L 159.800539 255.744 
L 165.818182 248.008034 
L 170.187208 238.464 
L 166.617185 221.184 
L 165.818182 220.452068 
L 147.781818 208.657553 
L 141.677172 203.904 
L 129.745455 191.429259 
L 122.444567 186.624 
L 111.709091 186.624 
L 93.672727 186.624 
L 92.554669 186.624 
L 91.833307 203.904 
L 93.672727 205.068065 
L 110.091425 221.184 
L 111.709091 232.57977 
L 112.815505 238.464 
L 111.709091 242.56325 
L 107.486453 255.744 
L 93.672727 262.284923 
L 75.636364 267.136475 
L 57.6 271.684672 
L 57.6 273.024 
L 57.6 280.670825 
L 71.365758 273.024 
L 75.636364 271.912013 
L 93.672727 269.297537 
L 105.210728 273.024 
L 111.709091 286.560866 
L 112.518846 290.304 
L 112.304242 307.584 
L 123.363046 307.584 
z
M 125.292825 238.464 
L 129.745455 222.270068 
L 147.781818 224.645051 
L 156.792718 238.464 
L 147.781818 249.857558 
L 129.745455 250.124609 
z
M 110.515785 203.904 
L 111.709091 202.376895 
L 114.341731 203.904 
L 111.709091 205.106126 
z
" style="fill:#46ae60;"/>
    <path clip-path="url(#pd5f63c7b9c)" d="M 183.854545 307.584 
L 191.316314 307.584 
L 183.854545 304.854377 
L 177.66496 307.584 
z
" style="fill:#46ae60;"/>
   </g>
   <g id="PathCollection_22">
    <path clip-path="url(#pd5f63c7b9c)" d="M 58.440151 290.304 
L 75.636364 280.067802 
L 93.672727 278.882084 
L 102.673329 290.304 
L 99.172137 307.584 
L 111.709091 307.584 
L 112.304242 307.584 
L 112.518846 290.304 
L 111.709091 286.560866 
L 105.210728 273.024 
L 93.672727 269.297537 
L 75.636364 271.912013 
L 71.365758 273.024 
L 57.6 280.670825 
L 57.6 290.304 
L 57.6 306.176267 
L 58.822602 307.584 
L 73.401588 307.584 
z
" style="fill:#2a924a;"/>
    <path clip-path="url(#pd5f63c7b9c)" d="M 129.745455 250.124609 
L 147.781818 249.857558 
L 156.792718 238.464 
L 147.781818 224.645051 
L 129.745455 222.270068 
L 125.292825 238.464 
z
" style="fill:#2a924a;"/>
    <path clip-path="url(#pd5f63c7b9c)" d="M 111.709091 205.106126 
L 114.341731 203.904 
L 111.709091 202.376895 
L 110.515785 203.904 
z
" style="fill:#2a924a;"/>
   </g>
   <g id="PathCollection_23">
    <path clip-path="url(#pd5f63c7b9c)" d="M 75.636364 307.584 
L 93.672727 307.584 
L 99.172137 307.584 
L 102.673329 290.304 
L 93.672727 278.882084 
L 75.636364 280.067802 
L 58.440151 290.304 
L 73.401588 307.584 
z
M 73.865016 290.304 
L 75.636364 289.249589 
L 85.93267 290.304 
L 75.636364 292.367738 
z
" style="fill:#0b7734;"/>
   </g>
   <g id="PathCollection_24">
    <path clip-path="url(#pd5f63c7b9c)" d="M 75.636364 292.367738 
L 85.93267 290.304 
L 75.636364 289.249589 
L 73.865016 290.304 
z
" style="fill:#005622;"/>
   </g>
   <g id="matplotlib.axis_5">
    <g id="xtick_13">
     <g id="line2d_23">
      <g>
       <use style="stroke:#000000;stroke-width:0.8;" x="57.6" xlink:href="#meee2cf6b70" y="307.584"/>
      </g>
     </g>
     <g id="text_23">
      <!-- 0 -->
      <g transform="translate(54.41875 322.182437)scale(0.1 -0.1)">
       <use xlink:href="#DejaVuSans-30"/>
      </g>
     </g>
    </g>
    <g id="xtick_14">
     <g id="line2d_24">
      <g>
       <use style="stroke:#000000;stroke-width:0.8;" x="90.065455" xlink:href="#meee2cf6b70" y="307.584"/>
      </g>
     </g>
     <g id="text_24">
      <!-- 2 -->
      <g transform="translate(86.884205 322.182437)scale(0.1 -0.1)">
       <use xlink:href="#DejaVuSans-32"/>
      </g>
     </g>
    </g>
    <g id="xtick_15">
     <g id="line2d_25">
      <g>
       <use style="stroke:#000000;stroke-width:0.8;" x="122.530909" xlink:href="#meee2cf6b70" y="307.584"/>
      </g>
     </g>
     <g id="text_25">
      <!-- 4 -->
      <g transform="translate(119.349659 322.182437)scale(0.1 -0.1)">
       <use xlink:href="#DejaVuSans-34"/>
      </g>
     </g>
    </g>
    <g id="xtick_16">
     <g id="line2d_26">
      <g>
       <use style="stroke:#000000;stroke-width:0.8;" x="154.996364" xlink:href="#meee2cf6b70" y="307.584"/>
      </g>
     </g>
     <g id="text_26">
      <!-- 6 -->
      <g transform="translate(151.815114 322.182437)scale(0.1 -0.1)">
       <use xlink:href="#DejaVuSans-36"/>
      </g>
     </g>
    </g>
    <g id="xtick_17">
     <g id="line2d_27">
      <g>
       <use style="stroke:#000000;stroke-width:0.8;" x="187.461818" xlink:href="#meee2cf6b70" y="307.584"/>
      </g>
     </g>
     <g id="text_27">
      <!-- 8 -->
      <g transform="translate(184.280568 322.182437)scale(0.1 -0.1)">
       <use xlink:href="#DejaVuSans-38"/>
      </g>
     </g>
    </g>
    <g id="xtick_18">
     <g id="line2d_28">
      <g>
       <use style="stroke:#000000;stroke-width:0.8;" x="219.927273" xlink:href="#meee2cf6b70" y="307.584"/>
      </g>
     </g>
     <g id="text_28">
      <!-- 10 -->
      <g transform="translate(213.564773 322.182437)scale(0.1 -0.1)">
       <use xlink:href="#DejaVuSans-31"/>
       <use x="63.623047" xlink:href="#DejaVuSans-30"/>
      </g>
     </g>
    </g>
   </g>
   <g id="matplotlib.axis_6">
    <g id="ytick_11">
     <g id="line2d_29">
      <g>
       <use style="stroke:#000000;stroke-width:0.8;" x="57.6" xlink:href="#mc813311d67" y="307.584"/>
      </g>
     </g>
     <g id="text_29">
      <!-- 0 -->
      <g transform="translate(44.2375 311.383219)scale(0.1 -0.1)">
       <use xlink:href="#DejaVuSans-30"/>
      </g>
     </g>
    </g>
    <g id="ytick_12">
     <g id="line2d_30">
      <g>
       <use style="stroke:#000000;stroke-width:0.8;" x="57.6" xlink:href="#mc813311d67" y="277.344"/>
      </g>
     </g>
     <g id="text_30">
      <!-- 2 -->
      <g transform="translate(44.2375 281.143219)scale(0.1 -0.1)">
       <use xlink:href="#DejaVuSans-32"/>
      </g>
     </g>
    </g>
    <g id="ytick_13">
     <g id="line2d_31">
      <g>
       <use style="stroke:#000000;stroke-width:0.8;" x="57.6" xlink:href="#mc813311d67" y="247.104"/>
      </g>
     </g>
     <g id="text_31">
      <!-- 4 -->
      <g transform="translate(44.2375 250.903219)scale(0.1 -0.1)">
       <use xlink:href="#DejaVuSans-34"/>
      </g>
     </g>
    </g>
    <g id="ytick_14">
     <g id="line2d_32">
      <g>
       <use style="stroke:#000000;stroke-width:0.8;" x="57.6" xlink:href="#mc813311d67" y="216.864"/>
      </g>
     </g>
     <g id="text_32">
      <!-- 6 -->
      <g transform="translate(44.2375 220.663219)scale(0.1 -0.1)">
       <use xlink:href="#DejaVuSans-36"/>
      </g>
     </g>
    </g>
    <g id="ytick_15">
     <g id="line2d_33">
      <g>
       <use style="stroke:#000000;stroke-width:0.8;" x="57.6" xlink:href="#mc813311d67" y="186.624"/>
      </g>
     </g>
     <g id="text_33">
      <!-- 8 -->
      <g transform="translate(44.2375 190.423219)scale(0.1 -0.1)">
       <use xlink:href="#DejaVuSans-38"/>
      </g>
     </g>
    </g>
   </g>
   <g id="patch_13">
    <path d="M 57.6 307.584 
L 57.6 186.624 
" style="fill:none;stroke:#000000;stroke-linecap:square;stroke-linejoin:miter;stroke-width:0.8;"/>
   </g>
   <g id="patch_14">
    <path d="M 219.927273 307.584 
L 219.927273 186.624 
" style="fill:none;stroke:#000000;stroke-linecap:square;stroke-linejoin:miter;stroke-width:0.8;"/>
   </g>
   <g id="patch_15">
    <path d="M 57.6 307.584 
L 219.927273 307.584 
" style="fill:none;stroke:#000000;stroke-linecap:square;stroke-linejoin:miter;stroke-width:0.8;"/>
   </g>
   <g id="patch_16">
    <path d="M 57.6 186.624 
L 219.927273 186.624 
" style="fill:none;stroke:#000000;stroke-linecap:square;stroke-linejoin:miter;stroke-width:0.8;"/>
   </g>
  </g>
  <g id="axes_4">
   <g id="patch_17">
    <path d="M 252.392727 307.584 
L 414.72 307.584 
L 414.72 186.624 
L 252.392727 186.624 
z
" style="fill:#ffffff;"/>
   </g>
   <g id="PathCollection_25">
    <path clip-path="url(#p9d4f93f46e)" d="M 342.574545 307.584 
L 360.610909 307.584 
L 373.444473 307.584 
L 378.647273 295.594138 
L 380.102554 290.304 
L 378.647273 289.51977 
L 360.610909 281.030117 
L 342.574545 284.054148 
L 335.562932 290.304 
L 332.086485 307.584 
z
" style="fill:#edf8e9;"/>
   </g>
   <g id="PathCollection_26">
    <path clip-path="url(#p9d4f93f46e)" d="M 324.538182 307.584 
L 332.086485 307.584 
L 335.562932 290.304 
L 342.574545 284.054148 
L 360.610909 281.030117 
L 378.647273 289.51977 
L 380.102554 290.304 
L 378.647273 295.594138 
L 373.444473 307.584 
L 378.647273 307.584 
L 396.683636 307.584 
L 406.869411 307.584 
L 414.72 298.223369 
L 414.72 290.304 
L 414.72 273.024 
L 414.72 255.744 
L 414.72 238.464 
L 414.72 221.184 
L 414.72 203.904 
L 414.72 196.154167 
L 401.422924 203.904 
L 405.305296 221.184 
L 410.993097 238.464 
L 413.331423 255.744 
L 406.724357 273.024 
L 396.683636 280.122474 
L 379.615075 273.024 
L 378.647273 272.825351 
L 360.610909 267.890177 
L 342.574545 269.851585 
L 337.438779 273.024 
L 324.538182 284.661202 
L 319.632872 290.304 
L 313.302619 307.584 
z
" style="fill:#d0edca;"/>
   </g>
   <g id="PathCollection_27">
    <path clip-path="url(#p9d4f93f46e)" d="M 306.501818 307.584 
L 313.302619 307.584 
L 319.632872 290.304 
L 324.538182 284.661202 
L 337.438779 273.024 
L 342.574545 269.851585 
L 360.610909 267.890177 
L 378.647273 272.825351 
L 379.615075 273.024 
L 396.683636 280.122474 
L 406.724357 273.024 
L 413.331423 255.744 
L 410.993097 238.464 
L 405.305296 221.184 
L 401.422924 203.904 
L 414.72 196.154167 
L 414.72 186.624 
L 396.683636 186.624 
L 378.647273 186.624 
L 361.162832 186.624 
L 372.333678 203.904 
L 378.647273 211.184273 
L 388.896297 221.184 
L 396.683636 229.389346 
L 400.828891 238.464 
L 401.178658 255.744 
L 396.683636 261.869953 
L 378.647273 262.096136 
L 360.610909 258.491144 
L 342.574545 260.338673 
L 324.538182 271.2256 
L 322.507876 273.024 
L 307.556419 290.304 
L 306.501818 292.742185 
L 299.850933 307.584 
z
" style="fill:#a7dba0;"/>
    <path clip-path="url(#p9d4f93f46e)" d="M 414.72 307.584 
L 414.72 298.223369 
L 406.869411 307.584 
z
" style="fill:#a7dba0;"/>
    <path clip-path="url(#p9d4f93f46e)" d="M 253.318887 255.744 
L 255.512989 238.464 
L 252.392727 234.02456 
L 252.392727 238.464 
L 252.392727 255.744 
L 252.392727 257.769313 
z
" style="fill:#a7dba0;"/>
   </g>
   <g id="PathCollection_28">
    <path clip-path="url(#p9d4f93f46e)" d="M 256.76074 290.304 
L 260.824502 273.024 
L 269.090379 255.744 
L 270.429091 251.748902 
L 274.362123 238.464 
L 270.429091 225.168165 
L 268.083265 221.184 
L 252.392727 210.211441 
L 252.392727 221.184 
L 252.392727 234.02456 
L 255.512989 238.464 
L 253.318887 255.744 
L 252.392727 257.769313 
L 252.392727 273.024 
L 252.392727 290.304 
L 252.392727 303.304771 
z
" style="fill:#73c476;"/>
    <path clip-path="url(#p9d4f93f46e)" d="M 288.465455 307.584 
L 299.850933 307.584 
L 306.501818 292.742185 
L 307.556419 290.304 
L 322.507876 273.024 
L 324.538182 271.2256 
L 342.574545 260.338673 
L 360.610909 258.491144 
L 378.647273 262.096136 
L 396.683636 261.869953 
L 401.178658 255.744 
L 400.828891 238.464 
L 396.683636 229.389346 
L 388.896297 221.184 
L 378.647273 211.184273 
L 372.333678 203.904 
L 361.162832 186.624 
L 360.610909 186.624 
L 349.438271 186.624 
L 356.669741 203.904 
L 360.610909 212.147255 
L 368.237142 221.184 
L 378.647273 234.234435 
L 382.611164 238.464 
L 378.647273 243.478828 
L 360.610909 245.394784 
L 342.574545 249.729785 
L 332.375535 255.744 
L 324.538182 260.145866 
L 309.999398 273.024 
L 306.501818 277.07652 
L 293.939011 290.304 
L 288.465455 304.394792 
L 285.930228 307.584 
z
" style="fill:#73c476;"/>
   </g>
   <g id="PathCollection_29">
    <path clip-path="url(#p9d4f93f46e)" d="M 270.429091 307.584 
L 285.930228 307.584 
L 288.465455 304.394792 
L 293.939011 290.304 
L 306.501818 277.07652 
L 309.999398 273.024 
L 324.538182 260.145866 
L 332.375535 255.744 
L 342.574545 249.729785 
L 360.610909 245.394784 
L 378.647273 243.478828 
L 382.611164 238.464 
L 378.647273 234.234435 
L 368.237142 221.184 
L 360.610909 212.147255 
L 356.669741 203.904 
L 349.438271 186.624 
L 342.574545 186.624 
L 338.04248 186.624 
L 342.574545 197.574184 
L 345.210487 203.904 
L 350.434998 221.184 
L 342.574545 237.400876 
L 341.698397 238.464 
L 324.538182 247.211332 
L 312.007998 255.744 
L 306.501818 260.389213 
L 289.058473 273.024 
L 288.465455 273.699128 
L 287.330577 273.024 
L 286.090042 255.744 
L 288.296327 238.464 
L 284.805137 221.184 
L 270.429091 204.581308 
L 269.483266 203.904 
L 253.842901 186.624 
L 252.392727 186.624 
L 252.392727 203.904 
L 252.392727 210.211441 
L 268.083265 221.184 
L 270.429091 225.168165 
L 274.362123 238.464 
L 270.429091 251.748902 
L 269.090379 255.744 
L 260.824502 273.024 
L 256.76074 290.304 
L 252.392727 303.304771 
L 252.392727 307.584 
z
" style="fill:#3da65a;"/>
   </g>
   <g id="PathCollection_30">
    <path clip-path="url(#p9d4f93f46e)" d="M 288.465455 273.699128 
L 289.058473 273.024 
L 306.501818 260.389213 
L 312.007998 255.744 
L 324.538182 247.211332 
L 341.698397 238.464 
L 342.574545 237.400876 
L 350.434998 221.184 
L 345.210487 203.904 
L 342.574545 197.574184 
L 338.04248 186.624 
L 326.653461 186.624 
L 331.682665 203.904 
L 330.787522 221.184 
L 324.538182 228.416312 
L 306.501818 230.095202 
L 302.686202 221.184 
L 289.339303 203.904 
L 288.465455 201.954281 
L 280.208742 186.624 
L 270.429091 186.624 
L 253.842901 186.624 
L 269.483266 203.904 
L 270.429091 204.581308 
L 284.805137 221.184 
L 288.296327 238.464 
L 286.090042 255.744 
L 287.330577 273.024 
z
" style="fill:#18823d;"/>
   </g>
   <g id="PathCollection_31">
    <path clip-path="url(#p9d4f93f46e)" d="M 306.501818 230.095202 
L 324.538182 228.416312 
L 330.787522 221.184 
L 331.682665 203.904 
L 326.653461 186.624 
L 324.538182 186.624 
L 306.501818 186.624 
L 288.465455 186.624 
L 280.208742 186.624 
L 288.465455 201.954281 
L 289.339303 203.904 
L 302.686202 221.184 
z
" style="fill:#005b25;"/>
   </g>
   <g id="matplotlib.axis_7">
    <g id="xtick_19">
     <g id="line2d_34">
      <g>
       <use style="stroke:#000000;stroke-width:0.8;" x="252.392727" xlink:href="#meee2cf6b70" y="307.584"/>
      </g>
     </g>
     <g id="text_34">
      <!-- 0 -->
      <g transform="translate(249.211477 322.182437)scale(0.1 -0.1)">
       <use xlink:href="#DejaVuSans-30"/>
      </g>
     </g>
    </g>
    <g id="xtick_20">
     <g id="line2d_35">
      <g>
       <use style="stroke:#000000;stroke-width:0.8;" x="284.858182" xlink:href="#meee2cf6b70" y="307.584"/>
      </g>
     </g>
     <g id="text_35">
      <!-- 2 -->
      <g transform="translate(281.676932 322.182437)scale(0.1 -0.1)">
       <use xlink:href="#DejaVuSans-32"/>
      </g>
     </g>
    </g>
    <g id="xtick_21">
     <g id="line2d_36">
      <g>
       <use style="stroke:#000000;stroke-width:0.8;" x="317.323636" xlink:href="#meee2cf6b70" y="307.584"/>
      </g>
     </g>
     <g id="text_36">
      <!-- 4 -->
      <g transform="translate(314.142386 322.182437)scale(0.1 -0.1)">
       <use xlink:href="#DejaVuSans-34"/>
      </g>
     </g>
    </g>
    <g id="xtick_22">
     <g id="line2d_37">
      <g>
       <use style="stroke:#000000;stroke-width:0.8;" x="349.789091" xlink:href="#meee2cf6b70" y="307.584"/>
      </g>
     </g>
     <g id="text_37">
      <!-- 6 -->
      <g transform="translate(346.607841 322.182437)scale(0.1 -0.1)">
       <use xlink:href="#DejaVuSans-36"/>
      </g>
     </g>
    </g>
    <g id="xtick_23">
     <g id="line2d_38">
      <g>
       <use style="stroke:#000000;stroke-width:0.8;" x="382.254545" xlink:href="#meee2cf6b70" y="307.584"/>
      </g>
     </g>
     <g id="text_38">
      <!-- 8 -->
      <g transform="translate(379.073295 322.182437)scale(0.1 -0.1)">
       <use xlink:href="#DejaVuSans-38"/>
      </g>
     </g>
    </g>
    <g id="xtick_24">
     <g id="line2d_39">
      <g>
       <use style="stroke:#000000;stroke-width:0.8;" x="414.72" xlink:href="#meee2cf6b70" y="307.584"/>
      </g>
     </g>
     <g id="text_39">
      <!-- 10 -->
      <g transform="translate(408.3575 322.182437)scale(0.1 -0.1)">
       <use xlink:href="#DejaVuSans-31"/>
       <use x="63.623047" xlink:href="#DejaVuSans-30"/>
      </g>
     </g>
    </g>
   </g>
   <g id="matplotlib.axis_8">
    <g id="ytick_16">
     <g id="line2d_40">
      <g>
       <use style="stroke:#000000;stroke-width:0.8;" x="252.392727" xlink:href="#mc813311d67" y="307.584"/>
      </g>
     </g>
     <g id="text_40">
      <!-- 0 -->
      <g transform="translate(239.030227 311.383219)scale(0.1 -0.1)">
       <use xlink:href="#DejaVuSans-30"/>
      </g>
     </g>
    </g>
    <g id="ytick_17">
     <g id="line2d_41">
      <g>
       <use style="stroke:#000000;stroke-width:0.8;" x="252.392727" xlink:href="#mc813311d67" y="277.344"/>
      </g>
     </g>
     <g id="text_41">
      <!-- 2 -->
      <g transform="translate(239.030227 281.143219)scale(0.1 -0.1)">
       <use xlink:href="#DejaVuSans-32"/>
      </g>
     </g>
    </g>
    <g id="ytick_18">
     <g id="line2d_42">
      <g>
       <use style="stroke:#000000;stroke-width:0.8;" x="252.392727" xlink:href="#mc813311d67" y="247.104"/>
      </g>
     </g>
     <g id="text_42">
      <!-- 4 -->
      <g transform="translate(239.030227 250.903219)scale(0.1 -0.1)">
       <use xlink:href="#DejaVuSans-34"/>
      </g>
     </g>
    </g>
    <g id="ytick_19">
     <g id="line2d_43">
      <g>
       <use style="stroke:#000000;stroke-width:0.8;" x="252.392727" xlink:href="#mc813311d67" y="216.864"/>
      </g>
     </g>
     <g id="text_43">
      <!-- 6 -->
      <g transform="translate(239.030227 220.663219)scale(0.1 -0.1)">
       <use xlink:href="#DejaVuSans-36"/>
      </g>
     </g>
    </g>
    <g id="ytick_20">
     <g id="line2d_44">
      <g>
       <use style="stroke:#000000;stroke-width:0.8;" x="252.392727" xlink:href="#mc813311d67" y="186.624"/>
      </g>
     </g>
     <g id="text_44">
      <!-- 8 -->
      <g transform="translate(239.030227 190.423219)scale(0.1 -0.1)">
       <use xlink:href="#DejaVuSans-38"/>
      </g>
     </g>
    </g>
   </g>
   <g id="patch_18">
    <path d="M 252.392727 307.584 
L 252.392727 186.624 
" style="fill:none;stroke:#000000;stroke-linecap:square;stroke-linejoin:miter;stroke-width:0.8;"/>
   </g>
   <g id="patch_19">
    <path d="M 414.72 307.584 
L 414.72 186.624 
" style="fill:none;stroke:#000000;stroke-linecap:square;stroke-linejoin:miter;stroke-width:0.8;"/>
   </g>
   <g id="patch_20">
    <path d="M 252.392727 307.584 
L 414.72 307.584 
" style="fill:none;stroke:#000000;stroke-linecap:square;stroke-linejoin:miter;stroke-width:0.8;"/>
   </g>
   <g id="patch_21">
    <path d="M 252.392727 186.624 
L 414.72 186.624 
" style="fill:none;stroke:#000000;stroke-linecap:square;stroke-linejoin:miter;stroke-width:0.8;"/>
   </g>
  </g>
 </g>
 <defs>
  <clipPath id="p46845d5eba">
   <rect height="120.96" width="162.327273" x="57.6" y="41.472"/>
  </clipPath>
  <clipPath id="p4d32d36173">
   <rect height="120.96" width="162.327273" x="252.392727" y="41.472"/>
  </clipPath>
  <clipPath id="pd5f63c7b9c">
   <rect height="120.96" width="162.327273" x="57.6" y="186.624"/>
  </clipPath>
  <clipPath id="p9d4f93f46e">
   <rect height="120.96" width="162.327273" x="252.392727" y="186.624"/>
  </clipPath>
 </defs>
</svg>
