<?xml version="1.0" encoding="utf-8" standalone="no"?>
<!DOCTYPE svg PUBLIC "-//W3C//DTD SVG 1.1//EN"
  "http://www.w3.org/Graphics/SVG/1.1/DTD/svg11.dtd">
<!-- Created with matplotlib (http://matplotlib.org/) -->
<svg height="345pt" version="1.1" viewBox="0 0 460 345" width="460pt" xmlns="http://www.w3.org/2000/svg" xmlns:xlink="http://www.w3.org/1999/xlink">
 <defs>
  <style type="text/css">
*{stroke-linecap:butt;stroke-linejoin:round;}
  </style>
 </defs>
 <g id="figure_1">
  <g id="patch_1">
   <path d="M 0 345.6 
L 460.8 345.6 
L 460.8 0 
L 0 0 
z
" style="fill:#ffffff;"/>
  </g>
  <g id="axes_1">
   <g id="patch_2">
    <path d="M 57.6 162.432 
L 219.927273 162.432 
L 219.927273 41.472 
L 57.6 41.472 
z
" style="fill:#ffffff;"/>
   </g>
   <g id="PathCollection_1">
    <path clip-path="url(#p6fbb2d227f)" d="M 75.636364 128.638789 
L 77.123031 127.872 
L 75.636364 126.757424 
L 74.832034 127.872 
z
" style="fill:#edf8e9;"/>
   </g>
   <g id="PathCollection_2">
    <path clip-path="url(#p6fbb2d227f)" d="M 57.6 154.533191 
L 57.6 162.432 
L 61.755193 162.432 
z
" style="fill:#d0edca;"/>
    <path clip-path="url(#p6fbb2d227f)" d="M 93.672727 162.432 
L 111.709091 162.432 
L 119.212481 162.432 
L 116.979222 145.152 
L 111.709091 141.333194 
L 94.876724 145.152 
L 93.672727 148.756099 
L 90.796264 162.432 
z
" style="fill:#d0edca;"/>
    <path clip-path="url(#p6fbb2d227f)" d="M 75.636364 139.546717 
L 93.672727 143.146856 
L 96.087523 127.872 
L 93.672727 123.752688 
L 75.636364 110.902069 
L 63.390074 127.872 
z
M 74.832034 127.872 
L 75.636364 126.757424 
L 77.123031 127.872 
L 75.636364 128.638789 
z
" style="fill:#d0edca;"/>
    <path clip-path="url(#p6fbb2d227f)" d="M 183.854545 85.003033 
L 201.890909 77.69168 
L 202.766113 76.032 
L 201.890909 73.904551 
L 183.854545 66.93782 
L 177.327537 76.032 
z
" style="fill:#d0edca;"/>
   </g>
   <g id="PathCollection_3">
    <path clip-path="url(#p6fbb2d227f)" d="M 75.636364 162.432 
L 90.796264 162.432 
L 93.672727 148.756099 
L 94.876724 145.152 
L 111.709091 141.333194 
L 116.979222 145.152 
L 119.212481 162.432 
L 128.210356 162.432 
L 129.745455 147.973272 
L 130.358953 145.152 
L 129.745455 144.545346 
L 111.709091 131.764061 
L 107.192397 127.872 
L 96.27945 110.592 
L 93.672727 108.335589 
L 75.636364 105.114346 
L 62.331958 110.592 
L 57.6 117.742758 
L 57.6 127.872 
L 57.6 145.152 
L 57.6 154.533191 
L 61.755193 162.432 
z
M 63.390074 127.872 
L 75.636364 110.902069 
L 93.672727 123.752688 
L 96.087523 127.872 
L 93.672727 143.146856 
L 75.636364 139.546717 
z
" style="fill:#a7dba0;"/>
    <path clip-path="url(#p6fbb2d227f)" d="M 219.927273 128.090657 
L 219.927273 127.872 
L 219.927273 124.612435 
L 219.746607 127.872 
z
" style="fill:#a7dba0;"/>
    <path clip-path="url(#p6fbb2d227f)" d="M 183.854545 94.736885 
L 201.890909 97.384565 
L 208.395757 93.312 
L 214.231076 76.032 
L 219.927273 63.472071 
L 219.927273 58.752 
L 219.927273 53.950095 
L 201.890909 44.300756 
L 183.854545 52.363842 
L 165.818182 51.139905 
L 162.364679 58.752 
L 165.818182 63.008499 
L 169.516959 76.032 
L 182.298988 93.312 
z
M 177.327537 76.032 
L 183.854545 66.93782 
L 201.890909 73.904551 
L 202.766113 76.032 
L 201.890909 77.69168 
L 183.854545 85.003033 
z
" style="fill:#a7dba0;"/>
    <path clip-path="url(#p6fbb2d227f)" d="M 59.41311 41.472 
L 57.6 41.472 
L 57.6 42.472772 
z
" style="fill:#a7dba0;"/>
   </g>
   <g id="PathCollection_4">
    <path clip-path="url(#p6fbb2d227f)" d="M 129.745455 162.432 
L 147.781818 162.432 
L 165.818182 162.432 
L 174.476354 162.432 
L 165.818182 153.012566 
L 149.177716 145.152 
L 147.781818 143.918257 
L 131.674875 127.872 
L 129.745455 126.443309 
L 111.709091 120.550261 
L 104.818726 110.592 
L 93.672727 100.943889 
L 75.636364 99.527435 
L 57.6 98.979363 
L 57.6 110.592 
L 57.6 117.742758 
L 62.331958 110.592 
L 75.636364 105.114346 
L 93.672727 108.335589 
L 96.27945 110.592 
L 107.192397 127.872 
L 111.709091 131.764061 
L 129.745455 144.545346 
L 130.358953 145.152 
L 129.745455 147.973272 
L 128.210356 162.432 
z
" style="fill:#73c476;"/>
    <path clip-path="url(#p6fbb2d227f)" d="M 219.927273 139.296279 
L 219.927273 128.090657 
L 219.746607 127.872 
L 219.927273 124.612435 
L 219.927273 110.592 
L 219.927273 93.312 
L 219.927273 76.032 
L 219.927273 63.472071 
L 214.231076 76.032 
L 208.395757 93.312 
L 201.890909 97.384565 
L 183.854545 94.736885 
L 182.298988 93.312 
L 169.516959 76.032 
L 165.818182 63.008499 
L 162.364679 58.752 
L 165.818182 51.139905 
L 183.854545 52.363842 
L 201.890909 44.300756 
L 219.927273 53.950095 
L 219.927273 41.472 
L 201.890909 41.472 
L 183.854545 41.472 
L 165.818182 41.472 
L 147.781818 41.472 
L 135.936572 41.472 
L 144.393539 58.752 
L 147.781818 63.924132 
L 158.718855 76.032 
L 165.818182 80.767582 
L 175.416282 93.312 
L 183.854545 101.041418 
L 200.911791 110.592 
L 201.890909 112.071682 
L 210.487943 127.872 
z
" style="fill:#73c476;"/>
    <path clip-path="url(#p6fbb2d227f)" d="M 75.636364 46.311138 
L 93.672727 57.602858 
L 111.709091 49.437831 
L 123.397782 41.472 
L 111.709091 41.472 
L 93.672727 41.472 
L 75.636364 41.472 
L 59.41311 41.472 
L 57.6 42.472772 
L 57.6 58.594998 
z
" style="fill:#73c476;"/>
   </g>
   <g id="PathCollection_5">
    <path clip-path="url(#p6fbb2d227f)" d="M 165.818182 153.012566 
L 174.476354 162.432 
L 183.854545 162.432 
L 186.573079 162.432 
L 183.854545 160.401255 
L 169.975505 145.152 
L 165.818182 140.279617 
L 152.216705 127.872 
L 147.781818 121.919176 
L 131.414672 110.592 
L 129.745455 105.672937 
L 111.709091 106.752665 
L 93.672727 93.552188 
L 75.636364 93.940523 
L 73.08294 93.312 
L 65.870749 76.032 
L 73.36108 58.752 
L 75.636364 57.195959 
L 78.024595 58.752 
L 93.672727 75.817013 
L 111.709091 65.165329 
L 119.593454 58.752 
L 129.745455 51.660398 
L 134.613382 58.752 
L 145.065043 76.032 
L 147.781818 85.243886 
L 165.818182 89.763064 
L 168.533577 93.312 
L 183.854545 107.345952 
L 189.651956 110.592 
L 201.052611 127.872 
L 201.890909 129.423655 
L 212.76204 145.152 
L 219.927273 148.629653 
L 219.927273 145.152 
L 219.927273 139.296279 
L 210.487943 127.872 
L 201.890909 112.071682 
L 200.911791 110.592 
L 183.854545 101.041418 
L 175.416282 93.312 
L 165.818182 80.767582 
L 158.718855 76.032 
L 147.781818 63.924132 
L 144.393539 58.752 
L 135.936572 41.472 
L 129.745455 41.472 
L 123.397782 41.472 
L 111.709091 49.437831 
L 93.672727 57.602858 
L 75.636364 46.311138 
L 57.6 58.594998 
L 57.6 58.752 
L 57.6 76.032 
L 57.6 93.312 
L 57.6 98.979363 
L 75.636364 99.527435 
L 93.672727 100.943889 
L 104.818726 110.592 
L 111.709091 120.550261 
L 129.745455 126.443309 
L 131.674875 127.872 
L 147.781818 143.918257 
L 149.177716 145.152 
z
" style="fill:#3da65a;"/>
   </g>
   <g id="PathCollection_6">
    <path clip-path="url(#p6fbb2d227f)" d="M 183.854545 160.401255 
L 186.573079 162.432 
L 201.890909 162.432 
L 204.106828 162.432 
L 219.927273 155.913762 
L 219.927273 148.629653 
L 212.76204 145.152 
L 201.890909 129.423655 
L 201.052611 127.872 
L 189.651956 110.592 
L 183.854545 107.345952 
L 168.533577 93.312 
L 165.818182 89.763064 
L 147.781818 85.243886 
L 145.065043 76.032 
L 134.613382 58.752 
L 129.745455 51.660398 
L 119.593454 58.752 
L 111.709091 65.165329 
L 93.672727 75.817013 
L 78.024595 58.752 
L 75.636364 57.195959 
L 73.36108 58.752 
L 65.870749 76.032 
L 73.08294 93.312 
L 75.636364 93.940523 
L 93.672727 93.552188 
L 111.709091 106.752665 
L 129.745455 105.672937 
L 131.414672 110.592 
L 147.781818 121.919176 
L 152.216705 127.872 
L 165.818182 140.279617 
L 169.975505 145.152 
z
M 181.882151 145.152 
L 169.284049 127.872 
L 165.818182 125.420936 
L 155.008161 110.592 
L 165.818182 101.51048 
L 176.284227 110.592 
L 183.854545 119.405301 
L 189.321695 127.872 
L 190.625095 145.152 
L 183.854545 147.31912 
z
M 126.86259 76.032 
L 129.745455 74.03477 
L 130.689072 76.032 
L 129.745455 77.259177 
z
" style="fill:#18823d;"/>
   </g>
   <g id="PathCollection_7">
    <path clip-path="url(#p6fbb2d227f)" d="M 183.854545 147.31912 
L 190.625095 145.152 
L 189.321695 127.872 
L 183.854545 119.405301 
L 176.284227 110.592 
L 165.818182 101.51048 
L 155.008161 110.592 
L 165.818182 125.420936 
L 169.284049 127.872 
L 181.882151 145.152 
z
" style="fill:#005b25;"/>
    <path clip-path="url(#p6fbb2d227f)" d="M 219.927273 162.432 
L 219.927273 155.913762 
L 204.106828 162.432 
z
" style="fill:#005b25;"/>
    <path clip-path="url(#p6fbb2d227f)" d="M 129.745455 77.259177 
L 130.689072 76.032 
L 129.745455 74.03477 
L 126.86259 76.032 
z
" style="fill:#005b25;"/>
   </g>
   <g id="matplotlib.axis_1">
    <g id="xtick_1">
     <g id="line2d_1">
      <defs>
       <path d="M 0 0 
L 0 3.5 
" id="md7234748fa" style="stroke:#000000;stroke-width:0.8;"/>
      </defs>
      <g>
       <use style="stroke:#000000;stroke-width:0.8;" x="57.6" xlink:href="#md7234748fa" y="162.432"/>
      </g>
     </g>
     <g id="text_1">
      <!-- 0 -->
      <defs>
       <path d="M 31.78125 66.40625 
Q 24.171875 66.40625 20.328125 58.90625 
Q 16.5 51.421875 16.5 36.375 
Q 16.5 21.390625 20.328125 13.890625 
Q 24.171875 6.390625 31.78125 6.390625 
Q 39.453125 6.390625 43.28125 13.890625 
Q 47.125 21.390625 47.125 36.375 
Q 47.125 51.421875 43.28125 58.90625 
Q 39.453125 66.40625 31.78125 66.40625 
z
M 31.78125 74.21875 
Q 44.046875 74.21875 50.515625 64.515625 
Q 56.984375 54.828125 56.984375 36.375 
Q 56.984375 17.96875 50.515625 8.265625 
Q 44.046875 -1.421875 31.78125 -1.421875 
Q 19.53125 -1.421875 13.0625 8.265625 
Q 6.59375 17.96875 6.59375 36.375 
Q 6.59375 54.828125 13.0625 64.515625 
Q 19.53125 74.21875 31.78125 74.21875 
z
" id="DejaVuSans-30"/>
      </defs>
      <g transform="translate(54.41875 177.030437)scale(0.1 -0.1)">
       <use xlink:href="#DejaVuSans-30"/>
      </g>
     </g>
    </g>
    <g id="xtick_2">
     <g id="line2d_2">
      <g>
       <use style="stroke:#000000;stroke-width:0.8;" x="90.065455" xlink:href="#md7234748fa" y="162.432"/>
      </g>
     </g>
     <g id="text_2">
      <!-- 2 -->
      <defs>
       <path d="M 19.1875 8.296875 
L 53.609375 8.296875 
L 53.609375 0 
L 7.328125 0 
L 7.328125 8.296875 
Q 12.9375 14.109375 22.625 23.890625 
Q 32.328125 33.6875 34.8125 36.53125 
Q 39.546875 41.84375 41.421875 45.53125 
Q 43.3125 49.21875 43.3125 52.78125 
Q 43.3125 58.59375 39.234375 62.25 
Q 35.15625 65.921875 28.609375 65.921875 
Q 23.96875 65.921875 18.8125 64.3125 
Q 13.671875 62.703125 7.8125 59.421875 
L 7.8125 69.390625 
Q 13.765625 71.78125 18.9375 73 
Q 24.125 74.21875 28.421875 74.21875 
Q 39.75 74.21875 46.484375 68.546875 
Q 53.21875 62.890625 53.21875 53.421875 
Q 53.21875 48.921875 51.53125 44.890625 
Q 49.859375 40.875 45.40625 35.40625 
Q 44.1875 33.984375 37.640625 27.21875 
Q 31.109375 20.453125 19.1875 8.296875 
z
" id="DejaVuSans-32"/>
      </defs>
      <g transform="translate(86.884205 177.030437)scale(0.1 -0.1)">
       <use xlink:href="#DejaVuSans-32"/>
      </g>
     </g>
    </g>
    <g id="xtick_3">
     <g id="line2d_3">
      <g>
       <use style="stroke:#000000;stroke-width:0.8;" x="122.530909" xlink:href="#md7234748fa" y="162.432"/>
      </g>
     </g>
     <g id="text_3">
      <!-- 4 -->
      <defs>
       <path d="M 37.796875 64.3125 
L 12.890625 25.390625 
L 37.796875 25.390625 
z
M 35.203125 72.90625 
L 47.609375 72.90625 
L 47.609375 25.390625 
L 58.015625 25.390625 
L 58.015625 17.1875 
L 47.609375 17.1875 
L 47.609375 0 
L 37.796875 0 
L 37.796875 17.1875 
L 4.890625 17.1875 
L 4.890625 26.703125 
z
" id="DejaVuSans-34"/>
      </defs>
      <g transform="translate(119.349659 177.030437)scale(0.1 -0.1)">
       <use xlink:href="#DejaVuSans-34"/>
      </g>
     </g>
    </g>
    <g id="xtick_4">
     <g id="line2d_4">
      <g>
       <use style="stroke:#000000;stroke-width:0.8;" x="154.996364" xlink:href="#md7234748fa" y="162.432"/>
      </g>
     </g>
     <g id="text_4">
      <!-- 6 -->
      <defs>
       <path d="M 33.015625 40.375 
Q 26.375 40.375 22.484375 35.828125 
Q 18.609375 31.296875 18.609375 23.390625 
Q 18.609375 15.53125 22.484375 10.953125 
Q 26.375 6.390625 33.015625 6.390625 
Q 39.65625 6.390625 43.53125 10.953125 
Q 47.40625 15.53125 47.40625 23.390625 
Q 47.40625 31.296875 43.53125 35.828125 
Q 39.65625 40.375 33.015625 40.375 
z
M 52.59375 71.296875 
L 52.59375 62.3125 
Q 48.875 64.0625 45.09375 64.984375 
Q 41.3125 65.921875 37.59375 65.921875 
Q 27.828125 65.921875 22.671875 59.328125 
Q 17.53125 52.734375 16.796875 39.40625 
Q 19.671875 43.65625 24.015625 45.921875 
Q 28.375 48.1875 33.59375 48.1875 
Q 44.578125 48.1875 50.953125 41.515625 
Q 57.328125 34.859375 57.328125 23.390625 
Q 57.328125 12.15625 50.6875 5.359375 
Q 44.046875 -1.421875 33.015625 -1.421875 
Q 20.359375 -1.421875 13.671875 8.265625 
Q 6.984375 17.96875 6.984375 36.375 
Q 6.984375 53.65625 15.1875 63.9375 
Q 23.390625 74.21875 37.203125 74.21875 
Q 40.921875 74.21875 44.703125 73.484375 
Q 48.484375 72.75 52.59375 71.296875 
z
" id="DejaVuSans-36"/>
      </defs>
      <g transform="translate(151.815114 177.030437)scale(0.1 -0.1)">
       <use xlink:href="#DejaVuSans-36"/>
      </g>
     </g>
    </g>
    <g id="xtick_5">
     <g id="line2d_5">
      <g>
       <use style="stroke:#000000;stroke-width:0.8;" x="187.461818" xlink:href="#md7234748fa" y="162.432"/>
      </g>
     </g>
     <g id="text_5">
      <!-- 8 -->
      <defs>
       <path d="M 31.78125 34.625 
Q 24.75 34.625 20.71875 30.859375 
Q 16.703125 27.09375 16.703125 20.515625 
Q 16.703125 13.921875 20.71875 10.15625 
Q 24.75 6.390625 31.78125 6.390625 
Q 38.8125 6.390625 42.859375 10.171875 
Q 46.921875 13.96875 46.921875 20.515625 
Q 46.921875 27.09375 42.890625 30.859375 
Q 38.875 34.625 31.78125 34.625 
z
M 21.921875 38.8125 
Q 15.578125 40.375 12.03125 44.71875 
Q 8.5 49.078125 8.5 55.328125 
Q 8.5 64.0625 14.71875 69.140625 
Q 20.953125 74.21875 31.78125 74.21875 
Q 42.671875 74.21875 48.875 69.140625 
Q 55.078125 64.0625 55.078125 55.328125 
Q 55.078125 49.078125 51.53125 44.71875 
Q 48 40.375 41.703125 38.8125 
Q 48.828125 37.15625 52.796875 32.3125 
Q 56.78125 27.484375 56.78125 20.515625 
Q 56.78125 9.90625 50.3125 4.234375 
Q 43.84375 -1.421875 31.78125 -1.421875 
Q 19.734375 -1.421875 13.25 4.234375 
Q 6.78125 9.90625 6.78125 20.515625 
Q 6.78125 27.484375 10.78125 32.3125 
Q 14.796875 37.15625 21.921875 38.8125 
z
M 18.3125 54.390625 
Q 18.3125 48.734375 21.84375 45.5625 
Q 25.390625 42.390625 31.78125 42.390625 
Q 38.140625 42.390625 41.71875 45.5625 
Q 45.3125 48.734375 45.3125 54.390625 
Q 45.3125 60.0625 41.71875 63.234375 
Q 38.140625 66.40625 31.78125 66.40625 
Q 25.390625 66.40625 21.84375 63.234375 
Q 18.3125 60.0625 18.3125 54.390625 
z
" id="DejaVuSans-38"/>
      </defs>
      <g transform="translate(184.280568 177.030437)scale(0.1 -0.1)">
       <use xlink:href="#DejaVuSans-38"/>
      </g>
     </g>
    </g>
    <g id="xtick_6">
     <g id="line2d_6">
      <g>
       <use style="stroke:#000000;stroke-width:0.8;" x="219.927273" xlink:href="#md7234748fa" y="162.432"/>
      </g>
     </g>
     <g id="text_6">
      <!-- 10 -->
      <defs>
       <path d="M 12.40625 8.296875 
L 28.515625 8.296875 
L 28.515625 63.921875 
L 10.984375 60.40625 
L 10.984375 69.390625 
L 28.421875 72.90625 
L 38.28125 72.90625 
L 38.28125 8.296875 
L 54.390625 8.296875 
L 54.390625 0 
L 12.40625 0 
z
" id="DejaVuSans-31"/>
      </defs>
      <g transform="translate(213.564773 177.030437)scale(0.1 -0.1)">
       <use xlink:href="#DejaVuSans-31"/>
       <use x="63.623047" xlink:href="#DejaVuSans-30"/>
      </g>
     </g>
    </g>
   </g>
   <g id="matplotlib.axis_2">
    <g id="ytick_1">
     <g id="line2d_7">
      <defs>
       <path d="M 0 0 
L -3.5 0 
" id="maea755377c" style="stroke:#000000;stroke-width:0.8;"/>
      </defs>
      <g>
       <use style="stroke:#000000;stroke-width:0.8;" x="57.6" xlink:href="#maea755377c" y="162.432"/>
      </g>
     </g>
     <g id="text_7">
      <!-- 0 -->
      <g transform="translate(44.2375 166.231219)scale(0.1 -0.1)">
       <use xlink:href="#DejaVuSans-30"/>
      </g>
     </g>
    </g>
    <g id="ytick_2">
     <g id="line2d_8">
      <g>
       <use style="stroke:#000000;stroke-width:0.8;" x="57.6" xlink:href="#maea755377c" y="132.192"/>
      </g>
     </g>
     <g id="text_8">
      <!-- 2 -->
      <g transform="translate(44.2375 135.991219)scale(0.1 -0.1)">
       <use xlink:href="#DejaVuSans-32"/>
      </g>
     </g>
    </g>
    <g id="ytick_3">
     <g id="line2d_9">
      <g>
       <use style="stroke:#000000;stroke-width:0.8;" x="57.6" xlink:href="#maea755377c" y="101.952"/>
      </g>
     </g>
     <g id="text_9">
      <!-- 4 -->
      <g transform="translate(44.2375 105.751219)scale(0.1 -0.1)">
       <use xlink:href="#DejaVuSans-34"/>
      </g>
     </g>
    </g>
    <g id="ytick_4">
     <g id="line2d_10">
      <g>
       <use style="stroke:#000000;stroke-width:0.8;" x="57.6" xlink:href="#maea755377c" y="71.712"/>
      </g>
     </g>
     <g id="text_10">
      <!-- 6 -->
      <g transform="translate(44.2375 75.511219)scale(0.1 -0.1)">
       <use xlink:href="#DejaVuSans-36"/>
      </g>
     </g>
    </g>
    <g id="ytick_5">
     <g id="line2d_11">
      <g>
       <use style="stroke:#000000;stroke-width:0.8;" x="57.6" xlink:href="#maea755377c" y="41.472"/>
      </g>
     </g>
     <g id="text_11">
      <!-- 8 -->
      <g transform="translate(44.2375 45.271219)scale(0.1 -0.1)">
       <use xlink:href="#DejaVuSans-38"/>
      </g>
     </g>
    </g>
   </g>
   <g id="patch_3">
    <path d="M 57.6 162.432 
L 57.6 41.472 
" style="fill:none;stroke:#000000;stroke-linecap:square;stroke-linejoin:miter;stroke-width:0.8;"/>
   </g>
   <g id="patch_4">
    <path d="M 219.927273 162.432 
L 219.927273 41.472 
" style="fill:none;stroke:#000000;stroke-linecap:square;stroke-linejoin:miter;stroke-width:0.8;"/>
   </g>
   <g id="patch_5">
    <path d="M 57.6 162.432 
L 219.927273 162.432 
" style="fill:none;stroke:#000000;stroke-linecap:square;stroke-linejoin:miter;stroke-width:0.8;"/>
   </g>
   <g id="patch_6">
    <path d="M 57.6 41.472 
L 219.927273 41.472 
" style="fill:none;stroke:#000000;stroke-linecap:square;stroke-linejoin:miter;stroke-width:0.8;"/>
   </g>
  </g>
  <g id="axes_2">
   <g id="patch_7">
    <path d="M 252.392727 162.432 
L 414.72 162.432 
L 414.72 41.472 
L 252.392727 41.472 
z
" style="fill:#ffffff;"/>
   </g>
   <g id="PathCollection_8">
    <path clip-path="url(#pd9bb43c220)" d="M 270.429091 148.149255 
L 288.465455 146.132333 
L 292.66258 145.152 
L 288.465455 141.316355 
L 270.429091 138.121949 
L 263.380548 145.152 
z
" style="fill:#edf8e9;"/>
    <path clip-path="url(#pd9bb43c220)" d="M 306.501818 101.632623 
L 313.788987 93.312 
L 306.501818 77.932033 
L 304.131784 76.032 
L 288.465455 68.545097 
L 275.591582 76.032 
L 288.465455 92.260466 
L 289.371856 93.312 
z
" style="fill:#edf8e9;"/>
   </g>
   <g id="PathCollection_9">
    <path clip-path="url(#pd9bb43c220)" d="M 270.429091 156.263596 
L 288.465455 155.246489 
L 306.501818 150.937328 
L 318.362327 145.152 
L 324.538182 135.693572 
L 331.319905 127.872 
L 324.538182 116.055757 
L 320.811578 110.592 
L 324.538182 105.481618 
L 331.216074 93.312 
L 324.538182 86.054617 
L 318.952367 76.032 
L 306.501818 65.284988 
L 296.850501 58.752 
L 288.465455 50.94416 
L 275.49538 41.472 
L 270.429091 41.472 
L 252.392727 41.472 
L 252.392727 58.752 
L 252.392727 76.032 
L 252.392727 76.334316 
L 270.429091 84.270259 
L 279.226155 93.312 
L 288.465455 108.179667 
L 292.844849 110.592 
L 288.465455 114.091673 
L 270.429091 124.182582 
L 261.746703 127.872 
L 252.392727 137.196093 
L 252.392727 145.152 
L 252.392727 149.012452 
z
M 263.380548 145.152 
L 270.429091 138.121949 
L 288.465455 141.316355 
L 292.66258 145.152 
L 288.465455 146.132333 
L 270.429091 148.149255 
z
M 289.371856 93.312 
L 288.465455 92.260466 
L 275.591582 76.032 
L 288.465455 68.545097 
L 304.131784 76.032 
L 306.501818 77.932033 
L 313.788987 93.312 
L 306.501818 101.632623 
z
" style="fill:#d0edca;"/>
    <path clip-path="url(#pd9bb43c220)" d="M 378.647273 66.443409 
L 389.537654 58.752 
L 391.632746 41.472 
L 378.647273 41.472 
L 360.610909 41.472 
L 342.574545 41.472 
L 341.167495 41.472 
L 342.574545 42.843457 
L 360.610909 51.55238 
L 367.175348 58.752 
z
" style="fill:#d0edca;"/>
   </g>
   <g id="PathCollection_10">
    <path clip-path="url(#pd9bb43c220)" d="M 270.429091 162.432 
L 288.465455 162.432 
L 296.194548 162.432 
L 306.501818 159.90216 
L 324.538182 153.060041 
L 333.321241 145.152 
L 342.574545 135.390999 
L 360.610909 139.172644 
L 378.647273 138.410363 
L 384.706496 127.872 
L 381.743971 110.592 
L 378.647273 101.901543 
L 360.610909 97.020578 
L 355.008572 93.312 
L 342.574545 83.762855 
L 335.323166 76.032 
L 324.538182 65.88646 
L 315.751369 58.752 
L 306.501818 50.681508 
L 296.553168 41.472 
L 288.465455 41.472 
L 275.49538 41.472 
L 288.465455 50.94416 
L 296.850501 58.752 
L 306.501818 65.284988 
L 318.952367 76.032 
L 324.538182 86.054617 
L 331.216074 93.312 
L 324.538182 105.481618 
L 320.811578 110.592 
L 324.538182 116.055757 
L 331.319905 127.872 
L 324.538182 135.693572 
L 318.362327 145.152 
L 306.501818 150.937328 
L 288.465455 155.246489 
L 270.429091 156.263596 
L 252.392727 149.012452 
L 252.392727 158.113308 
L 264.374112 162.432 
z
" style="fill:#a7dba0;"/>
    <path clip-path="url(#pd9bb43c220)" d="M 261.746703 127.872 
L 270.429091 124.182582 
L 288.465455 114.091673 
L 292.844849 110.592 
L 288.465455 108.179667 
L 279.226155 93.312 
L 270.429091 84.270259 
L 252.392727 76.334316 
L 252.392727 86.184998 
L 268.805545 93.312 
L 270.429091 94.915276 
L 278.616616 110.592 
L 270.429091 116.187145 
L 252.392727 122.885984 
L 252.392727 127.872 
L 252.392727 137.196093 
z
" style="fill:#a7dba0;"/>
    <path clip-path="url(#pd9bb43c220)" d="M 360.610909 65.653822 
L 378.647273 75.944814 
L 396.683636 64.764502 
L 401.036103 58.752 
L 401.967847 41.472 
L 396.683636 41.472 
L 391.632746 41.472 
L 389.537654 58.752 
L 378.647273 66.443409 
L 367.175348 58.752 
L 360.610909 51.55238 
L 342.574545 42.843457 
L 341.167495 41.472 
L 326.761013 41.472 
L 342.574545 56.885504 
L 346.154344 58.752 
z
" style="fill:#a7dba0;"/>
   </g>
   <g id="PathCollection_11">
    <path clip-path="url(#pd9bb43c220)" d="M 252.392727 158.113308 
L 252.392727 162.432 
L 264.374112 162.432 
z
" style="fill:#73c476;"/>
    <path clip-path="url(#pd9bb43c220)" d="M 306.501818 162.432 
L 324.538182 162.432 
L 342.574545 162.432 
L 360.610909 162.432 
L 378.647273 162.432 
L 396.683636 162.432 
L 401.211168 162.432 
L 396.683636 154.989358 
L 389.337888 145.152 
L 395.156402 127.872 
L 396.633711 110.592 
L 396.683636 110.032299 
L 398.706351 93.312 
L 399.77256 76.032 
L 410.319864 58.752 
L 410.239577 41.472 
L 401.967847 41.472 
L 401.036103 58.752 
L 396.683636 64.764502 
L 378.647273 75.944814 
L 360.610909 65.653822 
L 346.154344 58.752 
L 342.574545 56.885504 
L 326.761013 41.472 
L 324.538182 41.472 
L 306.501818 41.472 
L 296.553168 41.472 
L 306.501818 50.681508 
L 315.751369 58.752 
L 324.538182 65.88646 
L 335.323166 76.032 
L 342.574545 83.762855 
L 355.008572 93.312 
L 360.610909 97.020578 
L 378.647273 101.901543 
L 381.743971 110.592 
L 384.706496 127.872 
L 378.647273 138.410363 
L 360.610909 139.172644 
L 342.574545 135.390999 
L 333.321241 145.152 
L 324.538182 153.060041 
L 306.501818 159.90216 
L 296.194548 162.432 
z
" style="fill:#73c476;"/>
    <path clip-path="url(#pd9bb43c220)" d="M 270.429091 116.187145 
L 278.616616 110.592 
L 270.429091 94.915276 
L 268.805545 93.312 
L 252.392727 86.184998 
L 252.392727 93.312 
L 252.392727 102.564039 
L 260.404232 110.592 
L 252.392727 112.970802 
L 252.392727 122.885984 
z
" style="fill:#73c476;"/>
   </g>
   <g id="PathCollection_12">
    <path clip-path="url(#pd9bb43c220)" d="M 396.683636 154.989358 
L 401.211168 162.432 
L 414.72 162.432 
L 414.72 162.053111 
L 402.890229 145.152 
L 404.657934 127.872 
L 410.081172 110.592 
L 414.72 99.790942 
L 414.72 93.312 
L 414.72 76.032 
L 414.72 58.752 
L 414.72 41.472 
L 410.239577 41.472 
L 410.319864 58.752 
L 399.77256 76.032 
L 398.706351 93.312 
L 396.683636 110.032299 
L 396.633711 110.592 
L 395.156402 127.872 
L 389.337888 145.152 
z
" style="fill:#3da65a;"/>
    <path clip-path="url(#pd9bb43c220)" d="M 260.404232 110.592 
L 252.392727 102.564039 
L 252.392727 110.592 
L 252.392727 112.970802 
z
" style="fill:#3da65a;"/>
   </g>
   <g id="PathCollection_13">
    <path clip-path="url(#pd9bb43c220)" d="M 414.72 162.053111 
L 414.72 146.43492 
L 413.822032 145.152 
L 413.99714 127.872 
L 414.72 126.045628 
L 414.72 110.592 
L 414.72 99.790942 
L 410.081172 110.592 
L 404.657934 127.872 
L 402.890229 145.152 
z
" style="fill:#18823d;"/>
   </g>
   <g id="PathCollection_14">
    <path clip-path="url(#pd9bb43c220)" d="M 414.72 146.43492 
L 414.72 145.152 
L 414.72 127.872 
L 414.72 126.045628 
L 413.99714 127.872 
L 413.822032 145.152 
z
" style="fill:#005b25;"/>
   </g>
   <g id="matplotlib.axis_3">
    <g id="xtick_7">
     <g id="line2d_12">
      <g>
       <use style="stroke:#000000;stroke-width:0.8;" x="252.392727" xlink:href="#md7234748fa" y="162.432"/>
      </g>
     </g>
     <g id="text_12">
      <!-- 0 -->
      <g transform="translate(249.211477 177.030437)scale(0.1 -0.1)">
       <use xlink:href="#DejaVuSans-30"/>
      </g>
     </g>
    </g>
    <g id="xtick_8">
     <g id="line2d_13">
      <g>
       <use style="stroke:#000000;stroke-width:0.8;" x="284.858182" xlink:href="#md7234748fa" y="162.432"/>
      </g>
     </g>
     <g id="text_13">
      <!-- 2 -->
      <g transform="translate(281.676932 177.030437)scale(0.1 -0.1)">
       <use xlink:href="#DejaVuSans-32"/>
      </g>
     </g>
    </g>
    <g id="xtick_9">
     <g id="line2d_14">
      <g>
       <use style="stroke:#000000;stroke-width:0.8;" x="317.323636" xlink:href="#md7234748fa" y="162.432"/>
      </g>
     </g>
     <g id="text_14">
      <!-- 4 -->
      <g transform="translate(314.142386 177.030437)scale(0.1 -0.1)">
       <use xlink:href="#DejaVuSans-34"/>
      </g>
     </g>
    </g>
    <g id="xtick_10">
     <g id="line2d_15">
      <g>
       <use style="stroke:#000000;stroke-width:0.8;" x="349.789091" xlink:href="#md7234748fa" y="162.432"/>
      </g>
     </g>
     <g id="text_15">
      <!-- 6 -->
      <g transform="translate(346.607841 177.030437)scale(0.1 -0.1)">
       <use xlink:href="#DejaVuSans-36"/>
      </g>
     </g>
    </g>
    <g id="xtick_11">
     <g id="line2d_16">
      <g>
       <use style="stroke:#000000;stroke-width:0.8;" x="382.254545" xlink:href="#md7234748fa" y="162.432"/>
      </g>
     </g>
     <g id="text_16">
      <!-- 8 -->
      <g transform="translate(379.073295 177.030437)scale(0.1 -0.1)">
       <use xlink:href="#DejaVuSans-38"/>
      </g>
     </g>
    </g>
    <g id="xtick_12">
     <g id="line2d_17">
      <g>
       <use style="stroke:#000000;stroke-width:0.8;" x="414.72" xlink:href="#md7234748fa" y="162.432"/>
      </g>
     </g>
     <g id="text_17">
      <!-- 10 -->
      <g transform="translate(408.3575 177.030437)scale(0.1 -0.1)">
       <use xlink:href="#DejaVuSans-31"/>
       <use x="63.623047" xlink:href="#DejaVuSans-30"/>
      </g>
     </g>
    </g>
   </g>
   <g id="matplotlib.axis_4">
    <g id="ytick_6">
     <g id="line2d_18">
      <g>
       <use style="stroke:#000000;stroke-width:0.8;" x="252.392727" xlink:href="#maea755377c" y="162.432"/>
      </g>
     </g>
     <g id="text_18">
      <!-- 0 -->
      <g transform="translate(239.030227 166.231219)scale(0.1 -0.1)">
       <use xlink:href="#DejaVuSans-30"/>
      </g>
     </g>
    </g>
    <g id="ytick_7">
     <g id="line2d_19">
      <g>
       <use style="stroke:#000000;stroke-width:0.8;" x="252.392727" xlink:href="#maea755377c" y="132.192"/>
      </g>
     </g>
     <g id="text_19">
      <!-- 2 -->
      <g transform="translate(239.030227 135.991219)scale(0.1 -0.1)">
       <use xlink:href="#DejaVuSans-32"/>
      </g>
     </g>
    </g>
    <g id="ytick_8">
     <g id="line2d_20">
      <g>
       <use style="stroke:#000000;stroke-width:0.8;" x="252.392727" xlink:href="#maea755377c" y="101.952"/>
      </g>
     </g>
     <g id="text_20">
      <!-- 4 -->
      <g transform="translate(239.030227 105.751219)scale(0.1 -0.1)">
       <use xlink:href="#DejaVuSans-34"/>
      </g>
     </g>
    </g>
    <g id="ytick_9">
     <g id="line2d_21">
      <g>
       <use style="stroke:#000000;stroke-width:0.8;" x="252.392727" xlink:href="#maea755377c" y="71.712"/>
      </g>
     </g>
     <g id="text_21">
      <!-- 6 -->
      <g transform="translate(239.030227 75.511219)scale(0.1 -0.1)">
       <use xlink:href="#DejaVuSans-36"/>
      </g>
     </g>
    </g>
    <g id="ytick_10">
     <g id="line2d_22">
      <g>
       <use style="stroke:#000000;stroke-width:0.8;" x="252.392727" xlink:href="#maea755377c" y="41.472"/>
      </g>
     </g>
     <g id="text_22">
      <!-- 8 -->
      <g transform="translate(239.030227 45.271219)scale(0.1 -0.1)">
       <use xlink:href="#DejaVuSans-38"/>
      </g>
     </g>
    </g>
   </g>
   <g id="patch_8">
    <path d="M 252.392727 162.432 
L 252.392727 41.472 
" style="fill:none;stroke:#000000;stroke-linecap:square;stroke-linejoin:miter;stroke-width:0.8;"/>
   </g>
   <g id="patch_9">
    <path d="M 414.72 162.432 
L 414.72 41.472 
" style="fill:none;stroke:#000000;stroke-linecap:square;stroke-linejoin:miter;stroke-width:0.8;"/>
   </g>
   <g id="patch_10">
    <path d="M 252.392727 162.432 
L 414.72 162.432 
" style="fill:none;stroke:#000000;stroke-linecap:square;stroke-linejoin:miter;stroke-width:0.8;"/>
   </g>
   <g id="patch_11">
    <path d="M 252.392727 41.472 
L 414.72 41.472 
" style="fill:none;stroke:#000000;stroke-linecap:square;stroke-linejoin:miter;stroke-width:0.8;"/>
   </g>
  </g>
  <g id="axes_3">
   <g id="patch_12">
    <path d="M 57.6 307.584 
L 219.927273 307.584 
L 219.927273 186.624 
L 57.6 186.624 
z
" style="fill:#ffffff;"/>
   </g>
   <g id="PathCollection_15">
    <path clip-path="url(#p5cf185351a)" d="M 129.745455 204.23167 
L 130.203242 203.904 
L 139.163863 186.624 
L 129.745455 186.624 
L 124.656306 186.624 
L 128.729186 203.904 
z
" style="fill:#eef8ea;"/>
   </g>
   <g id="PathCollection_16">
    <path clip-path="url(#p5cf185351a)" d="M 75.636364 307.584 
L 77.250295 307.584 
L 79.882115 290.304 
L 75.636364 278.522898 
L 67.85781 290.304 
L 64.299697 307.584 
z
" style="fill:#d6efd0;"/>
    <path clip-path="url(#p5cf185351a)" d="M 219.927273 226.898973 
L 219.927273 221.184 
L 219.927273 214.162187 
L 209.437199 221.184 
z
" style="fill:#d6efd0;"/>
    <path clip-path="url(#p5cf185351a)" d="M 111.709091 206.516718 
L 129.745455 212.430633 
L 141.658015 203.904 
L 147.781818 194.625904 
L 155.578606 186.624 
L 147.781818 186.624 
L 139.163863 186.624 
L 130.203242 203.904 
L 129.745455 204.23167 
L 128.729186 203.904 
L 124.656306 186.624 
L 116.015754 186.624 
L 111.709091 197.011982 
L 109.848348 203.904 
z
" style="fill:#d6efd0;"/>
   </g>
   <g id="PathCollection_17">
    <path clip-path="url(#p5cf185351a)" d="M 67.85781 290.304 
L 75.636364 278.522898 
L 79.882115 290.304 
L 77.250295 307.584 
L 91.45035 307.584 
L 87.148305 290.304 
L 80.835095 273.024 
L 75.636364 267.410948 
L 57.6 265.160836 
L 57.6 273.024 
L 57.6 290.304 
L 57.6 307.584 
L 64.299697 307.584 
z
" style="fill:#b4e1ad;"/>
    <path clip-path="url(#p5cf185351a)" d="M 165.818182 280.085051 
L 183.854545 277.910362 
L 191.493005 273.024 
L 183.854545 268.397821 
L 165.818182 266.691787 
L 153.555366 273.024 
z
" style="fill:#b4e1ad;"/>
    <path clip-path="url(#p5cf185351a)" d="M 129.745455 256.562823 
L 130.237371 255.744 
L 129.745455 255.429655 
L 127.823759 255.744 
z
" style="fill:#b4e1ad;"/>
    <path clip-path="url(#p5cf185351a)" d="M 201.890909 225.672502 
L 219.927273 234.38196 
L 219.927273 226.898973 
L 209.437199 221.184 
L 219.927273 214.162187 
L 219.927273 204.968069 
L 201.890909 216.801212 
L 195.377112 221.184 
z
" style="fill:#b4e1ad;"/>
    <path clip-path="url(#p5cf185351a)" d="M 111.709091 214.417641 
L 129.745455 220.629597 
L 147.781818 210.088668 
L 155.072264 203.904 
L 165.818182 192.932915 
L 169.49674 186.624 
L 165.818182 186.624 
L 155.578606 186.624 
L 147.781818 194.625904 
L 141.658015 203.904 
L 129.745455 212.430633 
L 111.709091 206.516718 
L 109.848348 203.904 
L 111.709091 197.011982 
L 116.015754 186.624 
L 111.709091 186.624 
L 108.506827 186.624 
L 104.221417 203.904 
z
" style="fill:#b4e1ad;"/>
   </g>
   <g id="PathCollection_18">
    <path clip-path="url(#p5cf185351a)" d="M 93.672727 307.584 
L 111.709091 307.584 
L 121.97307 307.584 
L 111.709091 302.934657 
L 94.830004 290.304 
L 93.672727 288.339567 
L 87.983405 273.024 
L 93.672727 257.114406 
L 111.709091 261.740265 
L 125.165091 273.024 
L 129.745455 278.49955 
L 147.781818 277.899509 
L 165.818182 289.555238 
L 183.854545 286.818668 
L 201.890909 275.954063 
L 219.927273 274.041425 
L 219.927273 273.024 
L 219.927273 255.744 
L 219.927273 238.464 
L 219.927273 234.38196 
L 201.890909 225.672502 
L 195.377112 221.184 
L 201.890909 216.801212 
L 219.927273 204.968069 
L 219.927273 203.904 
L 219.927273 198.461286 
L 206.748772 203.904 
L 201.890909 207.074503 
L 183.854545 214.786033 
L 178.800502 221.184 
L 183.854545 224.432411 
L 201.890909 235.633824 
L 208.828872 238.464 
L 217.100227 255.744 
L 201.890909 266.068145 
L 183.854545 259.963854 
L 165.818182 258.199108 
L 153.370672 255.744 
L 155.56295 238.464 
L 152.120062 221.184 
L 165.818182 210.40045 
L 174.410577 203.904 
L 178.822052 186.624 
L 169.49674 186.624 
L 165.818182 192.932915 
L 155.072264 203.904 
L 147.781818 210.088668 
L 129.745455 220.629597 
L 111.709091 214.417641 
L 104.221417 203.904 
L 108.506827 186.624 
L 102.122416 186.624 
L 98.594485 203.904 
L 110.746536 221.184 
L 111.709091 222.976711 
L 129.745455 234.081194 
L 138.7904 238.464 
L 129.745455 242.546119 
L 111.709091 248.993117 
L 93.672727 255.036983 
L 91.54159 255.744 
L 75.636364 259.692942 
L 57.6 256.180127 
L 57.6 265.160836 
L 75.636364 267.410948 
L 80.835095 273.024 
L 87.148305 290.304 
L 91.45035 307.584 
z
M 153.555366 273.024 
L 165.818182 266.691787 
L 183.854545 268.397821 
L 191.493005 273.024 
L 183.854545 277.910362 
L 165.818182 280.085051 
z
M 127.823759 255.744 
L 129.745455 255.429655 
L 130.237371 255.744 
L 129.745455 256.562823 
z
" style="fill:#8ace88;"/>
   </g>
   <g id="PathCollection_19">
    <path clip-path="url(#p5cf185351a)" d="M 111.709091 302.934657 
L 121.97307 307.584 
L 129.745455 307.584 
L 134.227765 307.584 
L 129.745455 292.792086 
L 111.709091 294.451585 
L 106.16643 290.304 
L 98.925085 273.024 
L 111.709091 269.278956 
L 116.175105 273.024 
L 129.745455 289.246541 
L 147.781818 285.412376 
L 155.252054 290.304 
L 165.818182 298.137357 
L 183.854545 295.911789 
L 196.780703 290.304 
L 201.890909 287.520398 
L 219.927273 289.110563 
L 219.927273 274.041425 
L 201.890909 275.954063 
L 183.854545 286.818668 
L 165.818182 289.555238 
L 147.781818 277.899509 
L 129.745455 278.49955 
L 125.165091 273.024 
L 111.709091 261.740265 
L 93.672727 257.114406 
L 87.983405 273.024 
L 93.672727 288.339567 
L 94.830004 290.304 
z
" style="fill:#5ab769;"/>
    <path clip-path="url(#p5cf185351a)" d="M 75.636364 259.692942 
L 91.54159 255.744 
L 93.672727 255.036983 
L 111.709091 248.993117 
L 129.745455 242.546119 
L 138.7904 238.464 
L 129.745455 234.081194 
L 111.709091 222.976711 
L 110.746536 221.184 
L 98.594485 203.904 
L 102.122416 186.624 
L 95.738005 186.624 
L 93.672727 199.078896 
L 92.503008 203.904 
L 93.672727 205.198814 
L 104.043454 221.184 
L 111.709091 235.460865 
L 116.406194 238.464 
L 111.709091 240.505698 
L 93.672727 244.724045 
L 75.636364 242.739852 
L 67.493555 238.464 
L 57.6 234.376025 
L 57.6 238.464 
L 57.6 255.744 
L 57.6 256.180127 
z
" style="fill:#5ab769;"/>
    <path clip-path="url(#p5cf185351a)" d="M 165.818182 258.199108 
L 183.854545 259.963854 
L 201.890909 266.068145 
L 217.100227 255.744 
L 208.828872 238.464 
L 201.890909 235.633824 
L 183.854545 224.432411 
L 178.800502 221.184 
L 183.854545 214.786033 
L 201.890909 207.074503 
L 206.748772 203.904 
L 219.927273 198.461286 
L 219.927273 192.306223 
L 201.890909 198.932609 
L 187.754085 186.624 
L 183.854545 186.624 
L 178.822052 186.624 
L 174.410577 203.904 
L 165.818182 210.40045 
L 152.120062 221.184 
L 155.56295 238.464 
L 153.370672 255.744 
z
" style="fill:#5ab769;"/>
   </g>
   <g id="PathCollection_20">
    <path clip-path="url(#p5cf185351a)" d="M 111.709091 294.451585 
L 129.745455 292.792086 
L 134.227765 307.584 
L 141.890196 307.584 
L 147.781818 295.697642 
L 165.818182 306.643233 
L 183.854545 305.12369 
L 189.813016 307.584 
L 201.890909 307.584 
L 219.927273 307.584 
L 219.927273 290.304 
L 219.927273 289.110563 
L 201.890909 287.520398 
L 196.780703 290.304 
L 183.854545 295.911789 
L 165.818182 298.137357 
L 155.252054 290.304 
L 147.781818 285.412376 
L 129.745455 289.246541 
L 116.175105 273.024 
L 111.709091 269.278956 
L 98.925085 273.024 
L 106.16643 290.304 
z
" style="fill:#319a50;"/>
    <path clip-path="url(#p5cf185351a)" d="M 75.636364 242.739852 
L 93.672727 244.724045 
L 111.709091 240.505698 
L 116.406194 238.464 
L 111.709091 235.460865 
L 104.043454 221.184 
L 93.672727 205.198814 
L 92.503008 203.904 
L 93.672727 199.078896 
L 95.738005 186.624 
L 93.672727 186.624 
L 78.305141 186.624 
L 83.169234 203.904 
L 93.672727 215.53078 
L 97.340373 221.184 
L 93.672727 231.2408 
L 75.636364 227.313742 
L 65.63118 221.184 
L 57.6 216.878476 
L 57.6 221.184 
L 57.6 234.376025 
L 67.493555 238.464 
z
" style="fill:#319a50;"/>
    <path clip-path="url(#p5cf185351a)" d="M 201.890909 198.932609 
L 219.927273 192.306223 
L 219.927273 186.624 
L 218.069119 186.624 
L 201.890909 191.557113 
L 196.225073 186.624 
L 187.754085 186.624 
z
" style="fill:#319a50;"/>
   </g>
   <g id="PathCollection_21">
    <path clip-path="url(#p5cf185351a)" d="M 147.781818 307.584 
L 165.818182 307.584 
L 183.854545 307.584 
L 189.813016 307.584 
L 183.854545 305.12369 
L 165.818182 306.643233 
L 147.781818 295.697642 
L 141.890196 307.584 
z
" style="fill:#117b38;"/>
    <path clip-path="url(#p5cf185351a)" d="M 75.636364 227.313742 
L 93.672727 231.2408 
L 97.340373 221.184 
L 93.672727 215.53078 
L 83.169234 203.904 
L 78.305141 186.624 
L 75.636364 186.624 
L 57.6 186.624 
L 57.6 200.617739 
L 64.381009 203.904 
L 57.6 205.255137 
L 57.6 216.878476 
L 65.63118 221.184 
z
" style="fill:#117b38;"/>
    <path clip-path="url(#p5cf185351a)" d="M 201.890909 191.557113 
L 218.069119 186.624 
L 201.890909 186.624 
L 196.225073 186.624 
z
" style="fill:#117b38;"/>
   </g>
   <g id="PathCollection_22">
    <path clip-path="url(#p5cf185351a)" d="M 64.381009 203.904 
L 57.6 200.617739 
L 57.6 203.904 
L 57.6 205.255137 
z
" style="fill:#005723;"/>
   </g>
   <g id="matplotlib.axis_5">
    <g id="xtick_13">
     <g id="line2d_23">
      <g>
       <use style="stroke:#000000;stroke-width:0.8;" x="57.6" xlink:href="#md7234748fa" y="307.584"/>
      </g>
     </g>
     <g id="text_23">
      <!-- 0 -->
      <g transform="translate(54.41875 322.182437)scale(0.1 -0.1)">
       <use xlink:href="#DejaVuSans-30"/>
      </g>
     </g>
    </g>
    <g id="xtick_14">
     <g id="line2d_24">
      <g>
       <use style="stroke:#000000;stroke-width:0.8;" x="90.065455" xlink:href="#md7234748fa" y="307.584"/>
      </g>
     </g>
     <g id="text_24">
      <!-- 2 -->
      <g transform="translate(86.884205 322.182437)scale(0.1 -0.1)">
       <use xlink:href="#DejaVuSans-32"/>
      </g>
     </g>
    </g>
    <g id="xtick_15">
     <g id="line2d_25">
      <g>
       <use style="stroke:#000000;stroke-width:0.8;" x="122.530909" xlink:href="#md7234748fa" y="307.584"/>
      </g>
     </g>
     <g id="text_25">
      <!-- 4 -->
      <g transform="translate(119.349659 322.182437)scale(0.1 -0.1)">
       <use xlink:href="#DejaVuSans-34"/>
      </g>
     </g>
    </g>
    <g id="xtick_16">
     <g id="line2d_26">
      <g>
       <use style="stroke:#000000;stroke-width:0.8;" x="154.996364" xlink:href="#md7234748fa" y="307.584"/>
      </g>
     </g>
     <g id="text_26">
      <!-- 6 -->
      <g transform="translate(151.815114 322.182437)scale(0.1 -0.1)">
       <use xlink:href="#DejaVuSans-36"/>
      </g>
     </g>
    </g>
    <g id="xtick_17">
     <g id="line2d_27">
      <g>
       <use style="stroke:#000000;stroke-width:0.8;" x="187.461818" xlink:href="#md7234748fa" y="307.584"/>
      </g>
     </g>
     <g id="text_27">
      <!-- 8 -->
      <g transform="translate(184.280568 322.182437)scale(0.1 -0.1)">
       <use xlink:href="#DejaVuSans-38"/>
      </g>
     </g>
    </g>
    <g id="xtick_18">
     <g id="line2d_28">
      <g>
       <use style="stroke:#000000;stroke-width:0.8;" x="219.927273" xlink:href="#md7234748fa" y="307.584"/>
      </g>
     </g>
     <g id="text_28">
      <!-- 10 -->
      <g transform="translate(213.564773 322.182437)scale(0.1 -0.1)">
       <use xlink:href="#DejaVuSans-31"/>
       <use x="63.623047" xlink:href="#DejaVuSans-30"/>
      </g>
     </g>
    </g>
   </g>
   <g id="matplotlib.axis_6">
    <g id="ytick_11">
     <g id="line2d_29">
      <g>
       <use style="stroke:#000000;stroke-width:0.8;" x="57.6" xlink:href="#maea755377c" y="307.584"/>
      </g>
     </g>
     <g id="text_29">
      <!-- 0 -->
      <g transform="translate(44.2375 311.383219)scale(0.1 -0.1)">
       <use xlink:href="#DejaVuSans-30"/>
      </g>
     </g>
    </g>
    <g id="ytick_12">
     <g id="line2d_30">
      <g>
       <use style="stroke:#000000;stroke-width:0.8;" x="57.6" xlink:href="#maea755377c" y="277.344"/>
      </g>
     </g>
     <g id="text_30">
      <!-- 2 -->
      <g transform="translate(44.2375 281.143219)scale(0.1 -0.1)">
       <use xlink:href="#DejaVuSans-32"/>
      </g>
     </g>
    </g>
    <g id="ytick_13">
     <g id="line2d_31">
      <g>
       <use style="stroke:#000000;stroke-width:0.8;" x="57.6" xlink:href="#maea755377c" y="247.104"/>
      </g>
     </g>
     <g id="text_31">
      <!-- 4 -->
      <g transform="translate(44.2375 250.903219)scale(0.1 -0.1)">
       <use xlink:href="#DejaVuSans-34"/>
      </g>
     </g>
    </g>
    <g id="ytick_14">
     <g id="line2d_32">
      <g>
       <use style="stroke:#000000;stroke-width:0.8;" x="57.6" xlink:href="#maea755377c" y="216.864"/>
      </g>
     </g>
     <g id="text_32">
      <!-- 6 -->
      <g transform="translate(44.2375 220.663219)scale(0.1 -0.1)">
       <use xlink:href="#DejaVuSans-36"/>
      </g>
     </g>
    </g>
    <g id="ytick_15">
     <g id="line2d_33">
      <g>
       <use style="stroke:#000000;stroke-width:0.8;" x="57.6" xlink:href="#maea755377c" y="186.624"/>
      </g>
     </g>
     <g id="text_33">
      <!-- 8 -->
      <g transform="translate(44.2375 190.423219)scale(0.1 -0.1)">
       <use xlink:href="#DejaVuSans-38"/>
      </g>
     </g>
    </g>
   </g>
   <g id="patch_13">
    <path d="M 57.6 307.584 
L 57.6 186.624 
" style="fill:none;stroke:#000000;stroke-linecap:square;stroke-linejoin:miter;stroke-width:0.8;"/>
   </g>
   <g id="patch_14">
    <path d="M 219.927273 307.584 
L 219.927273 186.624 
" style="fill:none;stroke:#000000;stroke-linecap:square;stroke-linejoin:miter;stroke-width:0.8;"/>
   </g>
   <g id="patch_15">
    <path d="M 57.6 307.584 
L 219.927273 307.584 
" style="fill:none;stroke:#000000;stroke-linecap:square;stroke-linejoin:miter;stroke-width:0.8;"/>
   </g>
   <g id="patch_16">
    <path d="M 57.6 186.624 
L 219.927273 186.624 
" style="fill:none;stroke:#000000;stroke-linecap:square;stroke-linejoin:miter;stroke-width:0.8;"/>
   </g>
  </g>
  <g id="axes_4">
   <g id="patch_17">
    <path d="M 252.392727 307.584 
L 414.72 307.584 
L 414.72 186.624 
L 252.392727 186.624 
z
" style="fill:#ffffff;"/>
   </g>
   <g id="PathCollection_23">
    <path clip-path="url(#p53dd9c3459)" d="M 288.465455 291.014638 
L 288.677957 290.304 
L 288.465455 290.105973 
L 287.989739 290.304 
z
" style="fill:#eef8ea;"/>
    <path clip-path="url(#p53dd9c3459)" d="M 306.501818 244.965958 
L 316.690611 238.464 
L 306.501818 234.748185 
L 292.667209 238.464 
z
" style="fill:#eef8ea;"/>
   </g>
   <g id="PathCollection_24">
    <path clip-path="url(#p53dd9c3459)" d="M 270.429091 307.584 
L 288.465455 307.584 
L 292.305764 307.584 
L 298.335906 290.304 
L 288.465455 281.105911 
L 270.429091 288.714734 
L 269.318641 290.304 
L 264.752461 307.584 
z
M 287.989739 290.304 
L 288.465455 290.105973 
L 288.677957 290.304 
L 288.465455 291.014638 
z
" style="fill:#d6efd0;"/>
    <path clip-path="url(#p53dd9c3459)" d="M 306.501818 257.985358 
L 309.131298 255.744 
L 324.538182 244.983325 
L 333.798121 238.464 
L 324.538182 221.681118 
L 306.501818 227.29537 
L 288.465455 228.19032 
L 276.838113 221.184 
L 270.429091 217.157422 
L 261.249602 221.184 
L 252.392727 227.788411 
L 252.392727 238.464 
L 252.392727 242.206599 
L 270.429091 246.860216 
L 288.465455 252.214109 
L 298.504851 255.744 
z
M 292.667209 238.464 
L 306.501818 234.748185 
L 316.690611 238.464 
L 306.501818 244.965958 
z
" style="fill:#d6efd0;"/>
   </g>
   <g id="PathCollection_25">
    <path clip-path="url(#p53dd9c3459)" d="M 269.318641 290.304 
L 270.429091 288.714734 
L 288.465455 281.105911 
L 298.335906 290.304 
L 292.305764 307.584 
L 300.191788 307.584 
L 306.501818 293.100391 
L 307.603502 290.304 
L 306.501818 281.929634 
L 295.37483 273.024 
L 306.501818 270.901952 
L 324.284578 255.744 
L 324.538182 255.566875 
L 342.574545 244.635066 
L 352.109149 255.744 
L 360.610909 262.101132 
L 378.647273 268.639163 
L 392.669943 255.744 
L 380.605965 238.464 
L 378.647273 236.618945 
L 360.610909 233.424615 
L 350.300571 221.184 
L 342.574545 215.34232 
L 324.538182 209.861733 
L 306.501818 218.616191 
L 288.465455 214.21614 
L 270.429091 204.53419 
L 252.392727 211.195926 
L 252.392727 221.184 
L 252.392727 227.788411 
L 261.249602 221.184 
L 270.429091 217.157422 
L 276.838113 221.184 
L 288.465455 228.19032 
L 306.501818 227.29537 
L 324.538182 221.681118 
L 333.798121 238.464 
L 324.538182 244.983325 
L 309.131298 255.744 
L 306.501818 257.985358 
L 298.504851 255.744 
L 288.465455 252.214109 
L 270.429091 246.860216 
L 252.392727 242.206599 
L 252.392727 249.729546 
L 265.886589 255.744 
L 270.429091 259.884892 
L 286.540727 273.024 
L 270.429091 280.251384 
L 263.405139 290.304 
L 257.913846 307.584 
L 264.752461 307.584 
z
" style="fill:#b4e1ad;"/>
    <path clip-path="url(#p53dd9c3459)" d="M 414.72 284.119741 
L 414.72 273.024 
L 414.72 264.639394 
L 397.633736 273.024 
z
" style="fill:#b4e1ad;"/>
   </g>
   <g id="PathCollection_26">
    <path clip-path="url(#p53dd9c3459)" d="M 263.405139 290.304 
L 270.429091 280.251384 
L 286.540727 273.024 
L 270.429091 259.884892 
L 265.886589 255.744 
L 252.392727 249.729546 
L 252.392727 255.744 
L 252.392727 257.436595 
L 269.107243 273.024 
L 257.491638 290.304 
L 252.392727 304.428181 
L 252.392727 307.584 
L 257.913846 307.584 
z
" style="fill:#8ace88;"/>
    <path clip-path="url(#p53dd9c3459)" d="M 306.501818 307.584 
L 308.115624 307.584 
L 314.734699 290.304 
L 319.774677 273.024 
L 324.538182 268.985034 
L 342.574545 258.243678 
L 360.610909 271.617344 
L 363.784989 273.024 
L 378.647273 278.919758 
L 396.683636 285.017395 
L 404.653601 290.304 
L 414.72 294.095799 
L 414.72 290.304 
L 414.72 284.119741 
L 397.633736 273.024 
L 414.72 264.639394 
L 414.72 255.744 
L 414.72 254.919667 
L 396.683636 247.212139 
L 389.742909 238.464 
L 378.647273 228.012101 
L 364.029743 221.184 
L 360.610909 217.994557 
L 342.574545 205.770603 
L 337.389956 203.904 
L 330.11414 186.624 
L 324.538182 186.624 
L 309.722628 186.624 
L 307.597257 203.904 
L 306.501818 204.349936 
L 305.119163 203.904 
L 288.465455 200.893013 
L 270.429091 198.080695 
L 252.392727 196.444862 
L 252.392727 203.904 
L 252.392727 211.195926 
L 270.429091 204.53419 
L 288.465455 214.21614 
L 306.501818 218.616191 
L 324.538182 209.861733 
L 342.574545 215.34232 
L 350.300571 221.184 
L 360.610909 233.424615 
L 378.647273 236.618945 
L 380.605965 238.464 
L 392.669943 255.744 
L 378.647273 268.639163 
L 360.610909 262.101132 
L 352.109149 255.744 
L 342.574545 244.635066 
L 324.538182 255.566875 
L 324.284578 255.744 
L 306.501818 270.901952 
L 295.37483 273.024 
L 306.501818 281.929634 
L 307.603502 290.304 
L 306.501818 293.100391 
L 300.191788 307.584 
z
" style="fill:#8ace88;"/>
    <path clip-path="url(#p53dd9c3459)" d="M 378.647273 192.726621 
L 393.264762 186.624 
L 378.647273 186.624 
L 374.250008 186.624 
z
" style="fill:#8ace88;"/>
   </g>
   <g id="PathCollection_27">
    <path clip-path="url(#p53dd9c3459)" d="M 257.491638 290.304 
L 269.107243 273.024 
L 252.392727 257.436595 
L 252.392727 265.877668 
L 260.055804 273.024 
L 252.392727 287.885854 
L 252.392727 290.304 
L 252.392727 304.428181 
z
" style="fill:#5ab769;"/>
    <path clip-path="url(#p53dd9c3459)" d="M 321.865897 290.304 
L 324.538182 284.279301 
L 335.210818 273.024 
L 342.574545 268.210023 
L 349.099367 273.024 
L 360.610909 278.940986 
L 378.647273 287.437965 
L 385.270069 290.304 
L 396.683636 297.973579 
L 414.72 301.241089 
L 414.72 294.095799 
L 404.653601 290.304 
L 396.683636 285.017395 
L 378.647273 278.919758 
L 363.784989 273.024 
L 360.610909 271.617344 
L 342.574545 258.243678 
L 324.538182 268.985034 
L 319.774677 273.024 
L 314.734699 290.304 
L 308.115624 307.584 
L 316.190855 307.584 
z
" style="fill:#5ab769;"/>
    <path clip-path="url(#p53dd9c3459)" d="M 396.683636 247.212139 
L 414.72 254.919667 
L 414.72 247.189338 
L 399.850241 238.464 
L 396.683636 232.458664 
L 384.31269 221.184 
L 391.621801 203.904 
L 396.683636 201.833234 
L 410.542189 203.904 
L 414.72 204.877232 
L 414.72 203.904 
L 414.72 190.706231 
L 414.493889 186.624 
L 396.683636 186.624 
L 393.264762 186.624 
L 378.647273 192.726621 
L 374.250008 186.624 
L 362.430033 186.624 
L 360.610909 194.582379 
L 342.574545 187.869468 
L 341.841286 186.624 
L 330.11414 186.624 
L 337.389956 203.904 
L 342.574545 205.770603 
L 360.610909 217.994557 
L 364.029743 221.184 
L 378.647273 228.012101 
L 389.742909 238.464 
z
" style="fill:#5ab769;"/>
    <path clip-path="url(#p53dd9c3459)" d="M 306.501818 204.349936 
L 307.597257 203.904 
L 309.722628 186.624 
L 306.501818 186.624 
L 296.880409 186.624 
L 288.465455 192.895599 
L 270.429091 191.951396 
L 257.557539 186.624 
L 252.392727 186.624 
L 252.392727 196.444862 
L 270.429091 198.080695 
L 288.465455 200.893013 
L 305.119163 203.904 
z
" style="fill:#5ab769;"/>
   </g>
   <g id="PathCollection_28">
    <path clip-path="url(#p53dd9c3459)" d="M 324.538182 306.700413 
L 330.359556 290.304 
L 342.574545 277.908346 
L 360.610909 285.884313 
L 369.441782 290.304 
L 360.610909 302.554637 
L 355.760959 307.584 
L 360.610909 307.584 
L 378.647273 307.584 
L 396.683636 307.584 
L 414.72 307.584 
L 414.72 301.241089 
L 396.683636 297.973579 
L 385.270069 290.304 
L 378.647273 287.437965 
L 360.610909 278.940986 
L 349.099367 273.024 
L 342.574545 268.210023 
L 335.210818 273.024 
L 324.538182 284.279301 
L 321.865897 290.304 
L 316.190855 307.584 
L 324.266086 307.584 
z
" style="fill:#319a50;"/>
    <path clip-path="url(#p53dd9c3459)" d="M 260.055804 273.024 
L 252.392727 265.877668 
L 252.392727 273.024 
L 252.392727 287.885854 
z
" style="fill:#319a50;"/>
    <path clip-path="url(#p53dd9c3459)" d="M 414.72 247.189338 
L 414.72 239.459009 
L 413.024301 238.464 
L 414.72 234.023095 
L 414.72 221.184 
L 414.72 204.877232 
L 410.542189 203.904 
L 396.683636 201.833234 
L 391.621801 203.904 
L 384.31269 221.184 
L 396.683636 232.458664 
L 399.850241 238.464 
z
" style="fill:#319a50;"/>
    <path clip-path="url(#p53dd9c3459)" d="M 270.429091 191.951396 
L 288.465455 192.895599 
L 296.880409 186.624 
L 288.465455 186.624 
L 270.429091 186.624 
L 257.557539 186.624 
z
" style="fill:#319a50;"/>
    <path clip-path="url(#p53dd9c3459)" d="M 342.574545 187.869468 
L 360.610909 194.582379 
L 362.430033 186.624 
L 360.610909 186.624 
L 342.574545 186.624 
L 341.841286 186.624 
z
" style="fill:#319a50;"/>
    <path clip-path="url(#p53dd9c3459)" d="M 414.72 190.706231 
L 414.72 186.624 
L 414.493889 186.624 
z
" style="fill:#319a50;"/>
   </g>
   <g id="PathCollection_29">
    <path clip-path="url(#p53dd9c3459)" d="M 324.538182 307.584 
L 342.574545 307.584 
L 355.760959 307.584 
L 360.610909 302.554637 
L 369.441782 290.304 
L 360.610909 285.884313 
L 342.574545 277.908346 
L 330.359556 290.304 
L 324.538182 306.700413 
L 324.266086 307.584 
z
M 339.669757 290.304 
L 342.574545 287.356248 
L 350.905653 290.304 
L 342.574545 299.267287 
z
" style="fill:#117b38;"/>
    <path clip-path="url(#p53dd9c3459)" d="M 414.72 239.459009 
L 414.72 238.464 
L 414.72 234.023095 
L 413.024301 238.464 
z
" style="fill:#117b38;"/>
   </g>
   <g id="PathCollection_30">
    <path clip-path="url(#p53dd9c3459)" d="M 342.574545 299.267287 
L 350.905653 290.304 
L 342.574545 287.356248 
L 339.669757 290.304 
z
" style="fill:#005723;"/>
   </g>
   <g id="matplotlib.axis_7">
    <g id="xtick_19">
     <g id="line2d_34">
      <g>
       <use style="stroke:#000000;stroke-width:0.8;" x="252.392727" xlink:href="#md7234748fa" y="307.584"/>
      </g>
     </g>
     <g id="text_34">
      <!-- 0 -->
      <g transform="translate(249.211477 322.182437)scale(0.1 -0.1)">
       <use xlink:href="#DejaVuSans-30"/>
      </g>
     </g>
    </g>
    <g id="xtick_20">
     <g id="line2d_35">
      <g>
       <use style="stroke:#000000;stroke-width:0.8;" x="284.858182" xlink:href="#md7234748fa" y="307.584"/>
      </g>
     </g>
     <g id="text_35">
      <!-- 2 -->
      <g transform="translate(281.676932 322.182437)scale(0.1 -0.1)">
       <use xlink:href="#DejaVuSans-32"/>
      </g>
     </g>
    </g>
    <g id="xtick_21">
     <g id="line2d_36">
      <g>
       <use style="stroke:#000000;stroke-width:0.8;" x="317.323636" xlink:href="#md7234748fa" y="307.584"/>
      </g>
     </g>
     <g id="text_36">
      <!-- 4 -->
      <g transform="translate(314.142386 322.182437)scale(0.1 -0.1)">
       <use xlink:href="#DejaVuSans-34"/>
      </g>
     </g>
    </g>
    <g id="xtick_22">
     <g id="line2d_37">
      <g>
       <use style="stroke:#000000;stroke-width:0.8;" x="349.789091" xlink:href="#md7234748fa" y="307.584"/>
      </g>
     </g>
     <g id="text_37">
      <!-- 6 -->
      <g transform="translate(346.607841 322.182437)scale(0.1 -0.1)">
       <use xlink:href="#DejaVuSans-36"/>
      </g>
     </g>
    </g>
    <g id="xtick_23">
     <g id="line2d_38">
      <g>
       <use style="stroke:#000000;stroke-width:0.8;" x="382.254545" xlink:href="#md7234748fa" y="307.584"/>
      </g>
     </g>
     <g id="text_38">
      <!-- 8 -->
      <g transform="translate(379.073295 322.182437)scale(0.1 -0.1)">
       <use xlink:href="#DejaVuSans-38"/>
      </g>
     </g>
    </g>
    <g id="xtick_24">
     <g id="line2d_39">
      <g>
       <use style="stroke:#000000;stroke-width:0.8;" x="414.72" xlink:href="#md7234748fa" y="307.584"/>
      </g>
     </g>
     <g id="text_39">
      <!-- 10 -->
      <g transform="translate(408.3575 322.182437)scale(0.1 -0.1)">
       <use xlink:href="#DejaVuSans-31"/>
       <use x="63.623047" xlink:href="#DejaVuSans-30"/>
      </g>
     </g>
    </g>
   </g>
   <g id="matplotlib.axis_8">
    <g id="ytick_16">
     <g id="line2d_40">
      <g>
       <use style="stroke:#000000;stroke-width:0.8;" x="252.392727" xlink:href="#maea755377c" y="307.584"/>
      </g>
     </g>
     <g id="text_40">
      <!-- 0 -->
      <g transform="translate(239.030227 311.383219)scale(0.1 -0.1)">
       <use xlink:href="#DejaVuSans-30"/>
      </g>
     </g>
    </g>
    <g id="ytick_17">
     <g id="line2d_41">
      <g>
       <use style="stroke:#000000;stroke-width:0.8;" x="252.392727" xlink:href="#maea755377c" y="277.344"/>
      </g>
     </g>
     <g id="text_41">
      <!-- 2 -->
      <g transform="translate(239.030227 281.143219)scale(0.1 -0.1)">
       <use xlink:href="#DejaVuSans-32"/>
      </g>
     </g>
    </g>
    <g id="ytick_18">
     <g id="line2d_42">
      <g>
       <use style="stroke:#000000;stroke-width:0.8;" x="252.392727" xlink:href="#maea755377c" y="247.104"/>
      </g>
     </g>
     <g id="text_42">
      <!-- 4 -->
      <g transform="translate(239.030227 250.903219)scale(0.1 -0.1)">
       <use xlink:href="#DejaVuSans-34"/>
      </g>
     </g>
    </g>
    <g id="ytick_19">
     <g id="line2d_43">
      <g>
       <use style="stroke:#000000;stroke-width:0.8;" x="252.392727" xlink:href="#maea755377c" y="216.864"/>
      </g>
     </g>
     <g id="text_43">
      <!-- 6 -->
      <g transform="translate(239.030227 220.663219)scale(0.1 -0.1)">
       <use xlink:href="#DejaVuSans-36"/>
      </g>
     </g>
    </g>
    <g id="ytick_20">
     <g id="line2d_44">
      <g>
       <use style="stroke:#000000;stroke-width:0.8;" x="252.392727" xlink:href="#maea755377c" y="186.624"/>
      </g>
     </g>
     <g id="text_44">
      <!-- 8 -->
      <g transform="translate(239.030227 190.423219)scale(0.1 -0.1)">
       <use xlink:href="#DejaVuSans-38"/>
      </g>
     </g>
    </g>
   </g>
   <g id="patch_18">
    <path d="M 252.392727 307.584 
L 252.392727 186.624 
" style="fill:none;stroke:#000000;stroke-linecap:square;stroke-linejoin:miter;stroke-width:0.8;"/>
   </g>
   <g id="patch_19">
    <path d="M 414.72 307.584 
L 414.72 186.624 
" style="fill:none;stroke:#000000;stroke-linecap:square;stroke-linejoin:miter;stroke-width:0.8;"/>
   </g>
   <g id="patch_20">
    <path d="M 252.392727 307.584 
L 414.72 307.584 
" style="fill:none;stroke:#000000;stroke-linecap:square;stroke-linejoin:miter;stroke-width:0.8;"/>
   </g>
   <g id="patch_21">
    <path d="M 252.392727 186.624 
L 414.72 186.624 
" style="fill:none;stroke:#000000;stroke-linecap:square;stroke-linejoin:miter;stroke-width:0.8;"/>
   </g>
  </g>
 </g>
 <defs>
  <clipPath id="p6fbb2d227f">
   <rect height="120.96" width="162.327273" x="57.6" y="41.472"/>
  </clipPath>
  <clipPath id="pd9bb43c220">
   <rect height="120.96" width="162.327273" x="252.392727" y="41.472"/>
  </clipPath>
  <clipPath id="p5cf185351a">
   <rect height="120.96" width="162.327273" x="57.6" y="186.624"/>
  </clipPath>
  <clipPath id="p53dd9c3459">
   <rect height="120.96" width="162.327273" x="252.392727" y="186.624"/>
  </clipPath>
 </defs>
</svg>
