<?xml version="1.0" encoding="utf-8" standalone="no"?>
<!DOCTYPE svg PUBLIC "-//W3C//DTD SVG 1.1//EN"
  "http://www.w3.org/Graphics/SVG/1.1/DTD/svg11.dtd">
<!-- Created with matplotlib (http://matplotlib.org/) -->
<svg height="345pt" version="1.1" viewBox="0 0 460 345" width="460pt" xmlns="http://www.w3.org/2000/svg" xmlns:xlink="http://www.w3.org/1999/xlink">
 <defs>
  <style type="text/css">
*{stroke-linecap:butt;stroke-linejoin:round;}
  </style>
 </defs>
 <g id="figure_1">
  <g id="patch_1">
   <path d="M 0 345.6 
L 460.8 345.6 
L 460.8 0 
L 0 0 
z
" style="fill:#ffffff;"/>
  </g>
  <g id="axes_1">
   <g id="patch_2">
    <path d="M 57.6 162.432 
L 219.927273 162.432 
L 219.927273 41.472 
L 57.6 41.472 
z
" style="fill:#ffffff;"/>
   </g>
   <g id="PathCollection_1">
    <path clip-path="url(#pd369741ddb)" d="M 93.672727 162.432 
L 102.456275 162.432 
L 93.672727 155.751112 
L 89.115698 162.432 
z
" style="fill:#ebf7e7;"/>
    <path clip-path="url(#pd369741ddb)" d="M 165.818182 136.407579 
L 172.306916 127.872 
L 183.854545 125.772533 
L 187.523221 110.592 
L 183.854545 105.524133 
L 165.818182 107.34303 
L 163.005986 110.592 
L 165.274039 127.872 
z
" style="fill:#ebf7e7;"/>
    <path clip-path="url(#pd369741ddb)" d="M 129.745455 80.642245 
L 135.725948 76.032 
L 129.745455 67.049814 
L 119.124247 76.032 
z
" style="fill:#ebf7e7;"/>
   </g>
   <g id="PathCollection_2">
    <path clip-path="url(#pd369741ddb)" d="M 58.106755 145.152 
L 57.6 144.686946 
L 57.6 145.152 
L 57.6 145.3439 
z
" style="fill:#c7e9c0;"/>
    <path clip-path="url(#pd369741ddb)" d="M 93.672727 155.751112 
L 102.456275 162.432 
L 111.709091 162.432 
L 112.761118 162.432 
L 111.709091 159.869277 
L 93.672727 147.892354 
L 83.755245 162.432 
L 89.115698 162.432 
z
" style="fill:#c7e9c0;"/>
    <path clip-path="url(#pd369741ddb)" d="M 165.818182 162.432 
L 171.097044 162.432 
L 172.480149 145.152 
L 183.854545 134.05834 
L 192.81097 127.872 
L 192.310562 110.592 
L 183.854545 98.910954 
L 165.818182 100.860858 
L 157.395243 110.592 
L 156.13693 127.872 
L 157.751742 145.152 
L 156.317538 162.432 
z
M 165.274039 127.872 
L 163.005986 110.592 
L 165.818182 107.34303 
L 183.854545 105.524133 
L 187.523221 110.592 
L 183.854545 125.772533 
L 172.306916 127.872 
L 165.818182 136.407579 
z
" style="fill:#c7e9c0;"/>
    <path clip-path="url(#pd369741ddb)" d="M 75.636364 128.602826 
L 93.672727 139.404985 
L 98.746342 127.872 
L 93.672727 120.243578 
L 75.636364 127.393635 
L 74.90523 127.872 
z
" style="fill:#c7e9c0;"/>
    <path clip-path="url(#pd369741ddb)" d="M 93.672727 91.43031 
L 111.709091 83.638745 
L 129.745455 85.822165 
L 142.445436 76.032 
L 131.252179 58.752 
L 129.745455 55.686363 
L 127.513509 58.752 
L 111.709091 72.036565 
L 93.672727 69.083166 
L 78.290311 76.032 
z
M 119.124247 76.032 
L 129.745455 67.049814 
L 135.725948 76.032 
L 129.745455 80.642245 
z
" style="fill:#c7e9c0;"/>
    <path clip-path="url(#pd369741ddb)" d="M 111.709091 43.953473 
L 115.386232 41.472 
L 111.709091 41.472 
L 97.13072 41.472 
z
" style="fill:#c7e9c0;"/>
   </g>
   <g id="PathCollection_3">
    <path clip-path="url(#pd369741ddb)" d="M 70.959672 145.152 
L 75.636364 140.736876 
L 82.1011 145.152 
L 78.394791 162.432 
L 83.755245 162.432 
L 93.672727 147.892354 
L 111.709091 159.869277 
L 112.761118 162.432 
L 122.832052 162.432 
L 118.288899 145.152 
L 111.709091 139.332187 
L 105.9968 127.872 
L 97.585793 110.592 
L 111.709091 102.922349 
L 121.405821 93.312 
L 129.745455 91.002086 
L 147.781818 77.930678 
L 153.061028 76.032 
L 147.781818 72.955952 
L 139.726907 58.752 
L 133.215367 41.472 
L 129.745455 41.472 
L 115.386232 41.472 
L 111.709091 43.953473 
L 97.13072 41.472 
L 93.672727 41.472 
L 84.689193 41.472 
L 93.672727 53.477904 
L 111.709091 55.708276 
L 114.959704 58.752 
L 111.709091 61.484336 
L 93.672727 61.793811 
L 75.636364 68.347816 
L 64.187987 76.032 
L 57.6 84.485569 
L 57.6 93.312 
L 57.6 97.081943 
L 67.040549 93.312 
L 75.636364 87.201495 
L 81.78607 93.312 
L 91.991673 110.592 
L 75.636364 119.451245 
L 62.766065 127.872 
L 57.6 132.891703 
L 57.6 144.686946 
L 58.106755 145.152 
L 57.6 145.3439 
L 57.6 150.21108 
z
M 74.90523 127.872 
L 75.636364 127.393635 
L 93.672727 120.243578 
L 98.746342 127.872 
L 93.672727 139.404985 
L 75.636364 128.602826 
z
M 78.290311 76.032 
L 93.672727 69.083166 
L 111.709091 72.036565 
L 127.513509 58.752 
L 129.745455 55.686363 
L 131.252179 58.752 
L 142.445436 76.032 
L 129.745455 85.822165 
L 111.709091 83.638745 
L 93.672727 91.43031 
z
" style="fill:#92d28f;"/>
    <path clip-path="url(#pd369741ddb)" d="M 147.781818 162.432 
L 156.317538 162.432 
L 157.751742 145.152 
L 156.13693 127.872 
L 157.395243 110.592 
L 165.818182 100.860858 
L 183.854545 98.910954 
L 192.310562 110.592 
L 192.81097 127.872 
L 183.854545 134.05834 
L 172.480149 145.152 
L 171.097044 162.432 
L 177.261836 162.432 
L 179.574972 145.152 
L 183.854545 140.978052 
L 201.890909 129.094769 
L 203.493573 127.872 
L 201.890909 126.393842 
L 197.097903 110.592 
L 185.171085 93.312 
L 183.854545 90.354802 
L 175.153855 93.312 
L 165.818182 94.378686 
L 151.784501 110.592 
L 147.781818 126.021013 
L 147.086877 127.872 
L 147.781818 133.880055 
L 149.161192 145.152 
L 147.781818 152.243783 
L 143.245396 162.432 
z
" style="fill:#92d28f;"/>
    <path clip-path="url(#pd369741ddb)" d="M 66.592671 41.472 
L 57.6 41.472 
L 57.6 51.044929 
z
" style="fill:#92d28f;"/>
    <path clip-path="url(#pd369741ddb)" d="M 183.854545 44.69142 
L 195.661464 41.472 
L 183.854545 41.472 
L 182.549631 41.472 
z
" style="fill:#92d28f;"/>
   </g>
   <g id="PathCollection_4">
    <path clip-path="url(#pd369741ddb)" d="M 75.636364 162.432 
L 78.394791 162.432 
L 82.1011 145.152 
L 75.636364 140.736876 
L 70.959672 145.152 
L 57.6 150.21108 
L 57.6 155.078261 
L 71.250708 162.432 
z
" style="fill:#52b365;"/>
    <path clip-path="url(#pd369741ddb)" d="M 129.745455 162.432 
L 143.245396 162.432 
L 147.781818 152.243783 
L 149.161192 145.152 
L 147.781818 133.880055 
L 147.086877 127.872 
L 147.781818 126.021013 
L 151.784501 110.592 
L 165.818182 94.378686 
L 175.153855 93.312 
L 183.854545 90.354802 
L 185.171085 93.312 
L 197.097903 110.592 
L 201.890909 126.393842 
L 203.493573 127.872 
L 201.890909 129.094769 
L 183.854545 140.978052 
L 179.574972 145.152 
L 177.261836 162.432 
L 183.426629 162.432 
L 183.854545 159.859253 
L 195.275332 145.152 
L 201.890909 142.151006 
L 219.927273 130.305685 
L 219.927273 127.872 
L 219.927273 127.321888 
L 201.890909 110.610676 
L 201.885244 110.592 
L 193.755486 93.312 
L 188.551003 76.032 
L 201.890909 67.148092 
L 211.237392 76.032 
L 219.927273 81.950838 
L 219.927273 76.032 
L 219.927273 58.752 
L 219.927273 41.472 
L 201.890909 41.472 
L 195.661464 41.472 
L 183.854545 44.69142 
L 182.549631 41.472 
L 175.413064 41.472 
L 178.778946 58.752 
L 165.818182 67.49168 
L 149.366355 58.752 
L 150.729571 41.472 
L 147.781818 41.472 
L 133.215367 41.472 
L 139.726907 58.752 
L 147.781818 72.955952 
L 153.061028 76.032 
L 147.781818 77.930678 
L 129.745455 91.002086 
L 121.405821 93.312 
L 111.709091 102.922349 
L 97.585793 110.592 
L 105.9968 127.872 
L 111.709091 139.332187 
L 118.288899 145.152 
L 122.832052 162.432 
z
M 114.548044 127.872 
L 119.994516 110.592 
L 129.745455 101.008609 
L 137.926316 93.312 
L 147.781818 87.154959 
L 155.792162 93.312 
L 147.781818 105.401152 
L 142.488089 110.592 
L 138.966952 127.872 
L 129.745455 141.509126 
z
" style="fill:#52b365;"/>
    <path clip-path="url(#pd369741ddb)" d="M 219.927273 162.432 
L 219.927273 159.920761 
L 219.310034 162.432 
z
" style="fill:#52b365;"/>
    <path clip-path="url(#pd369741ddb)" d="M 62.766065 127.872 
L 75.636364 119.451245 
L 91.991673 110.592 
L 81.78607 93.312 
L 75.636364 87.201495 
L 67.040549 93.312 
L 57.6 97.081943 
L 57.6 104.591592 
L 75.636364 107.562019 
L 77.328997 110.592 
L 75.636364 111.508855 
L 57.6 120.644868 
L 57.6 127.872 
L 57.6 132.891703 
z
" style="fill:#52b365;"/>
    <path clip-path="url(#pd369741ddb)" d="M 64.187987 76.032 
L 75.636364 68.347816 
L 93.672727 61.793811 
L 111.709091 61.484336 
L 114.959704 58.752 
L 111.709091 55.708276 
L 93.672727 53.477904 
L 84.689193 41.472 
L 75.636364 41.472 
L 66.592671 41.472 
L 57.6 51.044929 
L 57.6 58.752 
L 57.6 76.032 
L 57.6 84.485569 
z
M 72.811903 58.752 
L 75.636364 50.047739 
L 76.886249 58.752 
L 75.636364 59.151021 
z
" style="fill:#52b365;"/>
   </g>
   <g id="PathCollection_5">
    <path clip-path="url(#pd369741ddb)" d="M 57.6 155.078261 
L 57.6 159.945441 
L 62.215786 162.432 
L 71.250708 162.432 
z
" style="fill:#228a44;"/>
    <path clip-path="url(#pd369741ddb)" d="M 183.854545 162.432 
L 199.226011 162.432 
L 201.890909 159.439102 
L 204.310779 162.432 
L 219.310034 162.432 
L 219.927273 159.920761 
L 219.927273 145.152 
L 219.927273 130.305685 
L 201.890909 142.151006 
L 195.275332 145.152 
L 183.854545 159.859253 
L 183.426629 162.432 
z
" style="fill:#228a44;"/>
    <path clip-path="url(#pd369741ddb)" d="M 129.745455 141.509126 
L 138.966952 127.872 
L 142.488089 110.592 
L 147.781818 105.401152 
L 155.792162 93.312 
L 147.781818 87.154959 
L 137.926316 93.312 
L 129.745455 101.008609 
L 119.994516 110.592 
L 114.548044 127.872 
z
M 127.930017 127.872 
L 129.745455 122.613151 
L 130.847028 127.872 
L 129.745455 129.501051 
z
" style="fill:#228a44;"/>
    <path clip-path="url(#pd369741ddb)" d="M 75.636364 111.508855 
L 77.328997 110.592 
L 75.636364 107.562019 
L 57.6 104.591592 
L 57.6 110.592 
L 57.6 120.644868 
z
" style="fill:#228a44;"/>
    <path clip-path="url(#pd369741ddb)" d="M 201.890909 110.610676 
L 219.927273 127.321888 
L 219.927273 113.45541 
L 216.837221 110.592 
L 204.540069 93.312 
L 219.927273 90.664822 
L 219.927273 81.950838 
L 211.237392 76.032 
L 201.890909 67.148092 
L 188.551003 76.032 
L 193.755486 93.312 
L 201.885244 110.592 
z
" style="fill:#228a44;"/>
    <path clip-path="url(#pd369741ddb)" d="M 75.636364 59.151021 
L 76.886249 58.752 
L 75.636364 50.047739 
L 72.811903 58.752 
z
" style="fill:#228a44;"/>
    <path clip-path="url(#pd369741ddb)" d="M 165.818182 67.49168 
L 178.778946 58.752 
L 175.413064 41.472 
L 168.276497 41.472 
L 165.818182 48.642418 
L 161.952312 41.472 
L 150.729571 41.472 
L 149.366355 58.752 
z
" style="fill:#228a44;"/>
   </g>
   <g id="PathCollection_6">
    <path clip-path="url(#pd369741ddb)" d="M 57.6 159.945441 
L 57.6 162.432 
L 62.215786 162.432 
z
" style="fill:#005f26;"/>
    <path clip-path="url(#pd369741ddb)" d="M 201.890909 162.432 
L 204.310779 162.432 
L 201.890909 159.439102 
L 199.226011 162.432 
z
" style="fill:#005f26;"/>
    <path clip-path="url(#pd369741ddb)" d="M 129.745455 129.501051 
L 130.847028 127.872 
L 129.745455 122.613151 
L 127.930017 127.872 
z
" style="fill:#005f26;"/>
    <path clip-path="url(#pd369741ddb)" d="M 219.927273 113.45541 
L 219.927273 110.592 
L 219.927273 93.312 
L 219.927273 90.664822 
L 204.540069 93.312 
L 216.837221 110.592 
z
" style="fill:#005f26;"/>
    <path clip-path="url(#pd369741ddb)" d="M 165.818182 48.642418 
L 168.276497 41.472 
L 165.818182 41.472 
L 161.952312 41.472 
z
" style="fill:#005f26;"/>
   </g>
   <g id="matplotlib.axis_1">
    <g id="xtick_1">
     <g id="line2d_1">
      <defs>
       <path d="M 0 0 
L 0 3.5 
" id="mb24533cd93" style="stroke:#000000;stroke-width:0.8;"/>
      </defs>
      <g>
       <use style="stroke:#000000;stroke-width:0.8;" x="57.6" xlink:href="#mb24533cd93" y="162.432"/>
      </g>
     </g>
     <g id="text_1">
      <!-- 0 -->
      <defs>
       <path d="M 31.78125 66.40625 
Q 24.171875 66.40625 20.328125 58.90625 
Q 16.5 51.421875 16.5 36.375 
Q 16.5 21.390625 20.328125 13.890625 
Q 24.171875 6.390625 31.78125 6.390625 
Q 39.453125 6.390625 43.28125 13.890625 
Q 47.125 21.390625 47.125 36.375 
Q 47.125 51.421875 43.28125 58.90625 
Q 39.453125 66.40625 31.78125 66.40625 
z
M 31.78125 74.21875 
Q 44.046875 74.21875 50.515625 64.515625 
Q 56.984375 54.828125 56.984375 36.375 
Q 56.984375 17.96875 50.515625 8.265625 
Q 44.046875 -1.421875 31.78125 -1.421875 
Q 19.53125 -1.421875 13.0625 8.265625 
Q 6.59375 17.96875 6.59375 36.375 
Q 6.59375 54.828125 13.0625 64.515625 
Q 19.53125 74.21875 31.78125 74.21875 
z
" id="DejaVuSans-30"/>
      </defs>
      <g transform="translate(54.41875 177.030437)scale(0.1 -0.1)">
       <use xlink:href="#DejaVuSans-30"/>
      </g>
     </g>
    </g>
    <g id="xtick_2">
     <g id="line2d_2">
      <g>
       <use style="stroke:#000000;stroke-width:0.8;" x="90.065455" xlink:href="#mb24533cd93" y="162.432"/>
      </g>
     </g>
     <g id="text_2">
      <!-- 2 -->
      <defs>
       <path d="M 19.1875 8.296875 
L 53.609375 8.296875 
L 53.609375 0 
L 7.328125 0 
L 7.328125 8.296875 
Q 12.9375 14.109375 22.625 23.890625 
Q 32.328125 33.6875 34.8125 36.53125 
Q 39.546875 41.84375 41.421875 45.53125 
Q 43.3125 49.21875 43.3125 52.78125 
Q 43.3125 58.59375 39.234375 62.25 
Q 35.15625 65.921875 28.609375 65.921875 
Q 23.96875 65.921875 18.8125 64.3125 
Q 13.671875 62.703125 7.8125 59.421875 
L 7.8125 69.390625 
Q 13.765625 71.78125 18.9375 73 
Q 24.125 74.21875 28.421875 74.21875 
Q 39.75 74.21875 46.484375 68.546875 
Q 53.21875 62.890625 53.21875 53.421875 
Q 53.21875 48.921875 51.53125 44.890625 
Q 49.859375 40.875 45.40625 35.40625 
Q 44.1875 33.984375 37.640625 27.21875 
Q 31.109375 20.453125 19.1875 8.296875 
z
" id="DejaVuSans-32"/>
      </defs>
      <g transform="translate(86.884205 177.030437)scale(0.1 -0.1)">
       <use xlink:href="#DejaVuSans-32"/>
      </g>
     </g>
    </g>
    <g id="xtick_3">
     <g id="line2d_3">
      <g>
       <use style="stroke:#000000;stroke-width:0.8;" x="122.530909" xlink:href="#mb24533cd93" y="162.432"/>
      </g>
     </g>
     <g id="text_3">
      <!-- 4 -->
      <defs>
       <path d="M 37.796875 64.3125 
L 12.890625 25.390625 
L 37.796875 25.390625 
z
M 35.203125 72.90625 
L 47.609375 72.90625 
L 47.609375 25.390625 
L 58.015625 25.390625 
L 58.015625 17.1875 
L 47.609375 17.1875 
L 47.609375 0 
L 37.796875 0 
L 37.796875 17.1875 
L 4.890625 17.1875 
L 4.890625 26.703125 
z
" id="DejaVuSans-34"/>
      </defs>
      <g transform="translate(119.349659 177.030437)scale(0.1 -0.1)">
       <use xlink:href="#DejaVuSans-34"/>
      </g>
     </g>
    </g>
    <g id="xtick_4">
     <g id="line2d_4">
      <g>
       <use style="stroke:#000000;stroke-width:0.8;" x="154.996364" xlink:href="#mb24533cd93" y="162.432"/>
      </g>
     </g>
     <g id="text_4">
      <!-- 6 -->
      <defs>
       <path d="M 33.015625 40.375 
Q 26.375 40.375 22.484375 35.828125 
Q 18.609375 31.296875 18.609375 23.390625 
Q 18.609375 15.53125 22.484375 10.953125 
Q 26.375 6.390625 33.015625 6.390625 
Q 39.65625 6.390625 43.53125 10.953125 
Q 47.40625 15.53125 47.40625 23.390625 
Q 47.40625 31.296875 43.53125 35.828125 
Q 39.65625 40.375 33.015625 40.375 
z
M 52.59375 71.296875 
L 52.59375 62.3125 
Q 48.875 64.0625 45.09375 64.984375 
Q 41.3125 65.921875 37.59375 65.921875 
Q 27.828125 65.921875 22.671875 59.328125 
Q 17.53125 52.734375 16.796875 39.40625 
Q 19.671875 43.65625 24.015625 45.921875 
Q 28.375 48.1875 33.59375 48.1875 
Q 44.578125 48.1875 50.953125 41.515625 
Q 57.328125 34.859375 57.328125 23.390625 
Q 57.328125 12.15625 50.6875 5.359375 
Q 44.046875 -1.421875 33.015625 -1.421875 
Q 20.359375 -1.421875 13.671875 8.265625 
Q 6.984375 17.96875 6.984375 36.375 
Q 6.984375 53.65625 15.1875 63.9375 
Q 23.390625 74.21875 37.203125 74.21875 
Q 40.921875 74.21875 44.703125 73.484375 
Q 48.484375 72.75 52.59375 71.296875 
z
" id="DejaVuSans-36"/>
      </defs>
      <g transform="translate(151.815114 177.030437)scale(0.1 -0.1)">
       <use xlink:href="#DejaVuSans-36"/>
      </g>
     </g>
    </g>
    <g id="xtick_5">
     <g id="line2d_5">
      <g>
       <use style="stroke:#000000;stroke-width:0.8;" x="187.461818" xlink:href="#mb24533cd93" y="162.432"/>
      </g>
     </g>
     <g id="text_5">
      <!-- 8 -->
      <defs>
       <path d="M 31.78125 34.625 
Q 24.75 34.625 20.71875 30.859375 
Q 16.703125 27.09375 16.703125 20.515625 
Q 16.703125 13.921875 20.71875 10.15625 
Q 24.75 6.390625 31.78125 6.390625 
Q 38.8125 6.390625 42.859375 10.171875 
Q 46.921875 13.96875 46.921875 20.515625 
Q 46.921875 27.09375 42.890625 30.859375 
Q 38.875 34.625 31.78125 34.625 
z
M 21.921875 38.8125 
Q 15.578125 40.375 12.03125 44.71875 
Q 8.5 49.078125 8.5 55.328125 
Q 8.5 64.0625 14.71875 69.140625 
Q 20.953125 74.21875 31.78125 74.21875 
Q 42.671875 74.21875 48.875 69.140625 
Q 55.078125 64.0625 55.078125 55.328125 
Q 55.078125 49.078125 51.53125 44.71875 
Q 48 40.375 41.703125 38.8125 
Q 48.828125 37.15625 52.796875 32.3125 
Q 56.78125 27.484375 56.78125 20.515625 
Q 56.78125 9.90625 50.3125 4.234375 
Q 43.84375 -1.421875 31.78125 -1.421875 
Q 19.734375 -1.421875 13.25 4.234375 
Q 6.78125 9.90625 6.78125 20.515625 
Q 6.78125 27.484375 10.78125 32.3125 
Q 14.796875 37.15625 21.921875 38.8125 
z
M 18.3125 54.390625 
Q 18.3125 48.734375 21.84375 45.5625 
Q 25.390625 42.390625 31.78125 42.390625 
Q 38.140625 42.390625 41.71875 45.5625 
Q 45.3125 48.734375 45.3125 54.390625 
Q 45.3125 60.0625 41.71875 63.234375 
Q 38.140625 66.40625 31.78125 66.40625 
Q 25.390625 66.40625 21.84375 63.234375 
Q 18.3125 60.0625 18.3125 54.390625 
z
" id="DejaVuSans-38"/>
      </defs>
      <g transform="translate(184.280568 177.030437)scale(0.1 -0.1)">
       <use xlink:href="#DejaVuSans-38"/>
      </g>
     </g>
    </g>
    <g id="xtick_6">
     <g id="line2d_6">
      <g>
       <use style="stroke:#000000;stroke-width:0.8;" x="219.927273" xlink:href="#mb24533cd93" y="162.432"/>
      </g>
     </g>
     <g id="text_6">
      <!-- 10 -->
      <defs>
       <path d="M 12.40625 8.296875 
L 28.515625 8.296875 
L 28.515625 63.921875 
L 10.984375 60.40625 
L 10.984375 69.390625 
L 28.421875 72.90625 
L 38.28125 72.90625 
L 38.28125 8.296875 
L 54.390625 8.296875 
L 54.390625 0 
L 12.40625 0 
z
" id="DejaVuSans-31"/>
      </defs>
      <g transform="translate(213.564773 177.030437)scale(0.1 -0.1)">
       <use xlink:href="#DejaVuSans-31"/>
       <use x="63.623047" xlink:href="#DejaVuSans-30"/>
      </g>
     </g>
    </g>
   </g>
   <g id="matplotlib.axis_2">
    <g id="ytick_1">
     <g id="line2d_7">
      <defs>
       <path d="M 0 0 
L -3.5 0 
" id="m7c816782ef" style="stroke:#000000;stroke-width:0.8;"/>
      </defs>
      <g>
       <use style="stroke:#000000;stroke-width:0.8;" x="57.6" xlink:href="#m7c816782ef" y="162.432"/>
      </g>
     </g>
     <g id="text_7">
      <!-- 0 -->
      <g transform="translate(44.2375 166.231219)scale(0.1 -0.1)">
       <use xlink:href="#DejaVuSans-30"/>
      </g>
     </g>
    </g>
    <g id="ytick_2">
     <g id="line2d_8">
      <g>
       <use style="stroke:#000000;stroke-width:0.8;" x="57.6" xlink:href="#m7c816782ef" y="132.192"/>
      </g>
     </g>
     <g id="text_8">
      <!-- 2 -->
      <g transform="translate(44.2375 135.991219)scale(0.1 -0.1)">
       <use xlink:href="#DejaVuSans-32"/>
      </g>
     </g>
    </g>
    <g id="ytick_3">
     <g id="line2d_9">
      <g>
       <use style="stroke:#000000;stroke-width:0.8;" x="57.6" xlink:href="#m7c816782ef" y="101.952"/>
      </g>
     </g>
     <g id="text_9">
      <!-- 4 -->
      <g transform="translate(44.2375 105.751219)scale(0.1 -0.1)">
       <use xlink:href="#DejaVuSans-34"/>
      </g>
     </g>
    </g>
    <g id="ytick_4">
     <g id="line2d_10">
      <g>
       <use style="stroke:#000000;stroke-width:0.8;" x="57.6" xlink:href="#m7c816782ef" y="71.712"/>
      </g>
     </g>
     <g id="text_10">
      <!-- 6 -->
      <g transform="translate(44.2375 75.511219)scale(0.1 -0.1)">
       <use xlink:href="#DejaVuSans-36"/>
      </g>
     </g>
    </g>
    <g id="ytick_5">
     <g id="line2d_11">
      <g>
       <use style="stroke:#000000;stroke-width:0.8;" x="57.6" xlink:href="#m7c816782ef" y="41.472"/>
      </g>
     </g>
     <g id="text_11">
      <!-- 8 -->
      <g transform="translate(44.2375 45.271219)scale(0.1 -0.1)">
       <use xlink:href="#DejaVuSans-38"/>
      </g>
     </g>
    </g>
   </g>
   <g id="patch_3">
    <path d="M 57.6 162.432 
L 57.6 41.472 
" style="fill:none;stroke:#000000;stroke-linecap:square;stroke-linejoin:miter;stroke-width:0.8;"/>
   </g>
   <g id="patch_4">
    <path d="M 219.927273 162.432 
L 219.927273 41.472 
" style="fill:none;stroke:#000000;stroke-linecap:square;stroke-linejoin:miter;stroke-width:0.8;"/>
   </g>
   <g id="patch_5">
    <path d="M 57.6 162.432 
L 219.927273 162.432 
" style="fill:none;stroke:#000000;stroke-linecap:square;stroke-linejoin:miter;stroke-width:0.8;"/>
   </g>
   <g id="patch_6">
    <path d="M 57.6 41.472 
L 219.927273 41.472 
" style="fill:none;stroke:#000000;stroke-linecap:square;stroke-linejoin:miter;stroke-width:0.8;"/>
   </g>
  </g>
  <g id="axes_2">
   <g id="patch_7">
    <path d="M 252.392727 162.432 
L 414.72 162.432 
L 414.72 41.472 
L 252.392727 41.472 
z
" style="fill:#ffffff;"/>
   </g>
   <g id="PathCollection_7">
    <path clip-path="url(#p613aee4abb)" d="M 252.729781 76.032 
L 252.392727 75.598542 
L 252.392727 76.032 
L 252.392727 76.440576 
z
" style="fill:#eef8ea;"/>
   </g>
   <g id="PathCollection_8">
    <path clip-path="url(#p613aee4abb)" d="M 259.449293 76.032 
L 252.392727 66.957128 
L 252.392727 75.598542 
L 252.729781 76.032 
L 252.392727 76.440576 
L 252.392727 84.585937 
z
" style="fill:#d6efd0;"/>
   </g>
   <g id="PathCollection_9">
    <path clip-path="url(#p613aee4abb)" d="M 266.168804 76.032 
L 252.937845 58.752 
L 252.392727 58.485042 
L 252.392727 58.752 
L 252.392727 66.957128 
L 259.449293 76.032 
L 252.392727 84.585937 
L 252.392727 92.731299 
z
" style="fill:#b4e1ad;"/>
    <path clip-path="url(#p613aee4abb)" d="M 306.501818 65.528014 
L 309.999122 58.752 
L 306.501818 41.600505 
L 300.377458 58.752 
z
" style="fill:#b4e1ad;"/>
    <path clip-path="url(#p613aee4abb)" d="M 414.72 63.740375 
L 414.72 58.752 
L 414.72 42.544863 
L 407.962827 58.752 
z
" style="fill:#b4e1ad;"/>
   </g>
   <g id="PathCollection_10">
    <path clip-path="url(#p613aee4abb)" d="M 256.407035 145.152 
L 252.392727 135.637247 
L 252.392727 145.152 
L 252.392727 162.432 
L 259.583617 162.432 
z
" style="fill:#8ace88;"/>
    <path clip-path="url(#p613aee4abb)" d="M 288.465455 111.537646 
L 289.196051 110.592 
L 288.465455 107.094814 
L 287.799562 110.592 
z
" style="fill:#8ace88;"/>
    <path clip-path="url(#p613aee4abb)" d="M 342.574545 112.537873 
L 344.141792 110.592 
L 342.574545 109.290988 
L 340.862151 110.592 
z
" style="fill:#8ace88;"/>
    <path clip-path="url(#p613aee4abb)" d="M 267.327174 93.312 
L 270.429091 87.347865 
L 279.131215 76.032 
L 270.429091 69.617935 
L 263.734887 58.752 
L 252.392727 53.197449 
L 252.392727 58.485042 
L 252.937845 58.752 
L 266.168804 76.032 
L 252.392727 92.731299 
L 252.392727 93.312 
L 252.392727 102.484036 
z
" style="fill:#8ace88;"/>
    <path clip-path="url(#p613aee4abb)" d="M 396.683636 93.780675 
L 414.72 99.356072 
L 414.72 93.312 
L 414.72 85.915987 
L 396.683636 93.053469 
L 395.919929 93.312 
z
" style="fill:#8ace88;"/>
    <path clip-path="url(#p613aee4abb)" d="M 306.501818 75.323611 
L 315.054923 58.752 
L 324.538182 42.185486 
L 325.808818 41.472 
L 324.538182 41.472 
L 306.501818 41.472 
L 299.870513 41.472 
L 291.523911 58.752 
z
M 300.377458 58.752 
L 306.501818 41.600505 
L 309.999122 58.752 
L 306.501818 65.528014 
z
" style="fill:#8ace88;"/>
    <path clip-path="url(#p613aee4abb)" d="M 414.72 69.869993 
L 414.72 63.740375 
L 407.962827 58.752 
L 414.72 42.544863 
L 414.72 41.472 
L 405.927493 41.472 
L 399.659745 58.752 
z
" style="fill:#8ace88;"/>
   </g>
   <g id="PathCollection_11">
    <path clip-path="url(#p613aee4abb)" d="M 270.429091 145.342361 
L 270.57924 145.152 
L 270.429091 144.773581 
L 267.903047 127.872 
L 257.129142 110.592 
L 270.429091 103.959724 
L 276.240297 110.592 
L 287.778719 127.872 
L 288.465455 128.124699 
L 288.503375 127.872 
L 301.878504 110.592 
L 306.501818 104.541054 
L 320.259615 93.312 
L 314.058697 76.032 
L 320.110725 58.752 
L 324.538182 51.017577 
L 341.53774 41.472 
L 325.808818 41.472 
L 324.538182 42.185486 
L 315.054923 58.752 
L 306.501818 75.323611 
L 291.523911 58.752 
L 299.870513 41.472 
L 293.20466 41.472 
L 288.465455 50.468968 
L 270.429091 53.035458 
L 252.392727 47.909857 
L 252.392727 53.197449 
L 263.734887 58.752 
L 270.429091 69.617935 
L 279.131215 76.032 
L 270.429091 87.347865 
L 267.327174 93.312 
L 252.392727 102.484036 
L 252.392727 110.592 
L 252.392727 127.872 
L 252.392727 135.637247 
L 256.407035 145.152 
L 259.583617 162.432 
L 268.252472 162.432 
z
M 287.799562 110.592 
L 288.465455 107.094814 
L 289.196051 110.592 
L 288.465455 111.537646 
z
" style="fill:#5ab769;"/>
    <path clip-path="url(#p613aee4abb)" d="M 324.538182 162.432 
L 342.574545 162.432 
L 344.762465 162.432 
L 360.610909 149.410255 
L 366.975309 145.152 
L 363.139615 127.872 
L 360.610909 120.927959 
L 357.760993 110.592 
L 360.610909 104.749535 
L 378.647273 96.5728 
L 396.683636 109.766969 
L 414.72 107.390877 
L 414.72 99.356072 
L 396.683636 93.780675 
L 395.919929 93.312 
L 396.683636 93.053469 
L 414.72 85.915987 
L 414.72 76.083952 
L 396.683636 84.2351 
L 378.647273 79.252623 
L 377.057043 76.032 
L 360.610909 65.473547 
L 354.105593 76.032 
L 351.633367 93.312 
L 342.574545 97.985332 
L 325.981631 110.592 
L 340.956521 127.872 
L 340.686232 145.152 
L 324.538182 152.804797 
L 320.952258 162.432 
z
M 340.862151 110.592 
L 342.574545 109.290988 
L 344.141792 110.592 
L 342.574545 112.537873 
z
" style="fill:#5ab769;"/>
    <path clip-path="url(#p613aee4abb)" d="M 414.72 151.842093 
L 414.72 145.152 
L 414.72 129.469966 
L 409.955535 145.152 
z
" style="fill:#5ab769;"/>
    <path clip-path="url(#p613aee4abb)" d="M 396.683636 65.805248 
L 414.72 75.999611 
L 414.72 69.869993 
L 399.659745 58.752 
L 405.927493 41.472 
L 396.683636 41.472 
L 396.622421 41.472 
L 390.445519 58.752 
z
" style="fill:#5ab769;"/>
   </g>
   <g id="PathCollection_12">
    <path clip-path="url(#p613aee4abb)" d="M 270.429091 162.432 
L 288.465455 162.432 
L 290.067538 162.432 
L 298.881771 145.152 
L 296.172574 127.872 
L 306.501818 116.131352 
L 323.834448 127.872 
L 313.9163 145.152 
L 311.486992 162.432 
L 320.952258 162.432 
L 324.538182 152.804797 
L 340.686232 145.152 
L 340.956521 127.872 
L 325.981631 110.592 
L 342.574545 97.985332 
L 351.633367 93.312 
L 354.105593 76.032 
L 360.610909 65.473547 
L 377.057043 76.032 
L 378.647273 79.252623 
L 396.683636 84.2351 
L 414.72 76.083952 
L 414.72 76.032 
L 414.72 75.999611 
L 396.683636 65.805248 
L 390.445519 58.752 
L 396.622421 41.472 
L 385.081254 41.472 
L 380.722249 58.752 
L 378.647273 61.997503 
L 373.189626 58.752 
L 360.610909 54.980075 
L 348.824763 41.472 
L 342.574545 41.472 
L 341.53774 41.472 
L 324.538182 51.017577 
L 320.110725 58.752 
L 314.058697 76.032 
L 320.259615 93.312 
L 306.501818 104.541054 
L 301.878504 110.592 
L 288.503375 127.872 
L 288.465455 128.124699 
L 287.778719 127.872 
L 276.240297 110.592 
L 270.429091 103.959724 
L 257.129142 110.592 
L 267.903047 127.872 
L 270.429091 144.773581 
L 270.57924 145.152 
L 270.429091 145.342361 
L 268.252472 162.432 
z
M 322.204668 76.032 
L 324.538182 63.980535 
L 342.574545 68.26827 
L 345.95584 76.032 
L 342.574545 83.190417 
L 324.538182 80.632115 
z
" style="fill:#319a50;"/>
    <path clip-path="url(#p613aee4abb)" d="M 360.610909 158.563536 
L 378.647273 146.565653 
L 381.009805 145.152 
L 394.475136 127.872 
L 396.683636 127.52854 
L 397.049929 127.872 
L 403.232333 145.152 
L 414.72 161.282576 
L 414.72 151.842093 
L 409.955535 145.152 
L 414.72 129.469966 
L 414.72 127.872 
L 414.72 110.592 
L 414.72 107.390877 
L 396.683636 109.766969 
L 378.647273 96.5728 
L 360.610909 104.749535 
L 357.760993 110.592 
L 360.610909 120.927959 
L 363.139615 127.872 
L 366.975309 145.152 
L 360.610909 149.410255 
L 344.762465 162.432 
L 355.902697 162.432 
z
M 372.118824 110.592 
L 378.647273 106.250632 
L 384.438989 110.592 
L 378.647273 123.810424 
z
" style="fill:#319a50;"/>
    <path clip-path="url(#p613aee4abb)" d="M 270.429091 53.035458 
L 288.465455 50.468968 
L 293.20466 41.472 
L 288.465455 41.472 
L 270.429091 41.472 
L 261.13366 41.472 
L 252.392727 42.622265 
L 252.392727 47.909857 
z
" style="fill:#319a50;"/>
   </g>
   <g id="PathCollection_13">
    <path clip-path="url(#p613aee4abb)" d="M 306.501818 162.432 
L 311.486992 162.432 
L 313.9163 145.152 
L 323.834448 127.872 
L 306.501818 116.131352 
L 296.172574 127.872 
L 298.881771 145.152 
L 290.067538 162.432 
z
M 303.841772 127.872 
L 306.501818 124.848481 
L 310.965415 127.872 
L 306.501818 134.849123 
z
" style="fill:#117b38;"/>
    <path clip-path="url(#p613aee4abb)" d="M 360.610909 162.432 
L 369.110374 162.432 
L 378.647273 156.194217 
L 390.849071 162.432 
L 396.683636 162.432 
L 414.72 162.432 
L 414.72 161.282576 
L 403.232333 145.152 
L 397.049929 127.872 
L 396.683636 127.52854 
L 394.475136 127.872 
L 381.009805 145.152 
L 378.647273 146.565653 
L 360.610909 158.563536 
L 355.902697 162.432 
z
" style="fill:#117b38;"/>
    <path clip-path="url(#p613aee4abb)" d="M 378.647273 123.810424 
L 384.438989 110.592 
L 378.647273 106.250632 
L 372.118824 110.592 
z
" style="fill:#117b38;"/>
    <path clip-path="url(#p613aee4abb)" d="M 324.538182 80.632115 
L 342.574545 83.190417 
L 345.95584 76.032 
L 342.574545 68.26827 
L 324.538182 63.980535 
L 322.204668 76.032 
z
" style="fill:#117b38;"/>
    <path clip-path="url(#p613aee4abb)" d="M 378.647273 61.997503 
L 380.722249 58.752 
L 385.081254 41.472 
L 378.647273 41.472 
L 372.017821 41.472 
L 360.610909 47.311205 
L 355.516051 41.472 
L 348.824763 41.472 
L 360.610909 54.980075 
L 373.189626 58.752 
z
" style="fill:#117b38;"/>
    <path clip-path="url(#p613aee4abb)" d="M 261.13366 41.472 
L 252.392727 41.472 
L 252.392727 42.622265 
z
" style="fill:#117b38;"/>
   </g>
   <g id="PathCollection_14">
    <path clip-path="url(#p613aee4abb)" d="M 378.647273 162.432 
L 390.849071 162.432 
L 378.647273 156.194217 
L 369.110374 162.432 
z
" style="fill:#005723;"/>
    <path clip-path="url(#p613aee4abb)" d="M 306.501818 134.849123 
L 310.965415 127.872 
L 306.501818 124.848481 
L 303.841772 127.872 
z
" style="fill:#005723;"/>
    <path clip-path="url(#p613aee4abb)" d="M 360.610909 47.311205 
L 372.017821 41.472 
L 360.610909 41.472 
L 355.516051 41.472 
z
" style="fill:#005723;"/>
   </g>
   <g id="matplotlib.axis_3">
    <g id="xtick_7">
     <g id="line2d_12">
      <g>
       <use style="stroke:#000000;stroke-width:0.8;" x="252.392727" xlink:href="#mb24533cd93" y="162.432"/>
      </g>
     </g>
     <g id="text_12">
      <!-- 0 -->
      <g transform="translate(249.211477 177.030437)scale(0.1 -0.1)">
       <use xlink:href="#DejaVuSans-30"/>
      </g>
     </g>
    </g>
    <g id="xtick_8">
     <g id="line2d_13">
      <g>
       <use style="stroke:#000000;stroke-width:0.8;" x="284.858182" xlink:href="#mb24533cd93" y="162.432"/>
      </g>
     </g>
     <g id="text_13">
      <!-- 2 -->
      <g transform="translate(281.676932 177.030437)scale(0.1 -0.1)">
       <use xlink:href="#DejaVuSans-32"/>
      </g>
     </g>
    </g>
    <g id="xtick_9">
     <g id="line2d_14">
      <g>
       <use style="stroke:#000000;stroke-width:0.8;" x="317.323636" xlink:href="#mb24533cd93" y="162.432"/>
      </g>
     </g>
     <g id="text_14">
      <!-- 4 -->
      <g transform="translate(314.142386 177.030437)scale(0.1 -0.1)">
       <use xlink:href="#DejaVuSans-34"/>
      </g>
     </g>
    </g>
    <g id="xtick_10">
     <g id="line2d_15">
      <g>
       <use style="stroke:#000000;stroke-width:0.8;" x="349.789091" xlink:href="#mb24533cd93" y="162.432"/>
      </g>
     </g>
     <g id="text_15">
      <!-- 6 -->
      <g transform="translate(346.607841 177.030437)scale(0.1 -0.1)">
       <use xlink:href="#DejaVuSans-36"/>
      </g>
     </g>
    </g>
    <g id="xtick_11">
     <g id="line2d_16">
      <g>
       <use style="stroke:#000000;stroke-width:0.8;" x="382.254545" xlink:href="#mb24533cd93" y="162.432"/>
      </g>
     </g>
     <g id="text_16">
      <!-- 8 -->
      <g transform="translate(379.073295 177.030437)scale(0.1 -0.1)">
       <use xlink:href="#DejaVuSans-38"/>
      </g>
     </g>
    </g>
    <g id="xtick_12">
     <g id="line2d_17">
      <g>
       <use style="stroke:#000000;stroke-width:0.8;" x="414.72" xlink:href="#mb24533cd93" y="162.432"/>
      </g>
     </g>
     <g id="text_17">
      <!-- 10 -->
      <g transform="translate(408.3575 177.030437)scale(0.1 -0.1)">
       <use xlink:href="#DejaVuSans-31"/>
       <use x="63.623047" xlink:href="#DejaVuSans-30"/>
      </g>
     </g>
    </g>
   </g>
   <g id="matplotlib.axis_4">
    <g id="ytick_6">
     <g id="line2d_18">
      <g>
       <use style="stroke:#000000;stroke-width:0.8;" x="252.392727" xlink:href="#m7c816782ef" y="162.432"/>
      </g>
     </g>
     <g id="text_18">
      <!-- 0 -->
      <g transform="translate(239.030227 166.231219)scale(0.1 -0.1)">
       <use xlink:href="#DejaVuSans-30"/>
      </g>
     </g>
    </g>
    <g id="ytick_7">
     <g id="line2d_19">
      <g>
       <use style="stroke:#000000;stroke-width:0.8;" x="252.392727" xlink:href="#m7c816782ef" y="132.192"/>
      </g>
     </g>
     <g id="text_19">
      <!-- 2 -->
      <g transform="translate(239.030227 135.991219)scale(0.1 -0.1)">
       <use xlink:href="#DejaVuSans-32"/>
      </g>
     </g>
    </g>
    <g id="ytick_8">
     <g id="line2d_20">
      <g>
       <use style="stroke:#000000;stroke-width:0.8;" x="252.392727" xlink:href="#m7c816782ef" y="101.952"/>
      </g>
     </g>
     <g id="text_20">
      <!-- 4 -->
      <g transform="translate(239.030227 105.751219)scale(0.1 -0.1)">
       <use xlink:href="#DejaVuSans-34"/>
      </g>
     </g>
    </g>
    <g id="ytick_9">
     <g id="line2d_21">
      <g>
       <use style="stroke:#000000;stroke-width:0.8;" x="252.392727" xlink:href="#m7c816782ef" y="71.712"/>
      </g>
     </g>
     <g id="text_21">
      <!-- 6 -->
      <g transform="translate(239.030227 75.511219)scale(0.1 -0.1)">
       <use xlink:href="#DejaVuSans-36"/>
      </g>
     </g>
    </g>
    <g id="ytick_10">
     <g id="line2d_22">
      <g>
       <use style="stroke:#000000;stroke-width:0.8;" x="252.392727" xlink:href="#m7c816782ef" y="41.472"/>
      </g>
     </g>
     <g id="text_22">
      <!-- 8 -->
      <g transform="translate(239.030227 45.271219)scale(0.1 -0.1)">
       <use xlink:href="#DejaVuSans-38"/>
      </g>
     </g>
    </g>
   </g>
   <g id="patch_8">
    <path d="M 252.392727 162.432 
L 252.392727 41.472 
" style="fill:none;stroke:#000000;stroke-linecap:square;stroke-linejoin:miter;stroke-width:0.8;"/>
   </g>
   <g id="patch_9">
    <path d="M 414.72 162.432 
L 414.72 41.472 
" style="fill:none;stroke:#000000;stroke-linecap:square;stroke-linejoin:miter;stroke-width:0.8;"/>
   </g>
   <g id="patch_10">
    <path d="M 252.392727 162.432 
L 414.72 162.432 
" style="fill:none;stroke:#000000;stroke-linecap:square;stroke-linejoin:miter;stroke-width:0.8;"/>
   </g>
   <g id="patch_11">
    <path d="M 252.392727 41.472 
L 414.72 41.472 
" style="fill:none;stroke:#000000;stroke-linecap:square;stroke-linejoin:miter;stroke-width:0.8;"/>
   </g>
  </g>
  <g id="axes_3">
   <g id="patch_12">
    <path d="M 57.6 307.584 
L 219.927273 307.584 
L 219.927273 186.624 
L 57.6 186.624 
z
" style="fill:#ffffff;"/>
   </g>
   <g id="PathCollection_15">
    <path clip-path="url(#pe3a6f6178e)" d="M 75.636364 273.305485 
L 76.138519 273.024 
L 75.636364 272.01945 
L 74.425145 273.024 
z
" style="fill:#edf8e9;"/>
    <path clip-path="url(#pe3a6f6178e)" d="M 63.925927 255.744 
L 75.636364 239.14378 
L 75.942339 238.464 
L 79.707021 221.184 
L 75.636364 217.333598 
L 70.832569 221.184 
L 57.6 236.16864 
L 57.6 238.464 
L 57.6 255.744 
L 57.6 262.42311 
z
" style="fill:#edf8e9;"/>
   </g>
   <g id="PathCollection_16">
    <path clip-path="url(#pe3a6f6178e)" d="M 75.636364 279.913045 
L 87.926086 273.024 
L 77.987932 255.744 
L 86.76805 238.464 
L 86.700548 221.184 
L 75.636364 210.718478 
L 62.579487 221.184 
L 57.6 226.8228 
L 57.6 236.16864 
L 70.832569 221.184 
L 75.636364 217.333598 
L 79.707021 221.184 
L 75.942339 238.464 
L 75.636364 239.14378 
L 63.925927 255.744 
L 57.6 262.42311 
L 57.6 273.024 
L 57.6 277.308092 
z
M 74.425145 273.024 
L 75.636364 272.01945 
L 76.138519 273.024 
L 75.636364 273.305485 
z
" style="fill:#d0edca;"/>
    <path clip-path="url(#pe3a6f6178e)" d="M 62.396724 186.624 
L 57.6 186.624 
L 57.6 201.912174 
z
" style="fill:#d0edca;"/>
   </g>
   <g id="PathCollection_17">
    <path clip-path="url(#pe3a6f6178e)" d="M 111.709091 294.820525 
L 129.745455 294.708358 
L 132.082247 290.304 
L 133.135525 273.024 
L 129.745455 257.636982 
L 111.709091 265.813386 
L 93.672727 267.414943 
L 85.578552 255.744 
L 93.672727 242.845238 
L 96.958285 238.464 
L 93.727084 221.184 
L 93.672727 221.141704 
L 75.636364 204.103357 
L 75.071785 203.904 
L 71.67219 186.624 
L 62.396724 186.624 
L 57.6 201.912174 
L 57.6 203.904 
L 57.6 221.184 
L 57.6 226.8228 
L 62.579487 221.184 
L 75.636364 210.718478 
L 86.700548 221.184 
L 86.76805 238.464 
L 77.987932 255.744 
L 87.926086 273.024 
L 75.636364 279.913045 
L 57.6 277.308092 
L 57.6 287.802305 
L 75.636364 286.520605 
L 93.672727 277.952692 
L 106.244539 290.304 
z
" style="fill:#a7dba0;"/>
    <path clip-path="url(#pe3a6f6178e)" d="M 201.890909 292.543788 
L 203.397555 290.304 
L 201.890909 288.71741 
L 199.399865 290.304 
z
" style="fill:#a7dba0;"/>
    <path clip-path="url(#pe3a6f6178e)" d="M 183.854545 274.009267 
L 184.517314 273.024 
L 183.854545 272.374869 
L 183.362257 273.024 
z
" style="fill:#a7dba0;"/>
    <path clip-path="url(#pe3a6f6178e)" d="M 165.818182 224.664643 
L 174.330411 221.184 
L 183.854545 211.609967 
L 201.890909 207.195509 
L 219.927273 209.780063 
L 219.927273 203.904 
L 219.927273 192.935225 
L 201.890909 201.142899 
L 189.260114 186.624 
L 183.854545 186.624 
L 165.818182 186.624 
L 159.528104 186.624 
L 160.986713 203.904 
L 156.354333 221.184 
z
" style="fill:#a7dba0;"/>
   </g>
   <g id="PathCollection_18">
    <path clip-path="url(#pe3a6f6178e)" d="M 75.636364 307.584 
L 81.264725 307.584 
L 86.468225 290.304 
L 93.672727 287.569976 
L 96.455561 290.304 
L 111.709091 302.911245 
L 129.745455 307.003095 
L 130.676812 307.584 
L 147.781818 307.584 
L 164.933997 307.584 
L 147.781818 300.991488 
L 138.605388 290.304 
L 138.698129 273.024 
L 142.893797 255.744 
L 131.707002 238.464 
L 129.745455 237.582624 
L 127.779338 238.464 
L 112.132132 255.744 
L 111.709091 255.962854 
L 93.672727 256.470074 
L 93.169172 255.744 
L 93.672727 254.941541 
L 106.029488 238.464 
L 111.53371 221.184 
L 93.672727 207.286242 
L 90.045925 203.904 
L 83.632297 186.624 
L 75.636364 186.624 
L 71.67219 186.624 
L 75.071785 203.904 
L 75.636364 204.103357 
L 93.672727 221.141704 
L 93.727084 221.184 
L 96.958285 238.464 
L 93.672727 242.845238 
L 85.578552 255.744 
L 93.672727 267.414943 
L 111.709091 265.813386 
L 129.745455 257.636982 
L 133.135525 273.024 
L 132.082247 290.304 
L 129.745455 294.708358 
L 111.709091 294.820525 
L 106.244539 290.304 
L 93.672727 277.952692 
L 75.636364 286.520605 
L 57.6 287.802305 
L 57.6 290.304 
L 57.6 307.584 
z
" style="fill:#73c476;"/>
    <path clip-path="url(#pe3a6f6178e)" d="M 183.854545 291.835787 
L 200.892316 307.584 
L 201.890909 307.584 
L 212.027534 307.584 
L 214.598698 290.304 
L 201.890909 276.921928 
L 197.575657 273.024 
L 183.854545 259.585224 
L 173.662839 273.024 
L 182.276459 290.304 
z
M 199.399865 290.304 
L 201.890909 288.71741 
L 203.397555 290.304 
L 201.890909 292.543788 
z
M 183.362257 273.024 
L 183.854545 272.374869 
L 184.517314 273.024 
L 183.854545 274.009267 
z
" style="fill:#73c476;"/>
    <path clip-path="url(#pe3a6f6178e)" d="M 183.854545 249.677196 
L 187.210572 238.464 
L 190.059674 221.184 
L 201.890909 216.370971 
L 219.927273 216.448702 
L 219.927273 209.780063 
L 201.890909 207.195509 
L 183.854545 211.609967 
L 174.330411 221.184 
L 165.818182 224.664643 
L 156.354333 221.184 
L 160.986713 203.904 
L 159.528104 186.624 
L 151.028037 186.624 
L 147.781818 198.96403 
L 146.271722 203.904 
L 143.728422 221.184 
L 147.781818 228.042689 
L 165.818182 230.037079 
L 179.139947 238.464 
z
" style="fill:#73c476;"/>
    <path clip-path="url(#pe3a6f6178e)" d="M 201.890909 201.142899 
L 219.927273 192.935225 
L 219.927273 186.624 
L 213.480701 186.624 
L 201.890909 193.446009 
L 195.956065 186.624 
L 189.260114 186.624 
z
" style="fill:#73c476;"/>
   </g>
   <g id="PathCollection_19">
    <path clip-path="url(#pe3a6f6178e)" d="M 93.672727 297.893861 
L 106.006802 307.584 
L 111.709091 307.584 
L 129.745455 307.584 
L 130.676812 307.584 
L 129.745455 307.003095 
L 111.709091 302.911245 
L 96.455561 290.304 
L 93.672727 287.569976 
L 86.468225 290.304 
L 81.264725 307.584 
L 87.748257 307.584 
z
" style="fill:#3da65a;"/>
    <path clip-path="url(#pe3a6f6178e)" d="M 147.781818 300.991488 
L 164.933997 307.584 
L 165.818182 307.584 
L 176.543607 307.584 
L 183.854545 301.373485 
L 190.573614 307.584 
L 200.892316 307.584 
L 183.854545 291.835787 
L 182.276459 290.304 
L 173.662839 273.024 
L 183.854545 259.585224 
L 197.575657 273.024 
L 201.890909 276.921928 
L 214.598698 290.304 
L 212.027534 307.584 
L 219.927273 307.584 
L 219.927273 290.304 
L 219.927273 284.88681 
L 208.534735 273.024 
L 201.890909 265.148057 
L 192.272449 255.744 
L 193.256248 238.464 
L 201.890909 225.499687 
L 219.927273 224.72854 
L 219.927273 221.184 
L 219.927273 216.448702 
L 201.890909 216.370971 
L 190.059674 221.184 
L 187.210572 238.464 
L 183.854545 249.677196 
L 179.139947 238.464 
L 165.818182 230.037079 
L 147.781818 228.042689 
L 143.728422 221.184 
L 146.271722 203.904 
L 147.781818 198.96403 
L 151.028037 186.624 
L 147.781818 186.624 
L 139.049473 186.624 
L 136.394355 203.904 
L 133.917422 221.184 
L 129.745455 226.076704 
L 124.326666 221.184 
L 119.675596 203.904 
L 111.709091 199.460087 
L 96.458387 186.624 
L 93.672727 186.624 
L 83.632297 186.624 
L 90.045925 203.904 
L 93.672727 207.286242 
L 111.53371 221.184 
L 106.029488 238.464 
L 93.672727 254.941541 
L 93.169172 255.744 
L 93.672727 256.470074 
L 111.709091 255.962854 
L 112.132132 255.744 
L 127.779338 238.464 
L 129.745455 237.582624 
L 131.707002 238.464 
L 142.893797 255.744 
L 138.698129 273.024 
L 138.605388 290.304 
z
M 145.128529 290.304 
L 144.260732 273.024 
L 147.781818 264.538965 
L 157.464447 255.744 
L 154.918353 238.464 
L 165.818182 235.409516 
L 170.646887 238.464 
L 173.884503 255.744 
L 165.818182 268.660608 
L 161.63362 273.024 
L 165.818182 276.838771 
L 172.450473 290.304 
L 165.818182 297.458493 
L 147.781818 293.394199 
z
" style="fill:#3da65a;"/>
    <path clip-path="url(#pe3a6f6178e)" d="M 201.890909 193.446009 
L 213.480701 186.624 
L 201.890909 186.624 
L 195.956065 186.624 
z
" style="fill:#3da65a;"/>
   </g>
   <g id="PathCollection_20">
    <path clip-path="url(#pe3a6f6178e)" d="M 93.672727 307.584 
L 106.006802 307.584 
L 93.672727 297.893861 
L 87.748257 307.584 
z
" style="fill:#18823d;"/>
    <path clip-path="url(#pe3a6f6178e)" d="M 147.781818 293.394199 
L 165.818182 297.458493 
L 172.450473 290.304 
L 165.818182 276.838771 
L 161.63362 273.024 
L 165.818182 268.660608 
L 173.884503 255.744 
L 170.646887 238.464 
L 165.818182 235.409516 
L 154.918353 238.464 
L 157.464447 255.744 
L 147.781818 264.538965 
L 144.260732 273.024 
L 145.128529 290.304 
z
" style="fill:#18823d;"/>
    <path clip-path="url(#pe3a6f6178e)" d="M 183.854545 307.584 
L 190.573614 307.584 
L 183.854545 301.373485 
L 176.543607 307.584 
z
" style="fill:#18823d;"/>
    <path clip-path="url(#pe3a6f6178e)" d="M 219.927273 284.88681 
L 219.927273 274.554239 
L 218.457697 273.024 
L 219.927273 269.023939 
L 219.927273 255.744 
L 219.927273 241.931984 
L 201.890909 250.232532 
L 199.301924 238.464 
L 201.890909 234.576828 
L 219.927273 236.954655 
L 219.927273 224.72854 
L 201.890909 225.499687 
L 193.256248 238.464 
L 192.272449 255.744 
L 201.890909 265.148057 
L 208.534735 273.024 
z
" style="fill:#18823d;"/>
    <path clip-path="url(#pe3a6f6178e)" d="M 129.745455 226.076704 
L 133.917422 221.184 
L 136.394355 203.904 
L 139.049473 186.624 
L 129.745455 186.624 
L 122.744681 186.624 
L 111.709091 191.115354 
L 106.372861 186.624 
L 96.458387 186.624 
L 111.709091 199.460087 
L 119.675596 203.904 
L 124.326666 221.184 
z
" style="fill:#18823d;"/>
   </g>
   <g id="PathCollection_21">
    <path clip-path="url(#pe3a6f6178e)" d="M 219.927273 274.554239 
L 219.927273 273.024 
L 219.927273 269.023939 
L 218.457697 273.024 
z
" style="fill:#005b25;"/>
    <path clip-path="url(#pe3a6f6178e)" d="M 201.890909 250.232532 
L 219.927273 241.931984 
L 219.927273 238.464 
L 219.927273 236.954655 
L 201.890909 234.576828 
L 199.301924 238.464 
z
" style="fill:#005b25;"/>
    <path clip-path="url(#pe3a6f6178e)" d="M 111.709091 191.115354 
L 122.744681 186.624 
L 111.709091 186.624 
L 106.372861 186.624 
z
" style="fill:#005b25;"/>
   </g>
   <g id="matplotlib.axis_5">
    <g id="xtick_13">
     <g id="line2d_23">
      <g>
       <use style="stroke:#000000;stroke-width:0.8;" x="57.6" xlink:href="#mb24533cd93" y="307.584"/>
      </g>
     </g>
     <g id="text_23">
      <!-- 0 -->
      <g transform="translate(54.41875 322.182437)scale(0.1 -0.1)">
       <use xlink:href="#DejaVuSans-30"/>
      </g>
     </g>
    </g>
    <g id="xtick_14">
     <g id="line2d_24">
      <g>
       <use style="stroke:#000000;stroke-width:0.8;" x="90.065455" xlink:href="#mb24533cd93" y="307.584"/>
      </g>
     </g>
     <g id="text_24">
      <!-- 2 -->
      <g transform="translate(86.884205 322.182437)scale(0.1 -0.1)">
       <use xlink:href="#DejaVuSans-32"/>
      </g>
     </g>
    </g>
    <g id="xtick_15">
     <g id="line2d_25">
      <g>
       <use style="stroke:#000000;stroke-width:0.8;" x="122.530909" xlink:href="#mb24533cd93" y="307.584"/>
      </g>
     </g>
     <g id="text_25">
      <!-- 4 -->
      <g transform="translate(119.349659 322.182437)scale(0.1 -0.1)">
       <use xlink:href="#DejaVuSans-34"/>
      </g>
     </g>
    </g>
    <g id="xtick_16">
     <g id="line2d_26">
      <g>
       <use style="stroke:#000000;stroke-width:0.8;" x="154.996364" xlink:href="#mb24533cd93" y="307.584"/>
      </g>
     </g>
     <g id="text_26">
      <!-- 6 -->
      <g transform="translate(151.815114 322.182437)scale(0.1 -0.1)">
       <use xlink:href="#DejaVuSans-36"/>
      </g>
     </g>
    </g>
    <g id="xtick_17">
     <g id="line2d_27">
      <g>
       <use style="stroke:#000000;stroke-width:0.8;" x="187.461818" xlink:href="#mb24533cd93" y="307.584"/>
      </g>
     </g>
     <g id="text_27">
      <!-- 8 -->
      <g transform="translate(184.280568 322.182437)scale(0.1 -0.1)">
       <use xlink:href="#DejaVuSans-38"/>
      </g>
     </g>
    </g>
    <g id="xtick_18">
     <g id="line2d_28">
      <g>
       <use style="stroke:#000000;stroke-width:0.8;" x="219.927273" xlink:href="#mb24533cd93" y="307.584"/>
      </g>
     </g>
     <g id="text_28">
      <!-- 10 -->
      <g transform="translate(213.564773 322.182437)scale(0.1 -0.1)">
       <use xlink:href="#DejaVuSans-31"/>
       <use x="63.623047" xlink:href="#DejaVuSans-30"/>
      </g>
     </g>
    </g>
   </g>
   <g id="matplotlib.axis_6">
    <g id="ytick_11">
     <g id="line2d_29">
      <g>
       <use style="stroke:#000000;stroke-width:0.8;" x="57.6" xlink:href="#m7c816782ef" y="307.584"/>
      </g>
     </g>
     <g id="text_29">
      <!-- 0 -->
      <g transform="translate(44.2375 311.383219)scale(0.1 -0.1)">
       <use xlink:href="#DejaVuSans-30"/>
      </g>
     </g>
    </g>
    <g id="ytick_12">
     <g id="line2d_30">
      <g>
       <use style="stroke:#000000;stroke-width:0.8;" x="57.6" xlink:href="#m7c816782ef" y="277.344"/>
      </g>
     </g>
     <g id="text_30">
      <!-- 2 -->
      <g transform="translate(44.2375 281.143219)scale(0.1 -0.1)">
       <use xlink:href="#DejaVuSans-32"/>
      </g>
     </g>
    </g>
    <g id="ytick_13">
     <g id="line2d_31">
      <g>
       <use style="stroke:#000000;stroke-width:0.8;" x="57.6" xlink:href="#m7c816782ef" y="247.104"/>
      </g>
     </g>
     <g id="text_31">
      <!-- 4 -->
      <g transform="translate(44.2375 250.903219)scale(0.1 -0.1)">
       <use xlink:href="#DejaVuSans-34"/>
      </g>
     </g>
    </g>
    <g id="ytick_14">
     <g id="line2d_32">
      <g>
       <use style="stroke:#000000;stroke-width:0.8;" x="57.6" xlink:href="#m7c816782ef" y="216.864"/>
      </g>
     </g>
     <g id="text_32">
      <!-- 6 -->
      <g transform="translate(44.2375 220.663219)scale(0.1 -0.1)">
       <use xlink:href="#DejaVuSans-36"/>
      </g>
     </g>
    </g>
    <g id="ytick_15">
     <g id="line2d_33">
      <g>
       <use style="stroke:#000000;stroke-width:0.8;" x="57.6" xlink:href="#m7c816782ef" y="186.624"/>
      </g>
     </g>
     <g id="text_33">
      <!-- 8 -->
      <g transform="translate(44.2375 190.423219)scale(0.1 -0.1)">
       <use xlink:href="#DejaVuSans-38"/>
      </g>
     </g>
    </g>
   </g>
   <g id="patch_13">
    <path d="M 57.6 307.584 
L 57.6 186.624 
" style="fill:none;stroke:#000000;stroke-linecap:square;stroke-linejoin:miter;stroke-width:0.8;"/>
   </g>
   <g id="patch_14">
    <path d="M 219.927273 307.584 
L 219.927273 186.624 
" style="fill:none;stroke:#000000;stroke-linecap:square;stroke-linejoin:miter;stroke-width:0.8;"/>
   </g>
   <g id="patch_15">
    <path d="M 57.6 307.584 
L 219.927273 307.584 
" style="fill:none;stroke:#000000;stroke-linecap:square;stroke-linejoin:miter;stroke-width:0.8;"/>
   </g>
   <g id="patch_16">
    <path d="M 57.6 186.624 
L 219.927273 186.624 
" style="fill:none;stroke:#000000;stroke-linecap:square;stroke-linejoin:miter;stroke-width:0.8;"/>
   </g>
  </g>
  <g id="axes_4">
   <g id="patch_17">
    <path d="M 252.392727 307.584 
L 414.72 307.584 
L 414.72 186.624 
L 252.392727 186.624 
z
" style="fill:#ffffff;"/>
   </g>
   <g id="PathCollection_22">
    <path clip-path="url(#pc8b78be010)" d="M 306.501818 307.584 
L 324.538182 307.584 
L 331.106894 307.584 
L 326.533057 290.304 
L 324.538182 287.562921 
L 306.501818 288.334917 
L 305.374306 290.304 
L 304.414375 307.584 
z
" style="fill:#edf8e9;"/>
    <path clip-path="url(#pc8b78be010)" d="M 288.465455 245.735636 
L 306.501818 239.484705 
L 307.676898 238.464 
L 306.501818 236.337485 
L 288.465455 233.60709 
L 280.524367 238.464 
z
" style="fill:#edf8e9;"/>
   </g>
   <g id="PathCollection_23">
    <path clip-path="url(#pc8b78be010)" d="M 305.374306 290.304 
L 306.501818 288.334917 
L 324.538182 287.562921 
L 326.533057 290.304 
L 331.106894 307.584 
L 342.574545 307.584 
L 342.609407 307.584 
L 342.574545 307.514157 
L 332.011828 290.304 
L 324.538182 280.034758 
L 306.501818 280.60144 
L 300.946058 290.304 
L 295.76318 307.584 
L 304.414375 307.584 
z
" style="fill:#d0edca;"/>
    <path clip-path="url(#pc8b78be010)" d="M 378.647273 262.133173 
L 385.772736 255.744 
L 378.647273 248.211959 
L 365.431947 255.744 
z
" style="fill:#d0edca;"/>
    <path clip-path="url(#pc8b78be010)" d="M 288.465455 253.485954 
L 306.501818 246.767438 
L 316.061089 238.464 
L 324.538182 228.222755 
L 329.230785 221.184 
L 324.538182 204.782011 
L 323.310359 203.904 
L 306.501818 196.962557 
L 301.733088 203.904 
L 306.485531 221.184 
L 288.465455 228.430455 
L 272.060528 238.464 
z
M 280.524367 238.464 
L 288.465455 233.60709 
L 306.501818 236.337485 
L 307.676898 238.464 
L 306.501818 239.484705 
L 288.465455 245.735636 
z
" style="fill:#d0edca;"/>
    <path clip-path="url(#pc8b78be010)" d="M 360.610909 241.955959 
L 361.812704 238.464 
L 360.610909 235.072143 
L 359.879272 238.464 
z
" style="fill:#d0edca;"/>
    <path clip-path="url(#pc8b78be010)" d="M 259.857668 221.184 
L 267.109608 203.904 
L 270.429091 200.715613 
L 281.908155 186.624 
L 270.429091 186.624 
L 252.392727 186.624 
L 252.392727 203.904 
L 252.392727 221.184 
L 252.392727 225.448825 
z
" style="fill:#d0edca;"/>
    <path clip-path="url(#pc8b78be010)" d="M 342.574545 201.158505 
L 348.502423 186.624 
L 342.574545 186.624 
L 330.911027 186.624 
z
" style="fill:#d0edca;"/>
   </g>
   <g id="PathCollection_24">
    <path clip-path="url(#pc8b78be010)" d="M 254.156464 290.304 
L 252.392727 288.399182 
L 252.392727 290.304 
L 252.392727 307.584 
L 259.525307 307.584 
z
" style="fill:#a7dba0;"/>
    <path clip-path="url(#pc8b78be010)" d="M 288.465455 307.584 
L 295.76318 307.584 
L 300.946058 290.304 
L 306.501818 280.60144 
L 324.538182 280.034758 
L 332.011828 290.304 
L 342.574545 307.514157 
L 342.609407 307.584 
L 347.065189 307.584 
L 342.574545 298.587429 
L 337.490599 290.304 
L 325.55764 273.024 
L 324.538182 272.42017 
L 306.501818 271.644602 
L 306.214345 273.024 
L 296.517811 290.304 
L 288.465455 306.215071 
L 286.194034 307.584 
z
" style="fill:#a7dba0;"/>
    <path clip-path="url(#pc8b78be010)" d="M 414.72 295.505077 
L 414.72 290.304 
L 414.72 273.024 
L 414.72 270.195139 
L 396.683636 261.416419 
L 394.227089 255.744 
L 378.647273 239.275204 
L 377.246337 238.464 
L 370.085036 221.184 
L 371.713996 203.904 
L 372.487056 186.624 
L 360.610909 186.624 
L 348.502423 186.624 
L 342.574545 201.158505 
L 330.911027 186.624 
L 324.538182 186.624 
L 306.501818 186.624 
L 288.465455 186.624 
L 281.908155 186.624 
L 270.429091 200.715613 
L 267.109608 203.904 
L 259.857668 221.184 
L 252.392727 225.448825 
L 252.392727 234.936937 
L 258.079626 238.464 
L 270.429091 253.766661 
L 272.743287 255.744 
L 288.465455 262.00965 
L 302.044974 255.744 
L 306.501818 254.05017 
L 324.445281 238.464 
L 324.538182 238.351765 
L 335.983601 221.184 
L 342.574545 212.370497 
L 353.197341 221.184 
L 350.483467 238.464 
L 349.270432 255.744 
L 359.191461 273.024 
L 360.610909 274.214255 
L 363.916944 273.024 
L 378.647273 269.713918 
L 386.284199 273.024 
L 396.683636 287.222651 
L 399.612713 290.304 
z
M 365.431947 255.744 
L 378.647273 248.211959 
L 385.772736 255.744 
L 378.647273 262.133173 
z
M 272.060528 238.464 
L 288.465455 228.430455 
L 306.485531 221.184 
L 301.733088 203.904 
L 306.501818 196.962557 
L 323.310359 203.904 
L 324.538182 204.782011 
L 329.230785 221.184 
L 324.538182 228.222755 
L 316.061089 238.464 
L 306.501818 246.767438 
L 288.465455 253.485954 
z
M 359.879272 238.464 
L 360.610909 235.072143 
L 361.812704 238.464 
L 360.610909 241.955959 
z
M 279.017416 221.184 
L 282.208044 203.904 
L 288.465455 195.654374 
L 292.368768 203.904 
L 293.612567 221.184 
L 288.465455 223.25382 
z
" style="fill:#a7dba0;"/>
    <path clip-path="url(#pc8b78be010)" d="M 414.72 235.337563 
L 414.72 221.184 
L 414.72 206.939649 
L 409.735388 203.904 
L 408.04481 186.624 
L 396.683636 186.624 
L 382.537219 186.624 
L 386.548453 203.904 
L 396.683636 209.246641 
L 406.69244 221.184 
z
" style="fill:#a7dba0;"/>
   </g>
   <g id="PathCollection_25">
    <path clip-path="url(#pc8b78be010)" d="M 265.582462 290.304 
L 252.392727 276.059217 
L 252.392727 288.399182 
L 254.156464 290.304 
L 259.525307 307.584 
L 269.567069 307.584 
z
" style="fill:#73c476;"/>
    <path clip-path="url(#pc8b78be010)" d="M 288.465455 306.215071 
L 296.517811 290.304 
L 306.214345 273.024 
L 306.501818 271.644602 
L 324.538182 272.42017 
L 325.55764 273.024 
L 337.490599 290.304 
L 342.574545 298.587429 
L 347.065189 307.584 
L 351.52097 307.584 
L 345.850148 290.304 
L 360.610909 286.359828 
L 378.647273 284.603443 
L 383.003445 290.304 
L 396.683636 298.240245 
L 414.72 303.320013 
L 414.72 295.505077 
L 399.612713 290.304 
L 396.683636 287.222651 
L 386.284199 273.024 
L 378.647273 269.713918 
L 363.916944 273.024 
L 360.610909 274.214255 
L 359.191461 273.024 
L 349.270432 255.744 
L 350.483467 238.464 
L 353.197341 221.184 
L 342.574545 212.370497 
L 335.983601 221.184 
L 324.538182 238.351765 
L 324.445281 238.464 
L 306.501818 254.05017 
L 302.044974 255.744 
L 288.465455 262.00965 
L 272.743287 255.744 
L 270.429091 253.766661 
L 258.079626 238.464 
L 252.392727 234.936937 
L 252.392727 238.464 
L 252.392727 243.302199 
L 263.996221 255.744 
L 270.429091 268.097432 
L 288.465455 270.851305 
L 291.966608 273.024 
L 292.089563 290.304 
L 288.465455 297.465066 
L 271.675423 307.584 
L 286.194034 307.584 
z
M 340.390592 273.024 
L 342.574545 269.578074 
L 344.707164 273.024 
L 342.574545 284.625631 
z
M 314.812313 255.744 
L 324.538182 247.519742 
L 335.41557 255.744 
L 324.538182 263.634538 
z
" style="fill:#73c476;"/>
    <path clip-path="url(#pc8b78be010)" d="M 396.683636 261.416419 
L 414.72 270.195139 
L 414.72 262.838299 
L 404.328524 255.744 
L 396.683636 248.746531 
L 387.04971 238.464 
L 393.973486 221.184 
L 396.683636 220.424218 
L 397.320671 221.184 
L 406.829281 238.464 
L 414.72 246.356749 
L 414.72 238.464 
L 414.72 235.337563 
L 406.69244 221.184 
L 396.683636 209.246641 
L 386.548453 203.904 
L 382.537219 186.624 
L 378.647273 186.624 
L 372.487056 186.624 
L 371.713996 203.904 
L 370.085036 221.184 
L 377.246337 238.464 
L 378.647273 239.275204 
L 394.227089 255.744 
z
" style="fill:#73c476;"/>
    <path clip-path="url(#pc8b78be010)" d="M 288.465455 223.25382 
L 293.612567 221.184 
L 292.368768 203.904 
L 288.465455 195.654374 
L 282.208044 203.904 
L 279.017416 221.184 
z
" style="fill:#73c476;"/>
    <path clip-path="url(#pc8b78be010)" d="M 414.72 206.939649 
L 414.72 203.904 
L 414.72 186.624 
L 408.04481 186.624 
L 409.735388 203.904 
z
" style="fill:#73c476;"/>
   </g>
   <g id="PathCollection_26">
    <path clip-path="url(#pc8b78be010)" d="M 270.429091 307.584 
L 271.675423 307.584 
L 288.465455 297.465066 
L 292.089563 290.304 
L 291.966608 273.024 
L 288.465455 270.851305 
L 270.429091 268.097432 
L 263.996221 255.744 
L 252.392727 243.302199 
L 252.392727 251.003088 
L 256.814205 255.744 
L 252.392727 263.510946 
L 252.392727 273.024 
L 252.392727 276.059217 
L 265.582462 290.304 
L 269.567069 307.584 
z
" style="fill:#3da65a;"/>
    <path clip-path="url(#pc8b78be010)" d="M 360.610909 297.106615 
L 378.647273 305.19779 
L 396.683636 307.352272 
L 397.639601 307.584 
L 414.72 307.584 
L 414.72 303.320013 
L 396.683636 298.240245 
L 383.003445 290.304 
L 378.647273 284.603443 
L 360.610909 286.359828 
L 345.850148 290.304 
L 351.52097 307.584 
L 355.976751 307.584 
z
" style="fill:#3da65a;"/>
    <path clip-path="url(#pc8b78be010)" d="M 342.574545 284.625631 
L 344.707164 273.024 
L 342.574545 269.578074 
L 340.390592 273.024 
z
" style="fill:#3da65a;"/>
    <path clip-path="url(#pc8b78be010)" d="M 324.538182 263.634538 
L 335.41557 255.744 
L 324.538182 247.519742 
L 314.812313 255.744 
z
" style="fill:#3da65a;"/>
    <path clip-path="url(#pc8b78be010)" d="M 414.72 262.838299 
L 414.72 255.744 
L 414.72 246.356749 
L 406.829281 238.464 
L 397.320671 221.184 
L 396.683636 220.424218 
L 393.973486 221.184 
L 387.04971 238.464 
L 396.683636 248.746531 
L 404.328524 255.744 
z
M 396.290993 238.464 
L 396.683636 237.710607 
L 397.097136 238.464 
L 396.683636 238.883078 
z
" style="fill:#3da65a;"/>
   </g>
   <g id="PathCollection_27">
    <path clip-path="url(#pc8b78be010)" d="M 360.610909 307.180706 
L 361.392132 307.584 
L 378.647273 307.584 
L 396.683636 307.584 
L 397.639601 307.584 
L 396.683636 307.352272 
L 378.647273 305.19779 
L 360.610909 297.106615 
L 355.976751 307.584 
L 360.432532 307.584 
z
" style="fill:#18823d;"/>
    <path clip-path="url(#pc8b78be010)" d="M 256.814205 255.744 
L 252.392727 251.003088 
L 252.392727 255.744 
L 252.392727 263.510946 
z
" style="fill:#18823d;"/>
    <path clip-path="url(#pc8b78be010)" d="M 396.683636 238.883078 
L 397.097136 238.464 
L 396.683636 237.710607 
L 396.290993 238.464 
z
" style="fill:#18823d;"/>
   </g>
   <g id="PathCollection_28">
    <path clip-path="url(#pc8b78be010)" d="M 360.610909 307.584 
L 361.392132 307.584 
L 360.610909 307.180706 
L 360.432532 307.584 
z
" style="fill:#005b25;"/>
   </g>
   <g id="matplotlib.axis_7">
    <g id="xtick_19">
     <g id="line2d_34">
      <g>
       <use style="stroke:#000000;stroke-width:0.8;" x="252.392727" xlink:href="#mb24533cd93" y="307.584"/>
      </g>
     </g>
     <g id="text_34">
      <!-- 0 -->
      <g transform="translate(249.211477 322.182437)scale(0.1 -0.1)">
       <use xlink:href="#DejaVuSans-30"/>
      </g>
     </g>
    </g>
    <g id="xtick_20">
     <g id="line2d_35">
      <g>
       <use style="stroke:#000000;stroke-width:0.8;" x="284.858182" xlink:href="#mb24533cd93" y="307.584"/>
      </g>
     </g>
     <g id="text_35">
      <!-- 2 -->
      <g transform="translate(281.676932 322.182437)scale(0.1 -0.1)">
       <use xlink:href="#DejaVuSans-32"/>
      </g>
     </g>
    </g>
    <g id="xtick_21">
     <g id="line2d_36">
      <g>
       <use style="stroke:#000000;stroke-width:0.8;" x="317.323636" xlink:href="#mb24533cd93" y="307.584"/>
      </g>
     </g>
     <g id="text_36">
      <!-- 4 -->
      <g transform="translate(314.142386 322.182437)scale(0.1 -0.1)">
       <use xlink:href="#DejaVuSans-34"/>
      </g>
     </g>
    </g>
    <g id="xtick_22">
     <g id="line2d_37">
      <g>
       <use style="stroke:#000000;stroke-width:0.8;" x="349.789091" xlink:href="#mb24533cd93" y="307.584"/>
      </g>
     </g>
     <g id="text_37">
      <!-- 6 -->
      <g transform="translate(346.607841 322.182437)scale(0.1 -0.1)">
       <use xlink:href="#DejaVuSans-36"/>
      </g>
     </g>
    </g>
    <g id="xtick_23">
     <g id="line2d_38">
      <g>
       <use style="stroke:#000000;stroke-width:0.8;" x="382.254545" xlink:href="#mb24533cd93" y="307.584"/>
      </g>
     </g>
     <g id="text_38">
      <!-- 8 -->
      <g transform="translate(379.073295 322.182437)scale(0.1 -0.1)">
       <use xlink:href="#DejaVuSans-38"/>
      </g>
     </g>
    </g>
    <g id="xtick_24">
     <g id="line2d_39">
      <g>
       <use style="stroke:#000000;stroke-width:0.8;" x="414.72" xlink:href="#mb24533cd93" y="307.584"/>
      </g>
     </g>
     <g id="text_39">
      <!-- 10 -->
      <g transform="translate(408.3575 322.182437)scale(0.1 -0.1)">
       <use xlink:href="#DejaVuSans-31"/>
       <use x="63.623047" xlink:href="#DejaVuSans-30"/>
      </g>
     </g>
    </g>
   </g>
   <g id="matplotlib.axis_8">
    <g id="ytick_16">
     <g id="line2d_40">
      <g>
       <use style="stroke:#000000;stroke-width:0.8;" x="252.392727" xlink:href="#m7c816782ef" y="307.584"/>
      </g>
     </g>
     <g id="text_40">
      <!-- 0 -->
      <g transform="translate(239.030227 311.383219)scale(0.1 -0.1)">
       <use xlink:href="#DejaVuSans-30"/>
      </g>
     </g>
    </g>
    <g id="ytick_17">
     <g id="line2d_41">
      <g>
       <use style="stroke:#000000;stroke-width:0.8;" x="252.392727" xlink:href="#m7c816782ef" y="277.344"/>
      </g>
     </g>
     <g id="text_41">
      <!-- 2 -->
      <g transform="translate(239.030227 281.143219)scale(0.1 -0.1)">
       <use xlink:href="#DejaVuSans-32"/>
      </g>
     </g>
    </g>
    <g id="ytick_18">
     <g id="line2d_42">
      <g>
       <use style="stroke:#000000;stroke-width:0.8;" x="252.392727" xlink:href="#m7c816782ef" y="247.104"/>
      </g>
     </g>
     <g id="text_42">
      <!-- 4 -->
      <g transform="translate(239.030227 250.903219)scale(0.1 -0.1)">
       <use xlink:href="#DejaVuSans-34"/>
      </g>
     </g>
    </g>
    <g id="ytick_19">
     <g id="line2d_43">
      <g>
       <use style="stroke:#000000;stroke-width:0.8;" x="252.392727" xlink:href="#m7c816782ef" y="216.864"/>
      </g>
     </g>
     <g id="text_43">
      <!-- 6 -->
      <g transform="translate(239.030227 220.663219)scale(0.1 -0.1)">
       <use xlink:href="#DejaVuSans-36"/>
      </g>
     </g>
    </g>
    <g id="ytick_20">
     <g id="line2d_44">
      <g>
       <use style="stroke:#000000;stroke-width:0.8;" x="252.392727" xlink:href="#m7c816782ef" y="186.624"/>
      </g>
     </g>
     <g id="text_44">
      <!-- 8 -->
      <g transform="translate(239.030227 190.423219)scale(0.1 -0.1)">
       <use xlink:href="#DejaVuSans-38"/>
      </g>
     </g>
    </g>
   </g>
   <g id="patch_18">
    <path d="M 252.392727 307.584 
L 252.392727 186.624 
" style="fill:none;stroke:#000000;stroke-linecap:square;stroke-linejoin:miter;stroke-width:0.8;"/>
   </g>
   <g id="patch_19">
    <path d="M 414.72 307.584 
L 414.72 186.624 
" style="fill:none;stroke:#000000;stroke-linecap:square;stroke-linejoin:miter;stroke-width:0.8;"/>
   </g>
   <g id="patch_20">
    <path d="M 252.392727 307.584 
L 414.72 307.584 
" style="fill:none;stroke:#000000;stroke-linecap:square;stroke-linejoin:miter;stroke-width:0.8;"/>
   </g>
   <g id="patch_21">
    <path d="M 252.392727 186.624 
L 414.72 186.624 
" style="fill:none;stroke:#000000;stroke-linecap:square;stroke-linejoin:miter;stroke-width:0.8;"/>
   </g>
  </g>
 </g>
 <defs>
  <clipPath id="pd369741ddb">
   <rect height="120.96" width="162.327273" x="57.6" y="41.472"/>
  </clipPath>
  <clipPath id="p613aee4abb">
   <rect height="120.96" width="162.327273" x="252.392727" y="41.472"/>
  </clipPath>
  <clipPath id="pe3a6f6178e">
   <rect height="120.96" width="162.327273" x="57.6" y="186.624"/>
  </clipPath>
  <clipPath id="pc8b78be010">
   <rect height="120.96" width="162.327273" x="252.392727" y="186.624"/>
  </clipPath>
 </defs>
</svg>
